<?xml version="1.0" encoding="utf-8" standalone="no"?>
<!DOCTYPE svg PUBLIC "-//W3C//DTD SVG 1.1//EN"
  "http://www.w3.org/Graphics/SVG/1.1/DTD/svg11.dtd">
<svg xmlns:xlink="http://www.w3.org/1999/xlink" width="439.807375pt" height="347.505625pt" viewBox="0 0 439.807375 347.505625" xmlns="http://www.w3.org/2000/svg" version="1.1">
 <metadata>
  <rdf:RDF xmlns:dc="http://purl.org/dc/elements/1.1/" xmlns:cc="http://creativecommons.org/ns#" xmlns:rdf="http://www.w3.org/1999/02/22-rdf-syntax-ns#">
   <cc:Work>
    <dc:type rdf:resource="http://purl.org/dc/dcmitype/StillImage"/>
    <dc:date>2026-03-06T14:41:19.775173</dc:date>
    <dc:format>image/svg+xml</dc:format>
    <dc:creator>
     <cc:Agent>
      <dc:title>Matplotlib v3.10.0, https://matplotlib.org/</dc:title>
     </cc:Agent>
    </dc:creator>
   </cc:Work>
  </rdf:RDF>
 </metadata>
 <defs>
  <style type="text/css">*{stroke-linejoin: round; stroke-linecap: butt}</style>
 </defs>
 <g id="figure_1">
  <g id="patch_1">
   <path d="M 0 347.505625 
L 439.807375 347.505625 
L 439.807375 0 
L 0 0 
z
" style="fill: #ffffff"/>
  </g>
  <g id="axes_1">
   <g id="patch_2">
    <path d="M 51.01 310.078125 
L 252.086364 310.078125 
L 252.086364 16.318125 
L 51.01 16.318125 
z
" style="fill: #ffffff"/>
   </g>
   <g id="FillBetweenPolyCollection_1">
    <defs>
     <path id="m5c5ff6c805" d="M 64.415091 -132.173232 
L 64.415091 -130.495325 
L 71.117636 -130.495325 
L 71.117636 -132.173232 
L 71.117636 -132.173232 
L 64.415091 -132.173232 
z
"/>
    </defs>
    <g clip-path="url(#p25ba7ccd77)">
     <use xlink:href="#m5c5ff6c805" x="0" y="347.505625" style="fill: #333333; fill-opacity: 0.2"/>
    </g>
   </g>
   <g id="FillBetweenPolyCollection_2">
    <defs>
     <path id="m2c989827b1" d="M 154.899455 -144.856913 
L 154.899455 -142.833176 
L 161.602 -142.833176 
L 161.602 -144.856913 
L 161.602 -144.856913 
L 154.899455 -144.856913 
z
"/>
    </defs>
    <g clip-path="url(#p25ba7ccd77)">
     <use xlink:href="#m2c989827b1" x="0" y="347.505625" style="fill: #333333; fill-opacity: 0.2"/>
    </g>
   </g>
   <g id="FillBetweenPolyCollection_3">
    <defs>
     <path id="m20d34e0681" d="M 245.383818 -137.395953 
L 245.383818 -135.088644 
L 252.086364 -135.088644 
L 252.086364 -137.395953 
L 252.086364 -137.395953 
L 245.383818 -137.395953 
z
"/>
    </defs>
    <g clip-path="url(#p25ba7ccd77)">
     <use xlink:href="#m20d34e0681" x="0" y="347.505625" style="fill: #333333; fill-opacity: 0.2"/>
    </g>
   </g>
   <g id="FillBetweenPolyCollection_4">
    <defs>
     <path id="m68d8f09270" d="M 335.868182 -132.340223 
L 335.868182 -129.478408 
L 342.570727 -129.478408 
L 342.570727 -132.340223 
L 342.570727 -132.340223 
L 335.868182 -132.340223 
z
"/>
    </defs>
    <g clip-path="url(#p25ba7ccd77)">
     <use xlink:href="#m68d8f09270" x="0" y="347.505625" style="fill: #333333; fill-opacity: 0.2"/>
    </g>
   </g>
   <g id="FillBetweenPolyCollection_5">
    <defs>
     <path id="mc4929e9b82" d="M 426.352545 -126.763499 
L 426.352545 -123.335539 
L 433.055091 -123.335539 
L 433.055091 -126.763499 
L 433.055091 -126.763499 
L 426.352545 -126.763499 
z
"/>
    </defs>
    <g clip-path="url(#p25ba7ccd77)">
     <use xlink:href="#mc4929e9b82" x="0" y="347.505625" style="fill: #333333; fill-opacity: 0.2"/>
    </g>
   </g>
   <g id="matplotlib.axis_1">
    <g id="xtick_1">
     <g id="line2d_1">
      <defs>
       <path id="me2bb918da8" d="M 0 0 
L 0 3.5 
" style="stroke: #000000; stroke-width: 0.8"/>
      </defs>
      <g>
       <use xlink:href="#me2bb918da8" x="67.766364" y="310.078125" style="stroke: #000000; stroke-width: 0.8"/>
      </g>
     </g>
     <g id="text_1">
      <!-- 0 -->
      <g transform="translate(59.416989 335.314375) scale(0.24 -0.24)">
       <defs>
        <path id="DejaVuSans-Bold-30" d="M 2944 2338 
Q 2944 3213 2780 3570 
Q 2616 3928 2228 3928 
Q 1841 3928 1675 3570 
Q 1509 3213 1509 2338 
Q 1509 1453 1675 1090 
Q 1841 728 2228 728 
Q 2613 728 2778 1090 
Q 2944 1453 2944 2338 
z
M 4147 2328 
Q 4147 1169 3647 539 
Q 3147 -91 2228 -91 
Q 1306 -91 806 539 
Q 306 1169 306 2328 
Q 306 3491 806 4120 
Q 1306 4750 2228 4750 
Q 3147 4750 3647 4120 
Q 4147 3491 4147 2328 
z
" transform="scale(0.015625)"/>
       </defs>
       <use xlink:href="#DejaVuSans-Bold-30"/>
      </g>
     </g>
    </g>
    <g id="xtick_2">
     <g id="line2d_2">
      <g>
       <use xlink:href="#me2bb918da8" x="101.279091" y="310.078125" style="stroke: #000000; stroke-width: 0.8"/>
      </g>
     </g>
    </g>
    <g id="xtick_3">
     <g id="line2d_3">
      <g>
       <use xlink:href="#me2bb918da8" x="134.791818" y="310.078125" style="stroke: #000000; stroke-width: 0.8"/>
      </g>
     </g>
     <g id="text_2">
      <!-- 0.2 -->
      <g transform="translate(113.534943 335.314375) scale(0.24 -0.24)">
       <defs>
        <path id="DejaVuSans-Bold-2e" d="M 653 1209 
L 1778 1209 
L 1778 0 
L 653 0 
L 653 1209 
z
" transform="scale(0.015625)"/>
        <path id="DejaVuSans-Bold-32" d="M 1844 884 
L 3897 884 
L 3897 0 
L 506 0 
L 506 884 
L 2209 2388 
Q 2438 2594 2547 2791 
Q 2656 2988 2656 3200 
Q 2656 3528 2436 3728 
Q 2216 3928 1850 3928 
Q 1569 3928 1234 3808 
Q 900 3688 519 3450 
L 519 4475 
Q 925 4609 1322 4679 
Q 1719 4750 2100 4750 
Q 2938 4750 3402 4381 
Q 3866 4013 3866 3353 
Q 3866 2972 3669 2642 
Q 3472 2313 2841 1759 
L 1844 884 
z
" transform="scale(0.015625)"/>
       </defs>
       <use xlink:href="#DejaVuSans-Bold-30"/>
       <use xlink:href="#DejaVuSans-Bold-2e" transform="translate(69.580078 0)"/>
       <use xlink:href="#DejaVuSans-Bold-32" transform="translate(107.568359 0)"/>
      </g>
     </g>
    </g>
    <g id="xtick_4">
     <g id="line2d_4">
      <g>
       <use xlink:href="#me2bb918da8" x="168.304545" y="310.078125" style="stroke: #000000; stroke-width: 0.8"/>
      </g>
     </g>
    </g>
    <g id="xtick_5">
     <g id="line2d_5">
      <g>
       <use xlink:href="#me2bb918da8" x="201.817273" y="310.078125" style="stroke: #000000; stroke-width: 0.8"/>
      </g>
     </g>
     <g id="text_3">
      <!-- 0.4 -->
      <g transform="translate(180.560398 335.314375) scale(0.24 -0.24)">
       <defs>
        <path id="DejaVuSans-Bold-34" d="M 2356 3675 
L 1038 1722 
L 2356 1722 
L 2356 3675 
z
M 2156 4666 
L 3494 4666 
L 3494 1722 
L 4159 1722 
L 4159 850 
L 3494 850 
L 3494 0 
L 2356 0 
L 2356 850 
L 288 850 
L 288 1881 
L 2156 4666 
z
" transform="scale(0.015625)"/>
       </defs>
       <use xlink:href="#DejaVuSans-Bold-30"/>
       <use xlink:href="#DejaVuSans-Bold-2e" transform="translate(69.580078 0)"/>
       <use xlink:href="#DejaVuSans-Bold-34" transform="translate(107.568359 0)"/>
      </g>
     </g>
    </g>
    <g id="xtick_6">
     <g id="line2d_6">
      <g>
       <use xlink:href="#me2bb918da8" x="235.33" y="310.078125" style="stroke: #000000; stroke-width: 0.8"/>
      </g>
     </g>
    </g>
   </g>
   <g id="matplotlib.axis_2">
    <g id="ytick_1">
     <g id="line2d_7">
      <defs>
       <path id="mff94367345" d="M 0 0 
L -3.5 0 
" style="stroke: #000000; stroke-width: 0.8"/>
      </defs>
      <g>
       <use xlink:href="#mff94367345" x="51.01" y="310.078125" style="stroke: #000000; stroke-width: 0.8"/>
      </g>
     </g>
     <g id="text_4">
      <!-- −2 -->
      <g transform="translate(7.2 319.19625) scale(0.24 -0.24)">
       <defs>
        <path id="DejaVuSans-Bold-2212" d="M 678 2375 
L 4684 2375 
L 4684 1638 
L 678 1638 
L 678 2375 
z
" transform="scale(0.015625)"/>
       </defs>
       <use xlink:href="#DejaVuSans-Bold-2212"/>
       <use xlink:href="#DejaVuSans-Bold-32" transform="translate(83.789062 0)"/>
      </g>
     </g>
    </g>
    <g id="ytick_2">
     <g id="line2d_8">
      <g>
       <use xlink:href="#mff94367345" x="51.01" y="261.118125" style="stroke: #000000; stroke-width: 0.8"/>
      </g>
     </g>
     <g id="text_5">
      <!-- 0 -->
      <g transform="translate(27.31125 270.23625) scale(0.24 -0.24)">
       <use xlink:href="#DejaVuSans-Bold-30"/>
      </g>
     </g>
    </g>
    <g id="ytick_3">
     <g id="line2d_9">
      <g>
       <use xlink:href="#mff94367345" x="51.01" y="212.158125" style="stroke: #000000; stroke-width: 0.8"/>
      </g>
     </g>
     <g id="text_6">
      <!-- 2 -->
      <g transform="translate(27.31125 221.27625) scale(0.24 -0.24)">
       <use xlink:href="#DejaVuSans-Bold-32"/>
      </g>
     </g>
    </g>
    <g id="ytick_4">
     <g id="line2d_10">
      <g>
       <use xlink:href="#mff94367345" x="51.01" y="163.198125" style="stroke: #000000; stroke-width: 0.8"/>
      </g>
     </g>
     <g id="text_7">
      <!-- 4 -->
      <g transform="translate(27.31125 172.31625) scale(0.24 -0.24)">
       <use xlink:href="#DejaVuSans-Bold-34"/>
      </g>
     </g>
    </g>
    <g id="ytick_5">
     <g id="line2d_11">
      <g>
       <use xlink:href="#mff94367345" x="51.01" y="114.238125" style="stroke: #000000; stroke-width: 0.8"/>
      </g>
     </g>
     <g id="text_8">
      <!-- 6 -->
      <g transform="translate(27.31125 123.35625) scale(0.24 -0.24)">
       <defs>
        <path id="DejaVuSans-Bold-36" d="M 2316 2303 
Q 2000 2303 1842 2098 
Q 1684 1894 1684 1484 
Q 1684 1075 1842 870 
Q 2000 666 2316 666 
Q 2634 666 2792 870 
Q 2950 1075 2950 1484 
Q 2950 1894 2792 2098 
Q 2634 2303 2316 2303 
z
M 3803 4544 
L 3803 3681 
Q 3506 3822 3243 3889 
Q 2981 3956 2731 3956 
Q 2194 3956 1894 3657 
Q 1594 3359 1544 2772 
Q 1750 2925 1990 3001 
Q 2231 3078 2516 3078 
Q 3231 3078 3670 2659 
Q 4109 2241 4109 1563 
Q 4109 813 3618 361 
Q 3128 -91 2303 -91 
Q 1394 -91 895 523 
Q 397 1138 397 2266 
Q 397 3422 980 4083 
Q 1563 4744 2578 4744 
Q 2900 4744 3203 4694 
Q 3506 4644 3803 4544 
z
" transform="scale(0.015625)"/>
       </defs>
       <use xlink:href="#DejaVuSans-Bold-36"/>
      </g>
     </g>
    </g>
    <g id="ytick_6">
     <g id="line2d_12">
      <g>
       <use xlink:href="#mff94367345" x="51.01" y="65.278125" style="stroke: #000000; stroke-width: 0.8"/>
      </g>
     </g>
     <g id="text_9">
      <!-- 8 -->
      <g transform="translate(27.31125 74.39625) scale(0.24 -0.24)">
       <defs>
        <path id="DejaVuSans-Bold-38" d="M 2228 2088 
Q 1891 2088 1709 1903 
Q 1528 1719 1528 1375 
Q 1528 1031 1709 848 
Q 1891 666 2228 666 
Q 2563 666 2741 848 
Q 2919 1031 2919 1375 
Q 2919 1722 2741 1905 
Q 2563 2088 2228 2088 
z
M 1350 2484 
Q 925 2613 709 2878 
Q 494 3144 494 3541 
Q 494 4131 934 4440 
Q 1375 4750 2228 4750 
Q 3075 4750 3515 4442 
Q 3956 4134 3956 3541 
Q 3956 3144 3739 2878 
Q 3522 2613 3097 2484 
Q 3572 2353 3814 2058 
Q 4056 1763 4056 1313 
Q 4056 619 3595 264 
Q 3134 -91 2228 -91 
Q 1319 -91 855 264 
Q 391 619 391 1313 
Q 391 1763 633 2058 
Q 875 2353 1350 2484 
z
M 1631 3419 
Q 1631 3141 1786 2991 
Q 1941 2841 2228 2841 
Q 2509 2841 2662 2991 
Q 2816 3141 2816 3419 
Q 2816 3697 2662 3845 
Q 2509 3994 2228 3994 
Q 1941 3994 1786 3844 
Q 1631 3694 1631 3419 
z
" transform="scale(0.015625)"/>
       </defs>
       <use xlink:href="#DejaVuSans-Bold-38"/>
      </g>
     </g>
    </g>
    <g id="ytick_7">
     <g id="line2d_13">
      <g>
       <use xlink:href="#mff94367345" x="51.01" y="16.318125" style="stroke: #000000; stroke-width: 0.8"/>
      </g>
     </g>
     <g id="text_10">
      <!-- 10 -->
      <g transform="translate(10.6125 25.43625) scale(0.24 -0.24)">
       <defs>
        <path id="DejaVuSans-Bold-31" d="M 750 831 
L 1813 831 
L 1813 3847 
L 722 3622 
L 722 4441 
L 1806 4666 
L 2950 4666 
L 2950 831 
L 4013 831 
L 4013 0 
L 750 0 
L 750 831 
z
" transform="scale(0.015625)"/>
       </defs>
       <use xlink:href="#DejaVuSans-Bold-31"/>
       <use xlink:href="#DejaVuSans-Bold-30" transform="translate(69.580078 0)"/>
      </g>
     </g>
    </g>
   </g>
   <g id="line2d_14">
    <path d="M 64.415091 216.171347 
L 71.117636 216.171347 
" clip-path="url(#p25ba7ccd77)" style="fill: none; stroke: #333333; stroke-linecap: square"/>
   </g>
   <g id="line2d_15">
    <path d="M 67.766364 216.171347 
L 158.250727 216.171347 
" clip-path="url(#p25ba7ccd77)" style="fill: none; stroke-dasharray: 3.7,1.6; stroke-dashoffset: 0; stroke: #000000"/>
   </g>
   <g id="line2d_16">
    <path d="M 158.250727 216.171347 
L 158.250727 203.66058 
" clip-path="url(#p25ba7ccd77)" style="fill: none; stroke-dasharray: 3.7,1.6; stroke-dashoffset: 0; stroke: #000000"/>
   </g>
   <g id="line2d_17">
    <path d="M 154.899455 203.66058 
L 161.602 203.66058 
" clip-path="url(#p25ba7ccd77)" style="fill: none; stroke: #333333; stroke-linecap: square"/>
   </g>
   <g id="line2d_18">
    <path d="M 158.250727 203.66058 
L 248.735091 203.66058 
" clip-path="url(#p25ba7ccd77)" style="fill: none; stroke-dasharray: 3.7,1.6; stroke-dashoffset: 0; stroke: #000000"/>
   </g>
   <g id="line2d_19">
    <path d="M 248.735091 203.66058 
L 248.735091 211.263326 
" clip-path="url(#p25ba7ccd77)" style="fill: none; stroke-dasharray: 3.7,1.6; stroke-dashoffset: 0; stroke: #000000"/>
   </g>
   <g id="line2d_20">
    <path d="M 245.383818 211.263326 
L 252.086364 211.263326 
" clip-path="url(#p25ba7ccd77)" style="fill: none; stroke: #333333; stroke-linecap: square"/>
   </g>
   <g id="line2d_21">
    <path d="M 248.735091 211.263326 
L 339.219455 211.263326 
" clip-path="url(#p25ba7ccd77)" style="fill: none; stroke-dasharray: 3.7,1.6; stroke-dashoffset: 0; stroke: #000000"/>
   </g>
   <g id="line2d_22">
    <path d="M 339.219455 211.263326 
L 339.219455 216.596309 
" clip-path="url(#p25ba7ccd77)" style="fill: none; stroke-dasharray: 3.7,1.6; stroke-dashoffset: 0; stroke: #000000"/>
   </g>
   <g id="line2d_23">
    <path d="M 335.868182 216.596309 
L 342.570727 216.596309 
" clip-path="url(#p25ba7ccd77)" style="fill: none; stroke: #333333; stroke-linecap: square"/>
   </g>
   <g id="line2d_24">
    <path d="M 339.219455 216.596309 
L 429.703818 216.596309 
" clip-path="url(#p25ba7ccd77)" style="fill: none; stroke-dasharray: 3.7,1.6; stroke-dashoffset: 0; stroke: #000000"/>
   </g>
   <g id="line2d_25">
    <path d="M 429.703818 216.596309 
L 429.703818 222.456106 
" clip-path="url(#p25ba7ccd77)" style="fill: none; stroke-dasharray: 3.7,1.6; stroke-dashoffset: 0; stroke: #000000"/>
   </g>
   <g id="line2d_26">
    <path d="M 426.352545 222.456106 
L 433.055091 222.456106 
" clip-path="url(#p25ba7ccd77)" style="fill: none; stroke: #333333; stroke-linecap: square"/>
   </g>
   <g id="line2d_27">
    <path d="M 429.703818 222.456106 
L 440.807375 222.456106 
" clip-path="url(#p25ba7ccd77)" style="fill: none; stroke-dasharray: 3.7,1.6; stroke-dashoffset: 0; stroke: #000000"/>
   </g>
   <g id="line2d_28">
    <path clip-path="url(#p25ba7ccd77)" style="fill: none; stroke-dasharray: 3.7,1.6; stroke-dashoffset: 0; stroke: #000000"/>
   </g>
   <g id="patch_3">
    <path d="M 51.01 310.078125 
L 51.01 16.318125 
" style="fill: none; stroke: #000000; stroke-width: 0.8; stroke-linejoin: miter; stroke-linecap: square"/>
   </g>
   <g id="patch_4">
    <path d="M 51.01 310.078125 
L 252.086364 310.078125 
" style="fill: none; stroke: #000000; stroke-width: 0.8; stroke-linejoin: miter; stroke-linecap: square"/>
   </g>
  </g>
  <g id="axes_2">
   <g id="patch_5">
    <path d="M 256.694364 310.078125 
L 424.258 310.078125 
L 424.258 16.318125 
L 256.694364 16.318125 
z
" style="fill: #ffffff"/>
   </g>
   <g id="FillBetweenPolyCollection_6">
    <defs>
     <path id="md6402f7271" d="M 420.906727 -91.951422 
L 420.906727 -83.980247 
L 417.555455 -98.475532 
L 414.204182 -79.634193 
L 410.852909 -82.576278 
L 407.501636 -79.696044 
L 404.150364 -85.611077 
L 400.799091 -68.108504 
L 397.447818 -77.1802 
L 394.096545 -85.991319 
L 390.745273 -86.628241 
L 387.394 -64.939591 
L 384.042727 -78.316555 
L 380.691455 -89.81172 
L 377.340182 -99.172017 
L 373.988909 -86.537338 
L 370.637636 -102.42952 
L 367.286364 -89.813116 
L 363.935091 -104.89288 
L 360.583818 -104.282336 
L 357.232545 -111.22133 
L 353.881273 -119.079638 
L 350.53 -120.994313 
L 347.178727 -134.555052 
L 343.827455 -140.902345 
L 340.476182 -144.631819 
L 337.124909 -157.510769 
L 333.773636 -151.088594 
L 330.422364 -170.739217 
L 327.071091 -172.764985 
L 323.719818 -180.100547 
L 320.368545 -155.323649 
L 317.017273 -177.249179 
L 313.666 -195.186964 
L 310.314727 -188.107854 
L 306.963455 -198.668288 
L 303.612182 -183.824447 
L 300.260909 -202.920775 
L 296.909636 -217.896056 
L 293.558364 -228.496517 
L 290.207091 -198.963841 
L 286.855818 -248.75994 
L 283.504545 -211.87398 
L 280.153273 -212.024217 
L 276.802 -211.185161 
L 273.450727 -220.308473 
L 270.099455 -226.197437 
L 266.748182 -185.440447 
L 263.396909 -173.306404 
L 260.045636 -171.223454 
L 256.694364 -161.783989 
L 253.343091 -177.963627 
L 249.991818 -186.338991 
L 246.640545 -181.498212 
L 243.289273 -157.591491 
L 239.938 -148.569144 
L 236.586727 -145.830776 
L 233.235455 -150.798089 
L 229.884182 -162.523301 
L 226.532909 -143.142368 
L 223.181636 -154.299431 
L 219.830364 -141.081078 
L 216.479091 -143.37154 
L 213.127818 -139.01387 
L 209.776545 -138.243556 
L 206.425273 -121.868946 
L 203.074 -120.101737 
L 199.722727 -127.893709 
L 196.371455 -122.915915 
L 193.020182 -120.83019 
L 189.668909 -111.649137 
L 186.317636 -107.336883 
L 182.966364 -109.779212 
L 179.615091 -109.92417 
L 176.263818 -100.218343 
L 172.912545 -105.518594 
L 169.561273 -100.217632 
L 166.21 -90.50734 
L 162.858727 -97.447124 
L 159.507455 -82.800822 
L 156.156182 -97.717136 
L 152.804909 -89.115818 
L 149.453636 -95.545952 
L 146.102364 -86.407178 
L 142.751091 -76.446652 
L 139.399818 -87.338759 
L 136.048545 -80.097884 
L 132.697273 -92.460877 
L 129.346 -85.653846 
L 125.994727 -85.295611 
L 122.643455 -83.71262 
L 119.292182 -79.816489 
L 115.940909 -78.384036 
L 112.589636 -77.263351 
L 109.238364 -85.678238 
L 105.887091 -81.176947 
L 102.535818 -85.609007 
L 99.184545 -85.728807 
L 95.833273 -90.894597 
L 92.482 -85.821906 
L 89.130727 -85.90682 
L 89.130727 -93.297411 
L 89.130727 -93.297411 
L 92.482 -93.192815 
L 95.833273 -97.715623 
L 99.184545 -93.302412 
L 102.535818 -93.744221 
L 105.887091 -89.665544 
L 109.238364 -94.780049 
L 112.589636 -87.70139 
L 115.940909 -89.457199 
L 119.292182 -91.640618 
L 122.643455 -93.15116 
L 125.994727 -95.432172 
L 129.346 -98.622954 
L 132.697273 -103.364845 
L 136.048545 -89.660775 
L 139.399818 -97.331247 
L 142.751091 -85.3733 
L 146.102364 -95.103704 
L 149.453636 -104.488291 
L 152.804909 -96.40938 
L 156.156182 -106.163395 
L 159.507455 -90.295096 
L 162.858727 -104.732513 
L 166.21 -97.139067 
L 169.561273 -106.929847 
L 172.912545 -111.947697 
L 176.263818 -105.72016 
L 179.615091 -115.809764 
L 182.966364 -115.772263 
L 186.317636 -113.210777 
L 189.668909 -117.92701 
L 193.020182 -128.541537 
L 196.371455 -131.639958 
L 199.722727 -137.151033 
L 203.074 -129.556576 
L 206.425273 -132.370918 
L 209.776545 -151.992049 
L 213.127818 -151.990454 
L 216.479091 -157.330137 
L 219.830364 -157.505261 
L 223.181636 -171.006955 
L 226.532909 -154.856283 
L 229.884182 -179.055172 
L 233.235455 -162.971467 
L 236.586727 -157.359798 
L 239.938 -160.951122 
L 243.289273 -170.1583 
L 246.640545 -200.736094 
L 249.991818 -206.82439 
L 253.343091 -193.460945 
L 256.694364 -172.661342 
L 260.045636 -183.454423 
L 263.396909 -185.817741 
L 266.748182 -199.711568 
L 270.099455 -259.216115 
L 273.450727 -249.827845 
L 276.802 -237.896177 
L 280.153273 -242.715064 
L 283.504545 -243.419524 
L 286.855818 -333.979381 
L 290.207091 -233.592009 
L 293.558364 -326.386432 
L 296.909636 -287.54266 
L 300.260909 -257.878595 
L 303.612182 -216.647549 
L 306.963455 -258.1205 
L 310.314727 -236.033258 
L 313.666 -239.855989 
L 317.017273 -203.334172 
L 320.368545 -173.019313 
L 323.719818 -208.476348 
L 327.071091 -203.627186 
L 330.422364 -201.466758 
L 333.773636 -167.70137 
L 337.124909 -181.14547 
L 340.476182 -160.892324 
L 343.827455 -154.869842 
L 347.178727 -145.265893 
L 350.53 -129.819151 
L 353.881273 -128.493171 
L 357.232545 -118.970323 
L 360.583818 -114.099709 
L 363.935091 -114.705741 
L 367.286364 -99.309142 
L 370.637636 -114.299359 
L 373.988909 -98.690628 
L 377.340182 -120.340702 
L 380.691455 -106.227013 
L 384.042727 -94.920052 
L 387.394 -86.640405 
L 390.745273 -105.321425 
L 394.096545 -100.568414 
L 397.447818 -96.879632 
L 400.799091 -91.155393 
L 404.150364 -101.789231 
L 407.501636 -90.843231 
L 410.852909 -95.053124 
L 414.204182 -91.788419 
L 417.555455 -112.410117 
L 420.906727 -91.951422 
z
"/>
    </defs>
    <g clip-path="url(#p92d712e92f)">
     <use xlink:href="#md6402f7271" x="0" y="347.505625" style="fill: #333333; fill-opacity: 0.2"/>
    </g>
   </g>
   <g id="matplotlib.axis_3">
    <g id="xtick_7">
     <g id="line2d_29">
      <g>
       <use xlink:href="#me2bb918da8" x="256.694364" y="310.078125" style="stroke: #000000; stroke-width: 0.8"/>
      </g>
     </g>
    </g>
    <g id="xtick_8">
     <g id="line2d_30">
      <g>
       <use xlink:href="#me2bb918da8" x="290.207091" y="310.078125" style="stroke: #000000; stroke-width: 0.8"/>
      </g>
     </g>
     <g id="text_11">
      <!-- -0.4 -->
      <g transform="translate(263.970216 335.314375) scale(0.24 -0.24)">
       <defs>
        <path id="DejaVuSans-Bold-2d" d="M 347 2297 
L 2309 2297 
L 2309 1388 
L 347 1388 
L 347 2297 
z
" transform="scale(0.015625)"/>
       </defs>
       <use xlink:href="#DejaVuSans-Bold-2d"/>
       <use xlink:href="#DejaVuSans-Bold-30" transform="translate(41.503906 0)"/>
       <use xlink:href="#DejaVuSans-Bold-2e" transform="translate(111.083984 0)"/>
       <use xlink:href="#DejaVuSans-Bold-34" transform="translate(149.072266 0)"/>
      </g>
     </g>
    </g>
    <g id="xtick_9">
     <g id="line2d_31">
      <g>
       <use xlink:href="#me2bb918da8" x="323.719818" y="310.078125" style="stroke: #000000; stroke-width: 0.8"/>
      </g>
     </g>
    </g>
    <g id="xtick_10">
     <g id="line2d_32">
      <g>
       <use xlink:href="#me2bb918da8" x="357.232545" y="310.078125" style="stroke: #000000; stroke-width: 0.8"/>
      </g>
     </g>
     <g id="text_12">
      <!-- -0.2 -->
      <g transform="translate(330.99567 335.314375) scale(0.24 -0.24)">
       <use xlink:href="#DejaVuSans-Bold-2d"/>
       <use xlink:href="#DejaVuSans-Bold-30" transform="translate(41.503906 0)"/>
       <use xlink:href="#DejaVuSans-Bold-2e" transform="translate(111.083984 0)"/>
       <use xlink:href="#DejaVuSans-Bold-32" transform="translate(149.072266 0)"/>
      </g>
     </g>
    </g>
    <g id="xtick_11">
     <g id="line2d_33">
      <g>
       <use xlink:href="#me2bb918da8" x="390.745273" y="310.078125" style="stroke: #000000; stroke-width: 0.8"/>
      </g>
     </g>
    </g>
    <g id="xtick_12">
     <g id="line2d_34">
      <g>
       <use xlink:href="#me2bb918da8" x="424.258" y="310.078125" style="stroke: #000000; stroke-width: 0.8"/>
      </g>
     </g>
     <g id="text_13">
      <!-- 0 -->
      <g transform="translate(415.908625 335.314375) scale(0.24 -0.24)">
       <use xlink:href="#DejaVuSans-Bold-30"/>
      </g>
     </g>
    </g>
   </g>
   <g id="matplotlib.axis_4"/>
   <g id="line2d_35">
    <path d="M 420.906727 259.53979 
L 417.555455 242.0628 
L 414.204182 261.794319 
L 410.852909 258.690924 
L 407.501636 262.235988 
L 404.150364 253.805471 
L 400.799091 267.873677 
L 397.447818 260.475709 
L 394.096545 254.225759 
L 390.745273 251.530792 
L 387.394 271.715627 
L 384.042727 260.887321 
L 380.691455 249.486259 
L 377.340182 237.749266 
L 373.988909 254.891642 
L 370.637636 239.141186 
L 367.286364 252.944496 
L 363.935091 237.706314 
L 360.583818 238.314603 
L 357.232545 232.409798 
L 353.881273 223.71922 
L 350.53 222.098893 
L 347.178727 207.595153 
L 343.827455 199.619531 
L 340.476182 194.743554 
L 337.124909 178.177506 
L 333.773636 188.110643 
L 330.422364 161.402637 
L 327.071091 159.309539 
L 323.719818 153.217177 
L 320.368545 183.334144 
L 317.017273 157.21395 
L 313.666 129.984148 
L 310.314727 135.435069 
L 306.963455 119.111231 
L 303.612182 147.269627 
L 300.260909 117.10594 
L 296.909636 94.786267 
L 293.558364 70.064151 
L 290.207091 131.2277 
L 286.855818 56.135965 
L 283.504545 119.858873 
L 280.153273 120.135984 
L 276.802 122.964956 
L 273.450727 112.437466 
L 270.099455 104.798849 
L 266.748182 154.929617 
L 263.396909 167.943553 
L 260.045636 170.166686 
L 256.694364 180.282959 
L 253.343091 161.793339 
L 249.991818 150.923934 
L 246.640545 156.388472 
L 243.289273 183.630729 
L 239.938 192.745492 
L 236.586727 195.910338 
L 233.235455 190.620847 
L 229.884182 176.716388 
L 226.532909 198.5063 
L 223.181636 184.852432 
L 219.830364 198.212456 
L 216.479091 197.154787 
L 213.127818 202.003463 
L 209.776545 202.387823 
L 206.425273 220.385693 
L 203.074 222.676469 
L 199.722727 214.983254 
L 196.371455 220.227689 
L 193.020182 222.819762 
L 189.668909 232.717552 
L 186.317636 237.231795 
L 182.966364 234.729888 
L 179.615091 234.638658 
L 176.263818 244.536374 
L 172.912545 238.772479 
L 169.561273 243.931885 
L 166.21 253.682422 
L 162.858727 246.415807 
L 159.507455 260.957666 
L 156.156182 245.565359 
L 152.804909 254.743026 
L 149.453636 247.488504 
L 146.102364 256.750184 
L 142.751091 266.595649 
L 139.399818 255.170622 
L 136.048545 262.626296 
L 132.697273 249.592764 
L 129.346 255.367225 
L 125.994727 257.141733 
L 122.643455 259.073735 
L 119.292182 261.777071 
L 115.940909 263.585008 
L 112.589636 265.023254 
L 109.238364 257.276481 
L 105.887091 262.084379 
L 102.535818 257.829011 
L 99.184545 257.990015 
L 95.833273 253.200515 
L 92.482 257.998265 
L 89.130727 257.90351 
" clip-path="url(#p92d712e92f)" style="fill: none; stroke: #333333; stroke-linecap: square"/>
   </g>
   <g id="patch_6">
    <path d="M 424.258 310.078125 
L 424.258 16.318125 
" style="fill: none; stroke: #000000; stroke-width: 0.8; stroke-linejoin: miter; stroke-linecap: square"/>
   </g>
   <g id="patch_7">
    <path d="M 256.694364 310.078125 
L 424.258 310.078125 
" style="fill: none; stroke: #000000; stroke-width: 0.8; stroke-linejoin: miter; stroke-linecap: square"/>
   </g>
  </g>
 </g>
 <defs>
  <clipPath id="p25ba7ccd77">
   <rect x="51.01" y="16.318125" width="201.076364" height="293.76"/>
  </clipPath>
  <clipPath id="p92d712e92f">
   <rect x="256.694364" y="16.318125" width="167.563636" height="293.76"/>
  </clipPath>
 </defs>
</svg>
