<?xml version="1.0" encoding="utf-8" standalone="no"?>
<!DOCTYPE svg PUBLIC "-//W3C//DTD SVG 1.1//EN"
  "http://www.w3.org/Graphics/SVG/1.1/DTD/svg11.dtd">
<svg xmlns:xlink="http://www.w3.org/1999/xlink" width="442.745pt" height="347.085125pt" viewBox="0 0 442.745 347.085125" xmlns="http://www.w3.org/2000/svg" version="1.1">
 <metadata>
  <rdf:RDF xmlns:dc="http://purl.org/dc/elements/1.1/" xmlns:cc="http://creativecommons.org/ns#" xmlns:rdf="http://www.w3.org/1999/02/22-rdf-syntax-ns#">
   <cc:Work>
    <dc:type rdf:resource="http://purl.org/dc/dcmitype/StillImage"/>
    <dc:date>2026-03-06T14:41:21.452536</dc:date>
    <dc:format>image/svg+xml</dc:format>
    <dc:creator>
     <cc:Agent>
      <dc:title>Matplotlib v3.10.0, https://matplotlib.org/</dc:title>
     </cc:Agent>
    </dc:creator>
   </cc:Work>
  </rdf:RDF>
 </metadata>
 <defs>
  <style type="text/css">*{stroke-linejoin: round; stroke-linecap: butt}</style>
 </defs>
 <g id="figure_1">
  <g id="patch_1">
   <path d="M 0 347.085125 
L 442.745 347.085125 
L 442.745 -0 
L 0 -0 
z
" style="fill: #ffffff"/>
  </g>
  <g id="axes_1">
   <g id="patch_2">
    <path d="M 78.425 282.430125 
L 435.545 282.430125 
L 435.545 16.318125 
L 78.425 16.318125 
z
" style="fill: #ffffff"/>
   </g>
   <g id="FillBetweenPolyCollection_1">
    <defs>
     <path id="mfce95e1a8a" d="M 78.425 -256.623044 
L 78.425 -210.541354 
L 78.974415 -212.310634 
L 79.523831 -214.22345 
L 80.073246 -219.158916 
L 80.622662 -222.694098 
L 81.172077 -232.015482 
L 81.721492 -238.434865 
L 82.270908 -242.870061 
L 82.820323 -245.126211 
L 83.369738 -247.477075 
L 83.919154 -255.557455 
L 84.468569 -257.614715 
L 85.017985 -261.070518 
L 85.5674 -261.186203 
L 86.116815 -259.241507 
L 86.666231 -256.172502 
L 87.215646 -251.649948 
L 87.765062 -247.367922 
L 88.314477 -242.68457 
L 88.863892 -242.057016 
L 89.413308 -237.609917 
L 89.962723 -234.251383 
L 90.512138 -233.921135 
L 91.061554 -231.359558 
L 91.610969 -229.471191 
L 92.160385 -227.534915 
L 92.7098 -228.494333 
L 93.259215 -229.030779 
L 93.808631 -229.730194 
L 94.358046 -228.980608 
L 94.907462 -228.666664 
L 95.456877 -228.878616 
L 96.006292 -232.727419 
L 96.555708 -234.541167 
L 97.105123 -236.604726 
L 97.654538 -238.066175 
L 98.203954 -242.839758 
L 98.753369 -245.849482 
L 99.302785 -251.120022 
L 99.8522 -256.234401 
L 100.401615 -257.861406 
L 100.951031 -257.676533 
L 101.500446 -258.134139 
L 102.049862 -260.917184 
L 102.599277 -264.398276 
L 103.148692 -264.632148 
L 103.698108 -261.022269 
L 104.247523 -258.357843 
L 104.796938 -260.556001 
L 105.346354 -258.98776 
L 105.895769 -257.246431 
L 106.445185 -259.235025 
L 106.9946 -255.198307 
L 107.544015 -255.686142 
L 108.093431 -256.12363 
L 108.642846 -254.883568 
L 109.192262 -256.126696 
L 109.741677 -257.122174 
L 110.291092 -252.78772 
L 110.840508 -253.049794 
L 111.389923 -253.487754 
L 111.939338 -253.624708 
L 112.488754 -256.492313 
L 113.038169 -256.113388 
L 113.587585 -252.06627 
L 114.137 -247.864896 
L 114.686415 -245.337297 
L 115.235831 -246.135951 
L 115.785246 -245.764322 
L 116.334662 -244.000195 
L 116.884077 -242.794679 
L 117.433492 -239.328311 
L 117.982908 -234.33983 
L 118.532323 -232.283121 
L 119.081738 -226.957792 
L 119.631154 -224.444977 
L 120.180569 -227.374685 
L 120.729985 -232.405886 
L 121.2794 -233.72606 
L 121.828815 -245.085724 
L 122.378231 -248.77089 
L 122.927646 -252.995103 
L 123.477062 -255.626543 
L 124.026477 -258.901199 
L 124.575892 -259.307144 
L 125.125308 -260.052031 
L 125.674723 -263.118352 
L 126.224138 -260.99381 
L 126.773554 -256.946421 
L 127.322969 -252.962651 
L 127.872385 -248.451932 
L 128.4218 -249.775149 
L 128.971215 -246.379539 
L 129.520631 -245.828569 
L 130.070046 -248.524665 
L 130.619462 -247.149678 
L 131.168877 -246.662618 
L 131.718292 -246.107159 
L 132.267708 -244.675199 
L 132.817123 -245.740716 
L 133.366538 -243.448058 
L 133.915954 -244.176192 
L 134.465369 -243.437051 
L 135.014785 -229.699109 
L 135.5642 -227.531639 
L 136.113615 -225.400943 
L 136.663031 -223.216738 
L 137.212446 -217.785567 
L 137.761862 -210.415202 
L 138.311277 -208.724466 
L 138.860692 -204.079045 
L 139.410108 -208.863135 
L 139.959523 -213.810329 
L 140.508938 -215.395529 
L 141.058354 -216.019581 
L 141.607769 -217.668992 
L 142.157185 -213.063287 
L 142.7066 -210.811713 
L 143.256015 -206.795468 
L 143.805431 -206.31983 
L 144.354846 -211.331257 
L 144.904262 -210.341878 
L 145.453677 -211.438541 
L 146.003092 -212.12737 
L 146.552508 -209.169136 
L 147.101923 -206.595272 
L 147.651338 -208.332826 
L 148.200754 -207.449993 
L 148.750169 -209.01426 
L 149.299585 -203.89778 
L 149.849 -206.268509 
L 150.398415 -207.198877 
L 150.947831 -204.720582 
L 151.497246 -205.909398 
L 152.046662 -213.999901 
L 152.596077 -214.570466 
L 153.145492 -212.488031 
L 153.694908 -211.340625 
L 154.244323 -208.616482 
L 154.793738 -201.711277 
L 155.343154 -200.242814 
L 155.892569 -206.80202 
L 156.441985 -203.14886 
L 156.9914 -201.240838 
L 157.540815 -198.585085 
L 158.090231 -192.332256 
L 158.639646 -188.208825 
L 159.189062 -186.564412 
L 159.738477 -185.532833 
L 160.287892 -185.428161 
L 160.837308 -187.469777 
L 161.386723 -188.435253 
L 161.936138 -188.882949 
L 162.485554 -193.846231 
L 163.034969 -192.515257 
L 163.584385 -188.080729 
L 164.1338 -183.170511 
L 164.683215 -179.657686 
L 165.232631 -175.098589 
L 165.782046 -167.84251 
L 166.331462 -167.031894 
L 166.880877 -161.850414 
L 167.430292 -165.193135 
L 167.979708 -165.538403 
L 168.529123 -166.959073 
L 169.078538 -168.598713 
L 169.627954 -168.297493 
L 170.177369 -170.367027 
L 170.726785 -169.220559 
L 171.2762 -170.361416 
L 171.825615 -170.551558 
L 172.375031 -169.016449 
L 172.924446 -169.790106 
L 173.473862 -179.246806 
L 174.023277 -180.1692 
L 174.572692 -178.620762 
L 175.122108 -178.320696 
L 175.671523 -180.735082 
L 176.220938 -181.549968 
L 176.770354 -179.9791 
L 177.319769 -176.651199 
L 177.869185 -174.447992 
L 178.4186 -172.414048 
L 178.968015 -174.306838 
L 179.517431 -174.514192 
L 180.066846 -173.709223 
L 180.616262 -174.36189 
L 181.165677 -175.158532 
L 181.715092 -178.863078 
L 182.264508 -177.720338 
L 182.813923 -175.669607 
L 183.363338 -176.972304 
L 183.912754 -176.237787 
L 184.462169 -175.397124 
L 185.011585 -171.325792 
L 185.561 -167.115152 
L 186.110415 -163.706023 
L 186.659831 -159.396662 
L 187.209246 -155.988002 
L 187.758662 -148.348177 
L 188.308077 -144.430152 
L 188.857492 -141.483533 
L 189.406908 -138.227248 
L 189.956323 -138.948453 
L 190.505738 -134.330489 
L 191.055154 -128.624082 
L 191.604569 -126.491378 
L 192.153985 -122.416113 
L 192.7034 -121.939616 
L 193.252815 -121.476364 
L 193.802231 -123.010403 
L 194.351646 -125.628065 
L 194.901062 -123.614213 
L 195.450477 -121.151447 
L 195.999892 -120.7007 
L 196.549308 -122.620099 
L 197.098723 -121.455418 
L 197.648138 -122.694126 
L 198.197554 -123.220785 
L 198.746969 -121.237774 
L 199.296385 -122.15899 
L 199.8458 -121.844928 
L 200.395215 -119.19673 
L 200.944631 -121.804392 
L 201.494046 -123.091524 
L 202.043462 -128.15235 
L 202.592877 -133.10667 
L 203.142292 -131.889464 
L 203.691708 -132.951407 
L 204.241123 -138.455875 
L 204.790538 -142.74956 
L 205.339954 -148.522849 
L 205.889369 -150.646355 
L 206.438785 -150.713501 
L 206.9882 -154.724658 
L 207.537615 -158.289381 
L 208.087031 -159.251805 
L 208.636446 -162.469872 
L 209.185862 -165.376519 
L 209.735277 -164.611276 
L 210.284692 -165.268825 
L 210.834108 -168.537462 
L 211.383523 -168.314416 
L 211.932938 -168.247081 
L 212.482354 -169.985123 
L 213.031769 -173.557744 
L 213.581185 -177.292657 
L 214.1306 -178.997116 
L 214.680015 -181.025945 
L 215.229431 -184.283023 
L 215.778846 -182.543082 
L 216.328262 -184.521906 
L 216.877677 -185.705531 
L 217.427092 -184.083821 
L 217.976508 -181.760355 
L 218.525923 -179.432034 
L 219.075338 -182.359014 
L 219.624754 -177.978918 
L 220.174169 -173.637679 
L 220.723585 -170.688139 
L 221.273 -166.292017 
L 221.822415 -164.132701 
L 222.371831 -158.568778 
L 222.921246 -152.501626 
L 223.470662 -150.493483 
L 224.020077 -146.969313 
L 224.569492 -144.94466 
L 225.118908 -148.268033 
L 225.668323 -150.579158 
L 226.217738 -149.060284 
L 226.767154 -150.578206 
L 227.316569 -149.935049 
L 227.865985 -151.076492 
L 228.4154 -152.185315 
L 228.964815 -158.202596 
L 229.514231 -161.616961 
L 230.063646 -161.769307 
L 230.613062 -163.764082 
L 231.162477 -165.480256 
L 231.711892 -165.100677 
L 232.261308 -164.024937 
L 232.810723 -162.56252 
L 233.360138 -163.368597 
L 233.909554 -161.720421 
L 234.458969 -163.18448 
L 235.008385 -163.104736 
L 235.5578 -161.106349 
L 236.107215 -158.615196 
L 236.656631 -156.786334 
L 237.206046 -156.584387 
L 237.755462 -157.979365 
L 238.304877 -160.594551 
L 238.854292 -159.137265 
L 239.403708 -159.39768 
L 239.953123 -158.430878 
L 240.502538 -160.44541 
L 241.051954 -162.043288 
L 241.601369 -161.420082 
L 242.150785 -157.404034 
L 242.7002 -154.576605 
L 243.249615 -154.261325 
L 243.799031 -150.854282 
L 244.348446 -151.00165 
L 244.897862 -147.214718 
L 245.447277 -147.221338 
L 245.996692 -148.238677 
L 246.546108 -144.549645 
L 247.095523 -144.674713 
L 247.644938 -143.799125 
L 248.194354 -145.406968 
L 248.743769 -144.23248 
L 249.293185 -143.057748 
L 249.8426 -146.215381 
L 250.392015 -151.949592 
L 250.941431 -157.338853 
L 251.490846 -158.073523 
L 252.040262 -161.216433 
L 252.589677 -161.387673 
L 253.139092 -162.758553 
L 253.688508 -163.145673 
L 254.237923 -163.804147 
L 254.787338 -167.457711 
L 255.336754 -168.08841 
L 255.886169 -168.460954 
L 256.435585 -166.904077 
L 256.985 -166.876853 
L 257.534415 -170.722412 
L 258.083831 -168.251886 
L 258.633246 -164.47709 
L 259.182662 -158.590603 
L 259.732077 -157.735659 
L 260.281492 -154.979876 
L 260.830908 -151.513869 
L 261.380323 -148.593945 
L 261.929738 -146.592096 
L 262.479154 -144.147153 
L 263.028569 -141.205575 
L 263.577985 -141.600523 
L 264.1274 -143.331796 
L 264.676815 -142.996362 
L 265.226231 -138.09524 
L 265.775646 -135.12844 
L 266.325062 -132.489938 
L 266.874477 -131.992262 
L 267.423892 -133.241062 
L 267.973308 -130.514327 
L 268.522723 -129.359258 
L 269.072138 -133.612361 
L 269.621554 -135.487068 
L 270.170969 -140.902884 
L 270.720385 -139.854783 
L 271.2698 -136.289997 
L 271.819215 -136.668701 
L 272.368631 -136.829028 
L 272.918046 -135.697679 
L 273.467462 -135.646562 
L 274.016877 -138.059868 
L 274.566292 -143.859966 
L 275.115708 -144.398352 
L 275.665123 -142.370215 
L 276.214538 -143.163474 
L 276.763954 -146.873254 
L 277.313369 -147.470577 
L 277.862785 -150.60288 
L 278.4122 -156.369898 
L 278.961615 -159.56644 
L 279.511031 -161.702918 
L 280.060446 -165.800973 
L 280.609862 -170.333451 
L 281.159277 -174.136444 
L 281.708692 -177.992954 
L 282.258108 -181.092249 
L 282.807523 -180.940217 
L 283.356938 -181.552501 
L 283.906354 -180.934815 
L 284.455769 -179.789573 
L 285.005185 -181.289956 
L 285.5546 -184.93876 
L 286.104015 -186.416046 
L 286.653431 -193.868354 
L 287.202846 -194.73356 
L 287.752262 -195.373532 
L 288.301677 -192.646504 
L 288.851092 -186.684812 
L 289.400508 -182.115411 
L 289.949923 -170.560187 
L 290.499338 -167.738044 
L 291.048754 -163.306795 
L 291.598169 -158.657672 
L 292.147585 -155.20809 
L 292.697 -150.442958 
L 293.246415 -149.383695 
L 293.795831 -148.469442 
L 294.345246 -151.707968 
L 294.894662 -150.473131 
L 295.444077 -149.486052 
L 295.993492 -149.571293 
L 296.542908 -149.172336 
L 297.092323 -151.444677 
L 297.641738 -151.908849 
L 298.191154 -149.912261 
L 298.740569 -143.624941 
L 299.289985 -136.608935 
L 299.8394 -135.02584 
L 300.388815 -134.500132 
L 300.938231 -136.717001 
L 301.487646 -136.393872 
L 302.037062 -134.741104 
L 302.586477 -134.535691 
L 303.135892 -134.999564 
L 303.685308 -136.964216 
L 304.234723 -145.658276 
L 304.784138 -145.425113 
L 305.333554 -147.346686 
L 305.882969 -147.359498 
L 306.432385 -146.41794 
L 306.9818 -150.541251 
L 307.531215 -150.015671 
L 308.080631 -157.813414 
L 308.630046 -159.048212 
L 309.179462 -152.456221 
L 309.728877 -154.279665 
L 310.278292 -155.249198 
L 310.827708 -154.013982 
L 311.377123 -151.929679 
L 311.926538 -147.954785 
L 312.475954 -147.67514 
L 313.025369 -145.372404 
L 313.574785 -139.868152 
L 314.1242 -145.86848 
L 314.673615 -146.990046 
L 315.223031 -149.736804 
L 315.772446 -151.975916 
L 316.321862 -152.907067 
L 316.871277 -155.329645 
L 317.420692 -158.70845 
L 317.970108 -159.977903 
L 318.519523 -158.247626 
L 319.068938 -154.643786 
L 319.618354 -152.988707 
L 320.167769 -150.073043 
L 320.717185 -146.165911 
L 321.2666 -146.6908 
L 321.816015 -149.837747 
L 322.365431 -148.800183 
L 322.914846 -147.532933 
L 323.464262 -150.476275 
L 324.013677 -147.40764 
L 324.563092 -147.445774 
L 325.112508 -147.703068 
L 325.661923 -145.821368 
L 326.211338 -142.799082 
L 326.760754 -138.549329 
L 327.310169 -136.260864 
L 327.859585 -133.06463 
L 328.409 -128.7687 
L 328.958415 -124.824107 
L 329.507831 -124.300665 
L 330.057246 -123.190991 
L 330.606662 -123.132974 
L 331.156077 -125.710612 
L 331.705492 -125.546477 
L 332.254908 -122.297055 
L 332.804323 -119.118711 
L 333.353738 -116.914312 
L 333.903154 -117.234018 
L 334.452569 -117.681277 
L 335.001985 -119.405772 
L 335.5514 -118.725718 
L 336.100815 -120.014937 
L 336.650231 -120.296049 
L 337.199646 -121.636173 
L 337.749062 -123.891652 
L 338.298477 -127.010115 
L 338.847892 -128.152007 
L 339.397308 -129.459393 
L 339.946723 -127.356417 
L 340.496138 -128.285819 
L 341.045554 -126.758992 
L 341.594969 -127.166 
L 342.144385 -128.229097 
L 342.6938 -129.972043 
L 343.243215 -130.618881 
L 343.792631 -127.697839 
L 344.342046 -126.671221 
L 344.891462 -126.065153 
L 345.440877 -125.779718 
L 345.990292 -125.359422 
L 346.539708 -122.279137 
L 347.089123 -119.604093 
L 347.638538 -119.456424 
L 348.187954 -119.627587 
L 348.737369 -116.935843 
L 349.286785 -116.76072 
L 349.8362 -116.663772 
L 350.385615 -117.049886 
L 350.935031 -117.635996 
L 351.484446 -118.683745 
L 352.033862 -119.999355 
L 352.583277 -122.770737 
L 353.132692 -122.028273 
L 353.682108 -119.615229 
L 354.231523 -117.728815 
L 354.780938 -114.832362 
L 355.330354 -115.771055 
L 355.879769 -114.957043 
L 356.429185 -115.589534 
L 356.9786 -119.526723 
L 357.528015 -121.02898 
L 358.077431 -122.676383 
L 358.626846 -125.303776 
L 359.176262 -128.645552 
L 359.725677 -129.554604 
L 360.275092 -131.44446 
L 360.824508 -131.317743 
L 361.373923 -132.169674 
L 361.923338 -132.967396 
L 362.472754 -132.236757 
L 363.022169 -135.039829 
L 363.571585 -137.980258 
L 364.121 -142.74323 
L 364.670415 -146.199901 
L 365.219831 -148.211509 
L 365.769246 -148.744422 
L 366.318662 -148.647316 
L 366.868077 -150.180885 
L 367.417492 -149.046949 
L 367.966908 -148.832111 
L 368.516323 -146.27746 
L 369.065738 -146.02349 
L 369.615154 -145.769061 
L 370.164569 -145.915241 
L 370.713985 -145.758343 
L 371.2634 -146.587362 
L 371.812815 -147.865225 
L 372.362231 -147.629514 
L 372.911646 -152.49279 
L 373.461062 -153.40411 
L 374.010477 -155.193232 
L 374.559892 -155.198068 
L 375.109308 -155.869144 
L 375.658723 -156.584208 
L 376.208138 -156.653834 
L 376.757554 -154.4888 
L 377.306969 -153.099095 
L 377.856385 -149.782244 
L 378.4058 -148.321466 
L 378.955215 -145.67873 
L 379.504631 -143.761408 
L 380.054046 -141.144094 
L 380.603462 -141.647445 
L 381.152877 -140.399992 
L 381.702292 -138.283808 
L 382.251708 -135.383298 
L 382.801123 -133.940941 
L 383.350538 -134.277267 
L 383.899954 -135.301318 
L 384.449369 -134.841124 
L 384.998785 -135.581554 
L 385.5482 -135.186879 
L 386.097615 -135.884814 
L 386.647031 -138.417601 
L 387.196446 -140.471545 
L 387.745862 -144.795 
L 388.295277 -147.727597 
L 388.844692 -150.334779 
L 389.394108 -153.600149 
L 389.943523 -154.620582 
L 390.492938 -156.239237 
L 391.042354 -154.709131 
L 391.591769 -153.925757 
L 392.141185 -153.01504 
L 392.6906 -153.860309 
L 393.240015 -152.758547 
L 393.789431 -154.435603 
L 394.338846 -156.149709 
L 394.888262 -157.163624 
L 395.437677 -159.850435 
L 395.987092 -162.045157 
L 396.536508 -164.586486 
L 397.085923 -165.819777 
L 397.635338 -166.275295 
L 398.184754 -168.815659 
L 398.734169 -170.632833 
L 399.283585 -173.63681 
L 399.833 -176.441791 
L 400.382415 -179.191958 
L 400.931831 -185.800252 
L 401.481246 -189.744673 
L 402.030662 -196.173274 
L 402.580077 -201.020108 
L 403.129492 -204.377339 
L 403.678908 -206.044587 
L 404.228323 -207.94921 
L 404.777738 -206.532077 
L 405.327154 -200.62511 
L 405.876569 -196.44674 
L 406.425985 -190.391091 
L 406.9754 -188.116536 
L 407.524815 -186.385186 
L 408.074231 -185.420179 
L 408.623646 -174.337778 
L 409.173062 -175.223654 
L 409.722477 -175.722749 
L 410.271892 -175.239779 
L 410.821308 -174.217312 
L 411.370723 -173.291811 
L 411.920138 -173.29257 
L 412.469554 -171.832913 
L 413.018969 -171.603505 
L 413.568385 -170.745434 
L 414.1178 -170.817915 
L 414.667215 -170.949164 
L 415.216631 -170.305439 
L 415.766046 -170.450748 
L 416.315462 -167.752637 
L 416.864877 -166.668534 
L 417.414292 -164.166688 
L 417.963708 -162.467444 
L 418.513123 -160.054123 
L 419.062538 -158.360205 
L 419.611954 -159.031044 
L 420.161369 -153.680181 
L 420.710785 -153.083114 
L 421.2602 -153.270562 
L 421.809615 -153.833048 
L 422.359031 -154.862074 
L 422.908446 -155.245097 
L 423.457862 -154.679606 
L 424.007277 -154.23073 
L 424.556692 -153.310692 
L 425.106108 -152.541597 
L 425.655523 -154.081444 
L 426.204938 -153.036762 
L 426.754354 -150.797161 
L 427.303769 -147.970139 
L 427.853185 -145.364341 
L 428.4026 -142.880343 
L 428.952015 -141.770211 
L 429.501431 -141.494861 
L 430.050846 -142.2216 
L 430.600262 -142.975996 
L 431.149677 -142.846917 
L 431.699092 -141.719868 
L 432.248508 -140.996577 
L 432.797923 -140.296013 
L 433.347338 -138.226461 
L 433.896754 -137.782537 
L 434.446169 -137.419002 
L 434.995585 -136.623311 
L 435.545 -135.5948 
L 435.545 -151.989548 
L 435.545 -151.989548 
L 434.995585 -153.056038 
L 434.446169 -153.949598 
L 433.896754 -154.418697 
L 433.347338 -154.862164 
L 432.797923 -156.637404 
L 432.248508 -157.303463 
L 431.699092 -158.069472 
L 431.149677 -159.113136 
L 430.600262 -159.371446 
L 430.050846 -158.86129 
L 429.501431 -158.212454 
L 428.952015 -158.487551 
L 428.4026 -159.626197 
L 427.853185 -161.960519 
L 427.303769 -164.297131 
L 426.754354 -166.892475 
L 426.204938 -168.976961 
L 425.655523 -169.968955 
L 425.106108 -168.821494 
L 424.556692 -169.797718 
L 424.007277 -170.907341 
L 423.457862 -171.643922 
L 422.908446 -172.575549 
L 422.359031 -172.409544 
L 421.809615 -171.58559 
L 421.2602 -171.304671 
L 420.710785 -171.419461 
L 420.161369 -172.285382 
L 419.611954 -177.323922 
L 419.062538 -176.722124 
L 418.513123 -178.629361 
L 417.963708 -181.221171 
L 417.414292 -183.058116 
L 416.864877 -185.673052 
L 416.315462 -186.977517 
L 415.766046 -189.899158 
L 415.216631 -190.076809 
L 414.667215 -191.088365 
L 414.1178 -191.39345 
L 413.568385 -191.603636 
L 413.018969 -192.717164 
L 412.469554 -193.303472 
L 411.920138 -194.956764 
L 411.370723 -195.369737 
L 410.821308 -196.720848 
L 410.271892 -198.159566 
L 409.722477 -199.043053 
L 409.173062 -199.008541 
L 408.623646 -198.545271 
L 408.074231 -209.046867 
L 407.524815 -210.285045 
L 406.9754 -212.195647 
L 406.425985 -214.65164 
L 405.876569 -220.760116 
L 405.327154 -225.127708 
L 404.777738 -230.987847 
L 404.228323 -232.710337 
L 403.678908 -231.319476 
L 403.129492 -230.170226 
L 402.580077 -227.268869 
L 402.030662 -223.087058 
L 401.481246 -217.091149 
L 400.931831 -213.543037 
L 400.382415 -207.466241 
L 399.833 -205.042629 
L 399.283585 -202.593948 
L 398.734169 -199.874526 
L 398.184754 -198.240898 
L 397.635338 -195.916181 
L 397.085923 -195.766227 
L 396.536508 -194.764969 
L 395.987092 -192.451087 
L 395.437677 -190.484978 
L 394.888262 -188.012392 
L 394.338846 -187.352589 
L 393.789431 -185.722505 
L 393.240015 -184.149274 
L 392.6906 -185.317277 
L 392.141185 -184.508543 
L 391.591769 -185.447478 
L 391.042354 -186.155123 
L 390.492938 -187.541542 
L 389.943523 -185.746339 
L 389.394108 -184.617866 
L 388.844692 -181.170804 
L 388.295277 -178.420303 
L 387.745862 -175.308437 
L 387.196446 -171.093241 
L 386.647031 -168.978751 
L 386.097615 -166.306375 
L 385.5482 -165.421401 
L 384.998785 -165.63055 
L 384.449369 -164.668978 
L 383.899954 -165.127458 
L 383.350538 -163.939603 
L 382.801123 -163.428349 
L 382.251708 -164.72512 
L 381.702292 -167.379925 
L 381.152877 -169.304436 
L 380.603462 -170.422832 
L 380.054046 -169.924045 
L 379.504631 -172.484774 
L 378.955215 -174.358509 
L 378.4058 -177.071719 
L 377.856385 -178.67244 
L 377.306969 -182.029412 
L 376.757554 -183.564734 
L 376.208138 -185.780116 
L 375.658723 -185.740663 
L 375.109308 -185.082346 
L 374.559892 -184.429062 
L 374.010477 -184.457575 
L 373.461062 -182.701575 
L 372.911646 -181.848369 
L 372.362231 -176.932843 
L 371.812815 -177.394782 
L 371.2634 -176.268475 
L 370.713985 -175.717656 
L 370.164569 -175.962744 
L 369.615154 -175.95118 
L 369.065738 -176.2502 
L 368.516323 -176.629419 
L 367.966908 -179.273221 
L 367.417492 -179.624405 
L 366.868077 -181.05442 
L 366.318662 -179.734044 
L 365.769246 -179.935886 
L 365.219831 -179.45269 
L 364.670415 -177.44688 
L 364.121 -174.027612 
L 363.571585 -169.336536 
L 363.022169 -166.262591 
L 362.472754 -163.404944 
L 361.923338 -164.005079 
L 361.373923 -163.152544 
L 360.824508 -162.284441 
L 360.275092 -162.464257 
L 359.725677 -160.612965 
L 359.176262 -159.713982 
L 358.626846 -156.519039 
L 358.077431 -153.974771 
L 357.528015 -152.389279 
L 356.9786 -150.995835 
L 356.429185 -146.952747 
L 355.879769 -146.333819 
L 355.330354 -147.136929 
L 354.780938 -146.120516 
L 354.231523 -148.985748 
L 353.682108 -150.789111 
L 353.132692 -153.177996 
L 352.583277 -153.829889 
L 352.033862 -150.959661 
L 351.484446 -149.587167 
L 350.935031 -148.407758 
L 350.385615 -147.912193 
L 349.8362 -147.599543 
L 349.286785 -147.864338 
L 348.737369 -148.10582 
L 348.187954 -150.864749 
L 347.638538 -150.729053 
L 347.089123 -150.887956 
L 346.539708 -153.64446 
L 345.990292 -156.862824 
L 345.440877 -157.445255 
L 344.891462 -157.799474 
L 344.342046 -158.485167 
L 343.792631 -159.622314 
L 343.243215 -162.638487 
L 342.6938 -161.922195 
L 342.144385 -160.137101 
L 341.594969 -159.01894 
L 341.045554 -158.433721 
L 340.496138 -159.939749 
L 339.946723 -159.056847 
L 339.397308 -161.226622 
L 338.847892 -160.0974 
L 338.298477 -159.008306 
L 337.749062 -155.870321 
L 337.199646 -153.667151 
L 336.650231 -152.36972 
L 336.100815 -152.214572 
L 335.5514 -150.949362 
L 335.001985 -151.47487 
L 334.452569 -149.674048 
L 333.903154 -149.363594 
L 333.353738 -149.072765 
L 332.804323 -151.323888 
L 332.254908 -154.644466 
L 331.705492 -157.994558 
L 331.156077 -158.366008 
L 330.606662 -155.974993 
L 330.057246 -156.135684 
L 329.507831 -157.354219 
L 328.958415 -157.832295 
L 328.409 -161.909059 
L 327.859585 -166.349759 
L 327.310169 -169.540008 
L 326.760754 -171.641645 
L 326.211338 -175.925687 
L 325.661923 -179.057889 
L 325.112508 -181.002494 
L 324.563092 -181.223517 
L 324.013677 -180.919636 
L 323.464262 -183.864603 
L 322.914846 -180.676648 
L 322.365431 -181.853923 
L 321.816015 -182.834754 
L 321.2666 -180.081497 
L 320.717185 -179.609657 
L 320.167769 -183.534755 
L 319.618354 -186.087468 
L 319.068938 -188.058538 
L 318.519523 -191.497423 
L 317.970108 -193.321727 
L 317.420692 -192.123039 
L 316.871277 -188.952499 
L 316.321862 -186.566933 
L 315.772446 -185.622536 
L 315.223031 -183.476663 
L 314.673615 -180.720768 
L 314.1242 -179.782218 
L 313.574785 -173.739438 
L 313.025369 -179.667871 
L 312.475954 -181.994847 
L 311.926538 -182.376263 
L 311.377123 -186.583852 
L 310.827708 -188.732588 
L 310.278292 -189.891876 
L 309.728877 -188.941721 
L 309.179462 -187.155142 
L 308.630046 -193.251317 
L 308.080631 -192.274307 
L 307.531215 -184.109742 
L 306.9818 -184.887849 
L 306.432385 -181.085079 
L 305.882969 -181.487896 
L 305.333554 -181.559591 
L 304.784138 -179.809761 
L 304.234723 -180.151731 
L 303.685308 -172.081198 
L 303.135892 -170.122356 
L 302.586477 -169.684402 
L 302.037062 -169.860853 
L 301.487646 -171.580542 
L 300.938231 -172.04428 
L 300.388815 -169.951609 
L 299.8394 -170.496943 
L 299.289985 -172.163583 
L 298.740569 -179.269138 
L 298.191154 -185.596741 
L 297.641738 -187.731972 
L 297.092323 -187.418948 
L 296.542908 -185.12205 
L 295.993492 -185.536039 
L 295.444077 -185.463247 
L 294.894662 -186.417758 
L 294.345246 -187.513625 
L 293.795831 -183.943866 
L 293.246415 -185.032996 
L 292.697 -186.26233 
L 292.147585 -190.901666 
L 291.598169 -194.325568 
L 291.048754 -199.039346 
L 290.499338 -203.67404 
L 289.949923 -206.531503 
L 289.400508 -218.602937 
L 288.851092 -223.11401 
L 288.301677 -229.05239 
L 287.752262 -231.564883 
L 287.202846 -230.838342 
L 286.653431 -229.961841 
L 286.104015 -222.58247 
L 285.5546 -221.319281 
L 285.005185 -217.797176 
L 284.455769 -216.254871 
L 283.906354 -217.536971 
L 283.356938 -218.172908 
L 282.807523 -217.498832 
L 282.258108 -217.002994 
L 281.708692 -214.461732 
L 281.159277 -210.582567 
L 280.609862 -206.594088 
L 280.060446 -202.011455 
L 279.511031 -198.051963 
L 278.961615 -196.102558 
L 278.4122 -193.009005 
L 277.862785 -187.101877 
L 277.313369 -184.083349 
L 276.763954 -183.676157 
L 276.214538 -180.235889 
L 275.665123 -179.633886 
L 275.115708 -181.787546 
L 274.566292 -180.953821 
L 274.016877 -175.007777 
L 273.467462 -172.213016 
L 272.918046 -172.504074 
L 272.368631 -173.849013 
L 271.819215 -173.751544 
L 271.2698 -173.405153 
L 270.720385 -176.962598 
L 270.170969 -178.127649 
L 269.621554 -173.621116 
L 269.072138 -171.725192 
L 268.522723 -167.204914 
L 267.973308 -168.263368 
L 267.423892 -170.899374 
L 266.874477 -169.698139 
L 266.325062 -170.247142 
L 265.775646 -172.814461 
L 265.226231 -176.078159 
L 264.676815 -181.262085 
L 264.1274 -181.682332 
L 263.577985 -179.877102 
L 263.028569 -179.411652 
L 262.479154 -182.38685 
L 261.929738 -184.890089 
L 261.380323 -186.872859 
L 260.830908 -189.792181 
L 260.281492 -193.17359 
L 259.732077 -195.792844 
L 259.182662 -196.577329 
L 258.633246 -202.376326 
L 258.083831 -206.366004 
L 257.534415 -209.264687 
L 256.985 -205.3843 
L 256.435585 -205.565854 
L 255.886169 -207.340868 
L 255.336754 -207.081088 
L 254.787338 -206.584712 
L 254.237923 -203.114545 
L 253.688508 -202.53613 
L 253.139092 -202.186349 
L 252.589677 -201.035869 
L 252.040262 -200.850022 
L 251.490846 -197.810513 
L 250.941431 -197.079781 
L 250.392015 -191.60397 
L 249.8426 -185.738 
L 249.293185 -182.351423 
L 248.743769 -183.459445 
L 248.194354 -184.498368 
L 247.644938 -182.827003 
L 247.095523 -183.80997 
L 246.546108 -183.582636 
L 245.996692 -187.507871 
L 245.447277 -186.4858 
L 244.897862 -186.389206 
L 244.348446 -190.26342 
L 243.799031 -190.165004 
L 243.249615 -193.625927 
L 242.7002 -193.922062 
L 242.150785 -196.870625 
L 241.601369 -200.940144 
L 241.051954 -201.592752 
L 240.502538 -200.028829 
L 239.953123 -198.164243 
L 239.403708 -198.840216 
L 238.854292 -198.541613 
L 238.304877 -199.980374 
L 237.755462 -197.28515 
L 237.206046 -195.702713 
L 236.656631 -195.915137 
L 236.107215 -197.867461 
L 235.5578 -200.455362 
L 235.008385 -202.515555 
L 234.458969 -202.708371 
L 233.909554 -201.365664 
L 233.360138 -203.025001 
L 232.810723 -202.004907 
L 232.261308 -203.36841 
L 231.711892 -204.436461 
L 231.162477 -204.710994 
L 230.613062 -203.178222 
L 230.063646 -201.184953 
L 229.514231 -201.022956 
L 228.964815 -197.761226 
L 228.4154 -192.135796 
L 227.865985 -190.997663 
L 227.316569 -189.886657 
L 226.767154 -190.585396 
L 226.217738 -189.117219 
L 225.668323 -190.726937 
L 225.118908 -188.48976 
L 224.569492 -185.136796 
L 224.020077 -186.973313 
L 223.470662 -190.291255 
L 222.921246 -192.015516 
L 222.371831 -197.771455 
L 221.822415 -202.769272 
L 221.273 -204.634788 
L 220.723585 -208.833323 
L 220.174169 -211.697182 
L 219.624754 -215.988341 
L 219.075338 -220.445315 
L 218.525923 -217.710029 
L 217.976508 -220.513606 
L 217.427092 -222.762016 
L 216.877677 -224.318124 
L 216.328262 -223.310413 
L 215.778846 -221.716795 
L 215.229431 -223.451246 
L 214.680015 -220.285862 
L 214.1306 -218.222432 
L 213.581185 -216.507377 
L 213.031769 -212.783649 
L 212.482354 -209.297158 
L 211.932938 -207.624543 
L 211.383523 -207.655361 
L 210.834108 -208.047428 
L 210.284692 -204.31688 
L 209.735277 -203.407655 
L 209.185862 -204.040191 
L 208.636446 -201.381897 
L 208.087031 -198.232353 
L 207.537615 -197.548535 
L 206.9882 -194.130423 
L 206.438785 -190.075331 
L 205.889369 -190.130067 
L 205.339954 -188.105642 
L 204.790538 -182.526461 
L 204.241123 -178.317768 
L 203.691708 -172.667772 
L 203.142292 -171.259365 
L 202.592877 -172.32788 
L 202.043462 -167.256021 
L 201.494046 -162.1018 
L 200.944631 -160.74105 
L 200.395215 -157.773094 
L 199.8458 -160.169413 
L 199.296385 -160.791575 
L 198.746969 -159.8255 
L 198.197554 -161.976656 
L 197.648138 -161.594828 
L 197.098723 -160.607376 
L 196.549308 -161.887767 
L 195.999892 -160.141025 
L 195.450477 -160.73643 
L 194.901062 -163.686252 
L 194.351646 -166.000244 
L 193.802231 -163.844226 
L 193.252815 -162.639317 
L 192.7034 -162.965852 
L 192.153985 -163.492825 
L 191.604569 -167.536001 
L 191.055154 -169.652399 
L 190.505738 -175.269355 
L 189.956323 -179.642017 
L 189.406908 -178.825434 
L 188.857492 -181.730439 
L 188.308077 -184.302699 
L 187.758662 -187.986792 
L 187.209246 -195.483299 
L 186.659831 -198.618963 
L 186.110415 -202.703819 
L 185.561 -206.073747 
L 185.011585 -210.281636 
L 184.462169 -214.437228 
L 183.912754 -215.573679 
L 183.363338 -216.595773 
L 182.813923 -215.438733 
L 182.264508 -217.596386 
L 181.715092 -218.803209 
L 181.165677 -215.186552 
L 180.616262 -214.641994 
L 180.066846 -213.888139 
L 179.517431 -214.54589 
L 178.968015 -214.629839 
L 178.4186 -212.28614 
L 177.869185 -214.232778 
L 177.319769 -216.29342 
L 176.770354 -219.252361 
L 176.220938 -220.414441 
L 175.671523 -218.908685 
L 175.122108 -216.479641 
L 174.572692 -216.537318 
L 174.023277 -217.981343 
L 173.473862 -216.990913 
L 172.924446 -208.117709 
L 172.375031 -207.619152 
L 171.825615 -209.387432 
L 171.2762 -208.934984 
L 170.726785 -207.87687 
L 170.177369 -209.216048 
L 169.627954 -207.211949 
L 169.078538 -207.024376 
L 168.529123 -205.509179 
L 167.979708 -204.147847 
L 167.430292 -203.852919 
L 166.880877 -200.724815 
L 166.331462 -206.176309 
L 165.782046 -207.233819 
L 165.232631 -215.07687 
L 164.683215 -219.534909 
L 164.1338 -222.684732 
L 163.584385 -227.85949 
L 163.034969 -232.528214 
L 162.485554 -233.951527 
L 161.936138 -228.971138 
L 161.386723 -228.724984 
L 160.837308 -227.816464 
L 160.287892 -225.802995 
L 159.738477 -225.848813 
L 159.189062 -226.987214 
L 158.639646 -228.802446 
L 158.090231 -233.292049 
L 157.540815 -239.86566 
L 156.9914 -242.832354 
L 156.441985 -244.990348 
L 155.892569 -248.690431 
L 155.343154 -242.600012 
L 154.793738 -243.768485 
L 154.244323 -250.539772 
L 153.694908 -253.025304 
L 153.145492 -253.897556 
L 152.596077 -255.656822 
L 152.046662 -254.789431 
L 151.497246 -246.834083 
L 150.947831 -245.522853 
L 150.398415 -247.661406 
L 149.849 -246.496908 
L 149.299585 -243.833344 
L 148.750169 -248.679063 
L 148.200754 -246.794216 
L 147.651338 -247.472537 
L 147.101923 -245.502247 
L 146.552508 -247.996676 
L 146.003092 -251.003621 
L 145.453677 -250.317507 
L 144.904262 -249.26216 
L 144.354846 -250.335659 
L 143.805431 -245.346904 
L 143.256015 -246.098938 
L 142.7066 -250.442096 
L 142.157185 -252.865084 
L 141.607769 -257.362235 
L 141.058354 -255.884813 
L 140.508938 -255.092846 
L 139.959523 -253.149713 
L 139.410108 -247.664541 
L 138.860692 -242.455104 
L 138.311277 -247.107355 
L 137.761862 -248.372599 
L 137.212446 -256.322039 
L 136.663031 -262.552416 
L 136.113615 -265.141565 
L 135.5642 -267.688016 
L 135.014785 -270.080031 
L 134.465369 -285.279222 
L 133.915954 -286.305289 
L 133.366538 -286.083643 
L 132.817123 -288.596684 
L 132.267708 -287.957999 
L 131.718292 -289.420958 
L 131.168877 -290.190633 
L 130.619462 -290.759888 
L 130.070046 -292.293776 
L 129.520631 -289.573356 
L 128.971215 -290.129006 
L 128.4218 -293.437483 
L 127.872385 -291.98389 
L 127.322969 -296.139155 
L 126.773554 -299.734614 
L 126.224138 -303.541116 
L 125.674723 -306.201657 
L 125.125308 -302.96149 
L 124.575892 -302.091939 
L 124.026477 -301.909437 
L 123.477062 -298.605315 
L 122.927646 -296.254417 
L 122.378231 -292.130346 
L 121.828815 -288.655914 
L 121.2794 -277.993569 
L 120.729985 -276.799507 
L 120.180569 -271.6817 
L 119.631154 -268.843872 
L 119.081738 -271.568461 
L 118.532323 -276.860905 
L 117.982908 -279.115418 
L 117.433492 -284.001424 
L 116.884077 -287.772675 
L 116.334662 -289.191944 
L 115.785246 -291.053083 
L 115.235831 -291.474575 
L 114.686415 -290.710043 
L 114.137 -293.331012 
L 113.587585 -297.547838 
L 113.038169 -301.793104 
L 112.488754 -302.363466 
L 111.939338 -299.607386 
L 111.389923 -299.689963 
L 110.840508 -299.481208 
L 110.291092 -299.085502 
L 109.741677 -304.641571 
L 109.192262 -303.914252 
L 108.642846 -302.749954 
L 108.093431 -304.095084 
L 107.544015 -303.852423 
L 106.9946 -303.354273 
L 106.445185 -307.384174 
L 105.895769 -305.296217 
L 105.346354 -306.842826 
L 104.796938 -308.131067 
L 104.247523 -305.658758 
L 103.698108 -308.208835 
L 103.148692 -311.766276 
L 102.599277 -311.388502 
L 102.049862 -307.816201 
L 101.500446 -304.965979 
L 100.951031 -304.41945 
L 100.401615 -304.491356 
L 99.8522 -302.684026 
L 99.302785 -297.60723 
L 98.753369 -292.437148 
L 98.203954 -289.488208 
L 97.654538 -284.841207 
L 97.105123 -283.526784 
L 96.555708 -281.895209 
L 96.006292 -280.464757 
L 95.456877 -276.687292 
L 94.907462 -276.801904 
L 94.358046 -277.284586 
L 93.808631 -278.234199 
L 93.259215 -277.541982 
L 92.7098 -276.951148 
L 92.160385 -276.059635 
L 91.610969 -278.228839 
L 91.061554 -280.374315 
L 90.512138 -283.022777 
L 89.962723 -283.224628 
L 89.413308 -286.495772 
L 88.863892 -290.671382 
L 88.314477 -290.764112 
L 87.765062 -294.922936 
L 87.215646 -298.556331 
L 86.666231 -302.447774 
L 86.116815 -304.440693 
L 85.5674 -305.877816 
L 85.017985 -305.468817 
L 84.468569 -301.783176 
L 83.919154 -299.587674 
L 83.369738 -291.910767 
L 82.820323 -289.607773 
L 82.270908 -287.90977 
L 81.721492 -283.895228 
L 81.172077 -277.592281 
L 80.622662 -268.349858 
L 80.073246 -265.141024 
L 79.523831 -260.28783 
L 78.974415 -258.400672 
L 78.425 -256.623044 
z
"/>
    </defs>
    <g clip-path="url(#p7c96e7ca89)">
     <use xlink:href="#mfce95e1a8a" x="0" y="347.085125" style="fill-opacity: 0.3"/>
    </g>
   </g>
   <g id="matplotlib.axis_1">
    <g id="xtick_1">
     <g id="line2d_1">
      <defs>
       <path id="m0b5e3a4696" d="M 0 0 
L 0 3.5 
" style="stroke: #000000; stroke-width: 0.8"/>
      </defs>
      <g>
       <use xlink:href="#m0b5e3a4696" x="133.366538" y="282.430125" style="stroke: #000000; stroke-width: 0.8"/>
      </g>
     </g>
     <g id="text_1">
      <!-- −400 -->
      <g transform="translate(98.262788 307.666375) scale(0.24 -0.24)">
       <defs>
        <path id="DejaVuSans-Bold-2212" d="M 678 2375 
L 4684 2375 
L 4684 1638 
L 678 1638 
L 678 2375 
z
" transform="scale(0.015625)"/>
        <path id="DejaVuSans-Bold-34" d="M 2356 3675 
L 1038 1722 
L 2356 1722 
L 2356 3675 
z
M 2156 4666 
L 3494 4666 
L 3494 1722 
L 4159 1722 
L 4159 850 
L 3494 850 
L 3494 0 
L 2356 0 
L 2356 850 
L 288 850 
L 288 1881 
L 2156 4666 
z
" transform="scale(0.015625)"/>
        <path id="DejaVuSans-Bold-30" d="M 2944 2338 
Q 2944 3213 2780 3570 
Q 2616 3928 2228 3928 
Q 1841 3928 1675 3570 
Q 1509 3213 1509 2338 
Q 1509 1453 1675 1090 
Q 1841 728 2228 728 
Q 2613 728 2778 1090 
Q 2944 1453 2944 2338 
z
M 4147 2328 
Q 4147 1169 3647 539 
Q 3147 -91 2228 -91 
Q 1306 -91 806 539 
Q 306 1169 306 2328 
Q 306 3491 806 4120 
Q 1306 4750 2228 4750 
Q 3147 4750 3647 4120 
Q 4147 3491 4147 2328 
z
" transform="scale(0.015625)"/>
       </defs>
       <use xlink:href="#DejaVuSans-Bold-2212"/>
       <use xlink:href="#DejaVuSans-Bold-34" transform="translate(83.789062 0)"/>
       <use xlink:href="#DejaVuSans-Bold-30" transform="translate(153.369141 0)"/>
       <use xlink:href="#DejaVuSans-Bold-30" transform="translate(222.949219 0)"/>
      </g>
     </g>
    </g>
    <g id="xtick_2">
     <g id="line2d_2">
      <g>
       <use xlink:href="#m0b5e3a4696" x="243.249615" y="282.430125" style="stroke: #000000; stroke-width: 0.8"/>
      </g>
     </g>
     <g id="text_2">
      <!-- −200 -->
      <g transform="translate(208.145865 307.666375) scale(0.24 -0.24)">
       <defs>
        <path id="DejaVuSans-Bold-32" d="M 1844 884 
L 3897 884 
L 3897 0 
L 506 0 
L 506 884 
L 2209 2388 
Q 2438 2594 2547 2791 
Q 2656 2988 2656 3200 
Q 2656 3528 2436 3728 
Q 2216 3928 1850 3928 
Q 1569 3928 1234 3808 
Q 900 3688 519 3450 
L 519 4475 
Q 925 4609 1322 4679 
Q 1719 4750 2100 4750 
Q 2938 4750 3402 4381 
Q 3866 4013 3866 3353 
Q 3866 2972 3669 2642 
Q 3472 2313 2841 1759 
L 1844 884 
z
" transform="scale(0.015625)"/>
       </defs>
       <use xlink:href="#DejaVuSans-Bold-2212"/>
       <use xlink:href="#DejaVuSans-Bold-32" transform="translate(83.789062 0)"/>
       <use xlink:href="#DejaVuSans-Bold-30" transform="translate(153.369141 0)"/>
       <use xlink:href="#DejaVuSans-Bold-30" transform="translate(222.949219 0)"/>
      </g>
     </g>
    </g>
    <g id="xtick_3">
     <g id="line2d_3">
      <g>
       <use xlink:href="#m0b5e3a4696" x="353.132692" y="282.430125" style="stroke: #000000; stroke-width: 0.8"/>
      </g>
     </g>
     <g id="text_3">
      <!-- 0 -->
      <g transform="translate(344.783317 307.666375) scale(0.24 -0.24)">
       <use xlink:href="#DejaVuSans-Bold-30"/>
      </g>
     </g>
    </g>
    <g id="text_4">
     <!-- Time from saccade (ms) -->
     <g transform="translate(94.713125 334.893875) scale(0.24 -0.24)">
      <defs>
       <path id="DejaVuSans-Bold-54" d="M 31 4666 
L 4331 4666 
L 4331 3756 
L 2784 3756 
L 2784 0 
L 1581 0 
L 1581 3756 
L 31 3756 
L 31 4666 
z
" transform="scale(0.015625)"/>
       <path id="DejaVuSans-Bold-69" d="M 538 3500 
L 1656 3500 
L 1656 0 
L 538 0 
L 538 3500 
z
M 538 4863 
L 1656 4863 
L 1656 3950 
L 538 3950 
L 538 4863 
z
" transform="scale(0.015625)"/>
       <path id="DejaVuSans-Bold-6d" d="M 3781 2919 
Q 3994 3244 4286 3414 
Q 4578 3584 4928 3584 
Q 5531 3584 5847 3212 
Q 6163 2841 6163 2131 
L 6163 0 
L 5038 0 
L 5038 1825 
Q 5041 1866 5042 1909 
Q 5044 1953 5044 2034 
Q 5044 2406 4934 2573 
Q 4825 2741 4581 2741 
Q 4263 2741 4089 2478 
Q 3916 2216 3909 1719 
L 3909 0 
L 2784 0 
L 2784 1825 
Q 2784 2406 2684 2573 
Q 2584 2741 2328 2741 
Q 2006 2741 1831 2477 
Q 1656 2213 1656 1722 
L 1656 0 
L 531 0 
L 531 3500 
L 1656 3500 
L 1656 2988 
Q 1863 3284 2130 3434 
Q 2397 3584 2719 3584 
Q 3081 3584 3359 3409 
Q 3638 3234 3781 2919 
z
" transform="scale(0.015625)"/>
       <path id="DejaVuSans-Bold-65" d="M 4031 1759 
L 4031 1441 
L 1416 1441 
Q 1456 1047 1700 850 
Q 1944 653 2381 653 
Q 2734 653 3104 758 
Q 3475 863 3866 1075 
L 3866 213 
Q 3469 63 3072 -14 
Q 2675 -91 2278 -91 
Q 1328 -91 801 392 
Q 275 875 275 1747 
Q 275 2603 792 3093 
Q 1309 3584 2216 3584 
Q 3041 3584 3536 3087 
Q 4031 2591 4031 1759 
z
M 2881 2131 
Q 2881 2450 2695 2645 
Q 2509 2841 2209 2841 
Q 1884 2841 1681 2658 
Q 1478 2475 1428 2131 
L 2881 2131 
z
" transform="scale(0.015625)"/>
       <path id="DejaVuSans-Bold-20" transform="scale(0.015625)"/>
       <path id="DejaVuSans-Bold-66" d="M 2841 4863 
L 2841 4128 
L 2222 4128 
Q 1984 4128 1890 4042 
Q 1797 3956 1797 3744 
L 1797 3500 
L 2753 3500 
L 2753 2700 
L 1797 2700 
L 1797 0 
L 678 0 
L 678 2700 
L 122 2700 
L 122 3500 
L 678 3500 
L 678 3744 
Q 678 4316 997 4589 
Q 1316 4863 1984 4863 
L 2841 4863 
z
" transform="scale(0.015625)"/>
       <path id="DejaVuSans-Bold-72" d="M 3138 2547 
Q 2991 2616 2845 2648 
Q 2700 2681 2553 2681 
Q 2122 2681 1889 2404 
Q 1656 2128 1656 1613 
L 1656 0 
L 538 0 
L 538 3500 
L 1656 3500 
L 1656 2925 
Q 1872 3269 2151 3426 
Q 2431 3584 2822 3584 
Q 2878 3584 2943 3579 
Q 3009 3575 3134 3559 
L 3138 2547 
z
" transform="scale(0.015625)"/>
       <path id="DejaVuSans-Bold-6f" d="M 2203 2784 
Q 1831 2784 1636 2517 
Q 1441 2250 1441 1747 
Q 1441 1244 1636 976 
Q 1831 709 2203 709 
Q 2569 709 2762 976 
Q 2956 1244 2956 1747 
Q 2956 2250 2762 2517 
Q 2569 2784 2203 2784 
z
M 2203 3584 
Q 3106 3584 3614 3096 
Q 4122 2609 4122 1747 
Q 4122 884 3614 396 
Q 3106 -91 2203 -91 
Q 1297 -91 786 396 
Q 275 884 275 1747 
Q 275 2609 786 3096 
Q 1297 3584 2203 3584 
z
" transform="scale(0.015625)"/>
       <path id="DejaVuSans-Bold-73" d="M 3272 3391 
L 3272 2541 
Q 2913 2691 2578 2766 
Q 2244 2841 1947 2841 
Q 1628 2841 1473 2761 
Q 1319 2681 1319 2516 
Q 1319 2381 1436 2309 
Q 1553 2238 1856 2203 
L 2053 2175 
Q 2913 2066 3209 1816 
Q 3506 1566 3506 1031 
Q 3506 472 3093 190 
Q 2681 -91 1863 -91 
Q 1516 -91 1145 -36 
Q 775 19 384 128 
L 384 978 
Q 719 816 1070 734 
Q 1422 653 1784 653 
Q 2113 653 2278 743 
Q 2444 834 2444 1013 
Q 2444 1163 2330 1236 
Q 2216 1309 1875 1350 
L 1678 1375 
Q 931 1469 631 1722 
Q 331 1975 331 2491 
Q 331 3047 712 3315 
Q 1094 3584 1881 3584 
Q 2191 3584 2531 3537 
Q 2872 3491 3272 3391 
z
" transform="scale(0.015625)"/>
       <path id="DejaVuSans-Bold-61" d="M 2106 1575 
Q 1756 1575 1579 1456 
Q 1403 1338 1403 1106 
Q 1403 894 1545 773 
Q 1688 653 1941 653 
Q 2256 653 2472 879 
Q 2688 1106 2688 1447 
L 2688 1575 
L 2106 1575 
z
M 3816 1997 
L 3816 0 
L 2688 0 
L 2688 519 
Q 2463 200 2181 54 
Q 1900 -91 1497 -91 
Q 953 -91 614 226 
Q 275 544 275 1050 
Q 275 1666 698 1953 
Q 1122 2241 2028 2241 
L 2688 2241 
L 2688 2328 
Q 2688 2594 2478 2717 
Q 2269 2841 1825 2841 
Q 1466 2841 1156 2769 
Q 847 2697 581 2553 
L 581 3406 
Q 941 3494 1303 3539 
Q 1666 3584 2028 3584 
Q 2975 3584 3395 3211 
Q 3816 2838 3816 1997 
z
" transform="scale(0.015625)"/>
       <path id="DejaVuSans-Bold-63" d="M 3366 3391 
L 3366 2478 
Q 3138 2634 2908 2709 
Q 2678 2784 2431 2784 
Q 1963 2784 1702 2511 
Q 1441 2238 1441 1747 
Q 1441 1256 1702 982 
Q 1963 709 2431 709 
Q 2694 709 2930 787 
Q 3166 866 3366 1019 
L 3366 103 
Q 3103 6 2833 -42 
Q 2563 -91 2291 -91 
Q 1344 -91 809 395 
Q 275 881 275 1747 
Q 275 2613 809 3098 
Q 1344 3584 2291 3584 
Q 2566 3584 2833 3536 
Q 3100 3488 3366 3391 
z
" transform="scale(0.015625)"/>
       <path id="DejaVuSans-Bold-64" d="M 2919 2988 
L 2919 4863 
L 4044 4863 
L 4044 0 
L 2919 0 
L 2919 506 
Q 2688 197 2409 53 
Q 2131 -91 1766 -91 
Q 1119 -91 703 423 
Q 288 938 288 1747 
Q 288 2556 703 3070 
Q 1119 3584 1766 3584 
Q 2128 3584 2408 3439 
Q 2688 3294 2919 2988 
z
M 2181 722 
Q 2541 722 2730 984 
Q 2919 1247 2919 1747 
Q 2919 2247 2730 2509 
Q 2541 2772 2181 2772 
Q 1825 2772 1636 2509 
Q 1447 2247 1447 1747 
Q 1447 1247 1636 984 
Q 1825 722 2181 722 
z
" transform="scale(0.015625)"/>
       <path id="DejaVuSans-Bold-28" d="M 2413 -844 
L 1484 -844 
Q 1006 -72 778 623 
Q 550 1319 550 2003 
Q 550 2688 779 3389 
Q 1009 4091 1484 4856 
L 2413 4856 
Q 2013 4116 1813 3408 
Q 1613 2700 1613 2009 
Q 1613 1319 1811 609 
Q 2009 -100 2413 -844 
z
" transform="scale(0.015625)"/>
       <path id="DejaVuSans-Bold-29" d="M 513 -844 
Q 913 -100 1113 609 
Q 1313 1319 1313 2009 
Q 1313 2700 1113 3408 
Q 913 4116 513 4856 
L 1441 4856 
Q 1916 4091 2145 3389 
Q 2375 2688 2375 2003 
Q 2375 1319 2147 623 
Q 1919 -72 1441 -844 
L 513 -844 
z
" transform="scale(0.015625)"/>
      </defs>
      <use xlink:href="#DejaVuSans-Bold-54"/>
      <use xlink:href="#DejaVuSans-Bold-69" transform="translate(68.212891 0)"/>
      <use xlink:href="#DejaVuSans-Bold-6d" transform="translate(102.490234 0)"/>
      <use xlink:href="#DejaVuSans-Bold-65" transform="translate(206.689453 0)"/>
      <use xlink:href="#DejaVuSans-Bold-20" transform="translate(274.511719 0)"/>
      <use xlink:href="#DejaVuSans-Bold-66" transform="translate(309.326172 0)"/>
      <use xlink:href="#DejaVuSans-Bold-72" transform="translate(352.832031 0)"/>
      <use xlink:href="#DejaVuSans-Bold-6f" transform="translate(402.148438 0)"/>
      <use xlink:href="#DejaVuSans-Bold-6d" transform="translate(470.849609 0)"/>
      <use xlink:href="#DejaVuSans-Bold-20" transform="translate(575.048828 0)"/>
      <use xlink:href="#DejaVuSans-Bold-73" transform="translate(609.863281 0)"/>
      <use xlink:href="#DejaVuSans-Bold-61" transform="translate(669.384766 0)"/>
      <use xlink:href="#DejaVuSans-Bold-63" transform="translate(736.865234 0)"/>
      <use xlink:href="#DejaVuSans-Bold-63" transform="translate(796.142578 0)"/>
      <use xlink:href="#DejaVuSans-Bold-61" transform="translate(855.419922 0)"/>
      <use xlink:href="#DejaVuSans-Bold-64" transform="translate(922.900391 0)"/>
      <use xlink:href="#DejaVuSans-Bold-65" transform="translate(994.482422 0)"/>
      <use xlink:href="#DejaVuSans-Bold-20" transform="translate(1062.304688 0)"/>
      <use xlink:href="#DejaVuSans-Bold-28" transform="translate(1097.119141 0)"/>
      <use xlink:href="#DejaVuSans-Bold-6d" transform="translate(1142.822266 0)"/>
      <use xlink:href="#DejaVuSans-Bold-73" transform="translate(1247.021484 0)"/>
      <use xlink:href="#DejaVuSans-Bold-29" transform="translate(1306.542969 0)"/>
     </g>
    </g>
   </g>
   <g id="matplotlib.axis_2">
    <g id="ytick_1">
     <g id="line2d_4">
      <defs>
       <path id="mdd0e4d8e90" d="M 0 0 
L -3.5 0 
" style="stroke: #000000; stroke-width: 0.8"/>
      </defs>
      <g>
       <use xlink:href="#mdd0e4d8e90" x="78.425" y="282.430125" style="stroke: #000000; stroke-width: 0.8"/>
      </g>
     </g>
     <g id="text_5">
      <!-- −5 -->
      <g transform="translate(34.615 291.54825) scale(0.24 -0.24)">
       <defs>
        <path id="DejaVuSans-Bold-35" d="M 678 4666 
L 3669 4666 
L 3669 3781 
L 1638 3781 
L 1638 3059 
Q 1775 3097 1914 3117 
Q 2053 3138 2203 3138 
Q 3056 3138 3531 2711 
Q 4006 2284 4006 1522 
Q 4006 766 3489 337 
Q 2972 -91 2053 -91 
Q 1656 -91 1267 -14 
Q 878 63 494 219 
L 494 1166 
Q 875 947 1217 837 
Q 1559 728 1863 728 
Q 2300 728 2551 942 
Q 2803 1156 2803 1522 
Q 2803 1891 2551 2103 
Q 2300 2316 1863 2316 
Q 1603 2316 1309 2248 
Q 1016 2181 678 2041 
L 678 4666 
z
" transform="scale(0.015625)"/>
       </defs>
       <use xlink:href="#DejaVuSans-Bold-2212"/>
       <use xlink:href="#DejaVuSans-Bold-35" transform="translate(83.789062 0)"/>
      </g>
     </g>
    </g>
    <g id="ytick_2">
     <g id="line2d_5">
      <g>
       <use xlink:href="#mdd0e4d8e90" x="78.425" y="229.207725" style="stroke: #000000; stroke-width: 0.8"/>
      </g>
     </g>
     <g id="text_6">
      <!-- 0 -->
      <g transform="translate(54.72625 238.32585) scale(0.24 -0.24)">
       <use xlink:href="#DejaVuSans-Bold-30"/>
      </g>
     </g>
    </g>
    <g id="ytick_3">
     <g id="line2d_6">
      <g>
       <use xlink:href="#mdd0e4d8e90" x="78.425" y="175.985325" style="stroke: #000000; stroke-width: 0.8"/>
      </g>
     </g>
     <g id="text_7">
      <!-- 5 -->
      <g transform="translate(54.72625 185.10345) scale(0.24 -0.24)">
       <use xlink:href="#DejaVuSans-Bold-35"/>
      </g>
     </g>
    </g>
    <g id="ytick_4">
     <g id="line2d_7">
      <g>
       <use xlink:href="#mdd0e4d8e90" x="78.425" y="122.762925" style="stroke: #000000; stroke-width: 0.8"/>
      </g>
     </g>
     <g id="text_8">
      <!-- 10 -->
      <g transform="translate(38.0275 131.88105) scale(0.24 -0.24)">
       <defs>
        <path id="DejaVuSans-Bold-31" d="M 750 831 
L 1813 831 
L 1813 3847 
L 722 3622 
L 722 4441 
L 1806 4666 
L 2950 4666 
L 2950 831 
L 4013 831 
L 4013 0 
L 750 0 
L 750 831 
z
" transform="scale(0.015625)"/>
       </defs>
       <use xlink:href="#DejaVuSans-Bold-31"/>
       <use xlink:href="#DejaVuSans-Bold-30" transform="translate(69.580078 0)"/>
      </g>
     </g>
    </g>
    <g id="ytick_5">
     <g id="line2d_8">
      <g>
       <use xlink:href="#mdd0e4d8e90" x="78.425" y="69.540525" style="stroke: #000000; stroke-width: 0.8"/>
      </g>
     </g>
     <g id="text_9">
      <!-- 15 -->
      <g transform="translate(38.0275 78.65865) scale(0.24 -0.24)">
       <use xlink:href="#DejaVuSans-Bold-31"/>
       <use xlink:href="#DejaVuSans-Bold-35" transform="translate(69.580078 0)"/>
      </g>
     </g>
    </g>
    <g id="ytick_6">
     <g id="line2d_9">
      <g>
       <use xlink:href="#mdd0e4d8e90" x="78.425" y="16.318125" style="stroke: #000000; stroke-width: 0.8"/>
      </g>
     </g>
     <g id="text_10">
      <!-- 20 -->
      <g transform="translate(38.0275 25.43625) scale(0.24 -0.24)">
       <use xlink:href="#DejaVuSans-Bold-32"/>
       <use xlink:href="#DejaVuSans-Bold-30" transform="translate(69.580078 0)"/>
      </g>
     </g>
    </g>
    <g id="text_11">
     <!-- Regression slope -->
     <g transform="translate(25.43625 264.990375) rotate(-90) scale(0.24 -0.24)">
      <defs>
       <path id="DejaVuSans-Bold-52" d="M 2297 2597 
Q 2675 2597 2839 2737 
Q 3003 2878 3003 3200 
Q 3003 3519 2839 3656 
Q 2675 3794 2297 3794 
L 1791 3794 
L 1791 2597 
L 2297 2597 
z
M 1791 1766 
L 1791 0 
L 588 0 
L 588 4666 
L 2425 4666 
Q 3347 4666 3776 4356 
Q 4206 4047 4206 3378 
Q 4206 2916 3982 2619 
Q 3759 2322 3309 2181 
Q 3556 2125 3751 1926 
Q 3947 1728 4147 1325 
L 4800 0 
L 3519 0 
L 2950 1159 
Q 2778 1509 2601 1637 
Q 2425 1766 2131 1766 
L 1791 1766 
z
" transform="scale(0.015625)"/>
       <path id="DejaVuSans-Bold-67" d="M 2919 594 
Q 2688 288 2409 144 
Q 2131 0 1766 0 
Q 1125 0 706 504 
Q 288 1009 288 1791 
Q 288 2575 706 3076 
Q 1125 3578 1766 3578 
Q 2131 3578 2409 3434 
Q 2688 3291 2919 2981 
L 2919 3500 
L 4044 3500 
L 4044 353 
Q 4044 -491 3511 -936 
Q 2978 -1381 1966 -1381 
Q 1638 -1381 1331 -1331 
Q 1025 -1281 716 -1178 
L 716 -306 
Q 1009 -475 1290 -558 
Q 1572 -641 1856 -641 
Q 2406 -641 2662 -400 
Q 2919 -159 2919 353 
L 2919 594 
z
M 2181 2772 
Q 1834 2772 1640 2515 
Q 1447 2259 1447 1791 
Q 1447 1309 1634 1061 
Q 1822 813 2181 813 
Q 2531 813 2725 1069 
Q 2919 1325 2919 1791 
Q 2919 2259 2725 2515 
Q 2531 2772 2181 2772 
z
" transform="scale(0.015625)"/>
       <path id="DejaVuSans-Bold-6e" d="M 4056 2131 
L 4056 0 
L 2931 0 
L 2931 347 
L 2931 1631 
Q 2931 2084 2911 2256 
Q 2891 2428 2841 2509 
Q 2775 2619 2662 2680 
Q 2550 2741 2406 2741 
Q 2056 2741 1856 2470 
Q 1656 2200 1656 1722 
L 1656 0 
L 538 0 
L 538 3500 
L 1656 3500 
L 1656 2988 
Q 1909 3294 2193 3439 
Q 2478 3584 2822 3584 
Q 3428 3584 3742 3212 
Q 4056 2841 4056 2131 
z
" transform="scale(0.015625)"/>
       <path id="DejaVuSans-Bold-6c" d="M 538 4863 
L 1656 4863 
L 1656 0 
L 538 0 
L 538 4863 
z
" transform="scale(0.015625)"/>
       <path id="DejaVuSans-Bold-70" d="M 1656 506 
L 1656 -1331 
L 538 -1331 
L 538 3500 
L 1656 3500 
L 1656 2988 
Q 1888 3294 2169 3439 
Q 2450 3584 2816 3584 
Q 3463 3584 3878 3070 
Q 4294 2556 4294 1747 
Q 4294 938 3878 423 
Q 3463 -91 2816 -91 
Q 2450 -91 2169 54 
Q 1888 200 1656 506 
z
M 2400 2772 
Q 2041 2772 1848 2508 
Q 1656 2244 1656 1747 
Q 1656 1250 1848 986 
Q 2041 722 2400 722 
Q 2759 722 2948 984 
Q 3138 1247 3138 1747 
Q 3138 2247 2948 2509 
Q 2759 2772 2400 2772 
z
" transform="scale(0.015625)"/>
      </defs>
      <use xlink:href="#DejaVuSans-Bold-52"/>
      <use xlink:href="#DejaVuSans-Bold-65" transform="translate(77.001953 0)"/>
      <use xlink:href="#DejaVuSans-Bold-67" transform="translate(144.824219 0)"/>
      <use xlink:href="#DejaVuSans-Bold-72" transform="translate(216.40625 0)"/>
      <use xlink:href="#DejaVuSans-Bold-65" transform="translate(265.722656 0)"/>
      <use xlink:href="#DejaVuSans-Bold-73" transform="translate(333.544922 0)"/>
      <use xlink:href="#DejaVuSans-Bold-73" transform="translate(393.066406 0)"/>
      <use xlink:href="#DejaVuSans-Bold-69" transform="translate(452.587891 0)"/>
      <use xlink:href="#DejaVuSans-Bold-6f" transform="translate(486.865234 0)"/>
      <use xlink:href="#DejaVuSans-Bold-6e" transform="translate(555.566406 0)"/>
      <use xlink:href="#DejaVuSans-Bold-20" transform="translate(626.757812 0)"/>
      <use xlink:href="#DejaVuSans-Bold-73" transform="translate(661.572266 0)"/>
      <use xlink:href="#DejaVuSans-Bold-6c" transform="translate(721.09375 0)"/>
      <use xlink:href="#DejaVuSans-Bold-6f" transform="translate(755.371094 0)"/>
      <use xlink:href="#DejaVuSans-Bold-70" transform="translate(824.072266 0)"/>
      <use xlink:href="#DejaVuSans-Bold-65" transform="translate(895.654297 0)"/>
     </g>
    </g>
   </g>
   <g id="line2d_10">
    <path d="M 353.132692 335.652525 
L 353.132692 -1 
" clip-path="url(#p7c96e7ca89)" style="fill: none; stroke-dasharray: 3.7,1.6; stroke-dashoffset: 0; stroke: #000000"/>
   </g>
   <g id="line2d_11">
    <path d="M 78.425 229.207725 
L 435.545 229.207725 
L 435.545 229.207725 
" clip-path="url(#p7c96e7ca89)" style="fill: none; stroke-dasharray: 3.7,1.6; stroke-dashoffset: 0; stroke: #000000"/>
   </g>
   <g id="patch_3">
    <path d="M 78.425 282.430125 
L 78.425 16.318125 
" style="fill: none; stroke: #000000; stroke-width: 0.8; stroke-linejoin: miter; stroke-linecap: square"/>
   </g>
   <g id="patch_4">
    <path d="M 78.425 282.430125 
L 435.545 282.430125 
" style="fill: none; stroke: #000000; stroke-width: 0.8; stroke-linejoin: miter; stroke-linecap: square"/>
   </g>
  </g>
 </g>
 <defs>
  <clipPath id="p7c96e7ca89">
   <rect x="78.425" y="16.318125" width="357.12" height="266.112"/>
  </clipPath>
 </defs>
</svg>
