<?xml version="1.0" encoding="utf-8" standalone="no"?>
<!DOCTYPE svg PUBLIC "-//W3C//DTD SVG 1.1//EN"
  "http://www.w3.org/Graphics/SVG/1.1/DTD/svg11.dtd">
<svg xmlns:xlink="http://www.w3.org/1999/xlink" width="391.9025pt" height="340.360625pt" viewBox="0 0 391.9025 340.360625" xmlns="http://www.w3.org/2000/svg" version="1.1">
 <metadata>
  <rdf:RDF xmlns:dc="http://purl.org/dc/elements/1.1/" xmlns:cc="http://creativecommons.org/ns#" xmlns:rdf="http://www.w3.org/1999/02/22-rdf-syntax-ns#">
   <cc:Work>
    <dc:type rdf:resource="http://purl.org/dc/dcmitype/StillImage"/>
    <dc:date>2026-03-06T14:41:20.142227</dc:date>
    <dc:format>image/svg+xml</dc:format>
    <dc:creator>
     <cc:Agent>
      <dc:title>Matplotlib v3.10.0, https://matplotlib.org/</dc:title>
     </cc:Agent>
    </dc:creator>
   </cc:Work>
  </rdf:RDF>
 </metadata>
 <defs>
  <style type="text/css">*{stroke-linejoin: round; stroke-linecap: butt}</style>
 </defs>
 <g id="figure_1">
  <g id="patch_1">
   <path d="M 0 340.360625 
L 391.9025 340.360625 
L 391.9025 0 
L 0 0 
z
" style="fill: #ffffff"/>
  </g>
  <g id="axes_1">
   <g id="patch_2">
    <path d="M 108.2225 189.118125 
L 384.7025 189.118125 
L 384.7025 16.318125 
L 108.2225 16.318125 
z
" style="fill: #ffffff"/>
   </g>
   <g id="matplotlib.axis_1">
    <g id="xtick_1">
     <g id="line2d_1">
      <defs>
       <path id="maf312c4ca3" d="M 0 0 
L 0 3.5 
" style="stroke: #000000; stroke-width: 0.8"/>
      </defs>
      <g>
       <use xlink:href="#maf312c4ca3" x="154.3025" y="189.118125" style="stroke: #000000; stroke-width: 0.8"/>
      </g>
     </g>
     <g id="text_1">
      <!-- −2 -->
      <g transform="translate(135.8975 214.354375) scale(0.24 -0.24)">
       <defs>
        <path id="DejaVuSans-Bold-2212" d="M 678 2375 
L 4684 2375 
L 4684 1638 
L 678 1638 
L 678 2375 
z
" transform="scale(0.015625)"/>
        <path id="DejaVuSans-Bold-32" d="M 1844 884 
L 3897 884 
L 3897 0 
L 506 0 
L 506 884 
L 2209 2388 
Q 2438 2594 2547 2791 
Q 2656 2988 2656 3200 
Q 2656 3528 2436 3728 
Q 2216 3928 1850 3928 
Q 1569 3928 1234 3808 
Q 900 3688 519 3450 
L 519 4475 
Q 925 4609 1322 4679 
Q 1719 4750 2100 4750 
Q 2938 4750 3402 4381 
Q 3866 4013 3866 3353 
Q 3866 2972 3669 2642 
Q 3472 2313 2841 1759 
L 1844 884 
z
" transform="scale(0.015625)"/>
       </defs>
       <use xlink:href="#DejaVuSans-Bold-2212"/>
       <use xlink:href="#DejaVuSans-Bold-32" transform="translate(83.789062 0)"/>
      </g>
     </g>
    </g>
    <g id="xtick_2">
     <g id="line2d_2">
      <g>
       <use xlink:href="#maf312c4ca3" x="246.4625" y="189.118125" style="stroke: #000000; stroke-width: 0.8"/>
      </g>
     </g>
     <g id="text_2">
      <!-- 0 -->
      <g transform="translate(238.113125 214.354375) scale(0.24 -0.24)">
       <defs>
        <path id="DejaVuSans-Bold-30" d="M 2944 2338 
Q 2944 3213 2780 3570 
Q 2616 3928 2228 3928 
Q 1841 3928 1675 3570 
Q 1509 3213 1509 2338 
Q 1509 1453 1675 1090 
Q 1841 728 2228 728 
Q 2613 728 2778 1090 
Q 2944 1453 2944 2338 
z
M 4147 2328 
Q 4147 1169 3647 539 
Q 3147 -91 2228 -91 
Q 1306 -91 806 539 
Q 306 1169 306 2328 
Q 306 3491 806 4120 
Q 1306 4750 2228 4750 
Q 3147 4750 3647 4120 
Q 4147 3491 4147 2328 
z
" transform="scale(0.015625)"/>
       </defs>
       <use xlink:href="#DejaVuSans-Bold-30"/>
      </g>
     </g>
    </g>
    <g id="xtick_3">
     <g id="line2d_3">
      <g>
       <use xlink:href="#maf312c4ca3" x="338.6225" y="189.118125" style="stroke: #000000; stroke-width: 0.8"/>
      </g>
     </g>
     <g id="text_3">
      <!-- 2 -->
      <g transform="translate(330.273125 214.354375) scale(0.24 -0.24)">
       <use xlink:href="#DejaVuSans-Bold-32"/>
      </g>
     </g>
    </g>
   </g>
   <g id="matplotlib.axis_2">
    <g id="ytick_1">
     <g id="line2d_4">
      <defs>
       <path id="m162e8a2f51" d="M 0 0 
L -3.5 0 
" style="stroke: #000000; stroke-width: 0.8"/>
      </defs>
      <g>
       <use xlink:href="#m162e8a2f51" x="108.2225" y="189.118125" style="stroke: #000000; stroke-width: 0.8"/>
      </g>
     </g>
     <g id="text_4">
      <!-- 0.0 -->
      <g transform="translate(58.70875 198.23625) scale(0.24 -0.24)">
       <defs>
        <path id="DejaVuSans-Bold-2e" d="M 653 1209 
L 1778 1209 
L 1778 0 
L 653 0 
L 653 1209 
z
" transform="scale(0.015625)"/>
       </defs>
       <use xlink:href="#DejaVuSans-Bold-30"/>
       <use xlink:href="#DejaVuSans-Bold-2e" transform="translate(69.580078 0)"/>
       <use xlink:href="#DejaVuSans-Bold-30" transform="translate(107.568359 0)"/>
      </g>
     </g>
    </g>
    <g id="ytick_2">
     <g id="line2d_5">
      <g>
       <use xlink:href="#m162e8a2f51" x="108.2225" y="102.718125" style="stroke: #000000; stroke-width: 0.8"/>
      </g>
     </g>
     <g id="text_5">
      <!-- 0.5 -->
      <g transform="translate(58.70875 111.83625) scale(0.24 -0.24)">
       <defs>
        <path id="DejaVuSans-Bold-35" d="M 678 4666 
L 3669 4666 
L 3669 3781 
L 1638 3781 
L 1638 3059 
Q 1775 3097 1914 3117 
Q 2053 3138 2203 3138 
Q 3056 3138 3531 2711 
Q 4006 2284 4006 1522 
Q 4006 766 3489 337 
Q 2972 -91 2053 -91 
Q 1656 -91 1267 -14 
Q 878 63 494 219 
L 494 1166 
Q 875 947 1217 837 
Q 1559 728 1863 728 
Q 2300 728 2551 942 
Q 2803 1156 2803 1522 
Q 2803 1891 2551 2103 
Q 2300 2316 1863 2316 
Q 1603 2316 1309 2248 
Q 1016 2181 678 2041 
L 678 4666 
z
" transform="scale(0.015625)"/>
       </defs>
       <use xlink:href="#DejaVuSans-Bold-30"/>
       <use xlink:href="#DejaVuSans-Bold-2e" transform="translate(69.580078 0)"/>
       <use xlink:href="#DejaVuSans-Bold-35" transform="translate(107.568359 0)"/>
      </g>
     </g>
    </g>
    <g id="ytick_3">
     <g id="line2d_6">
      <g>
       <use xlink:href="#m162e8a2f51" x="108.2225" y="16.318125" style="stroke: #000000; stroke-width: 0.8"/>
      </g>
     </g>
     <g id="text_6">
      <!-- 1.0 -->
      <g transform="translate(58.70875 25.43625) scale(0.24 -0.24)">
       <defs>
        <path id="DejaVuSans-Bold-31" d="M 750 831 
L 1813 831 
L 1813 3847 
L 722 3622 
L 722 4441 
L 1806 4666 
L 2950 4666 
L 2950 831 
L 4013 831 
L 4013 0 
L 750 0 
L 750 831 
z
" transform="scale(0.015625)"/>
       </defs>
       <use xlink:href="#DejaVuSans-Bold-31"/>
       <use xlink:href="#DejaVuSans-Bold-2e" transform="translate(69.580078 0)"/>
       <use xlink:href="#DejaVuSans-Bold-30" transform="translate(107.568359 0)"/>
      </g>
     </g>
    </g>
    <g id="text_7">
     <!-- Proportion of choice A -->
     <g transform="translate(49.7175 253.614375) rotate(-90) scale(0.24 -0.24)">
      <defs>
       <path id="DejaVuSans-Bold-50" d="M 588 4666 
L 2584 4666 
Q 3475 4666 3951 4270 
Q 4428 3875 4428 3144 
Q 4428 2409 3951 2014 
Q 3475 1619 2584 1619 
L 1791 1619 
L 1791 0 
L 588 0 
L 588 4666 
z
M 1791 3794 
L 1791 2491 
L 2456 2491 
Q 2806 2491 2997 2661 
Q 3188 2831 3188 3144 
Q 3188 3456 2997 3625 
Q 2806 3794 2456 3794 
L 1791 3794 
z
" transform="scale(0.015625)"/>
       <path id="DejaVuSans-Bold-72" d="M 3138 2547 
Q 2991 2616 2845 2648 
Q 2700 2681 2553 2681 
Q 2122 2681 1889 2404 
Q 1656 2128 1656 1613 
L 1656 0 
L 538 0 
L 538 3500 
L 1656 3500 
L 1656 2925 
Q 1872 3269 2151 3426 
Q 2431 3584 2822 3584 
Q 2878 3584 2943 3579 
Q 3009 3575 3134 3559 
L 3138 2547 
z
" transform="scale(0.015625)"/>
       <path id="DejaVuSans-Bold-6f" d="M 2203 2784 
Q 1831 2784 1636 2517 
Q 1441 2250 1441 1747 
Q 1441 1244 1636 976 
Q 1831 709 2203 709 
Q 2569 709 2762 976 
Q 2956 1244 2956 1747 
Q 2956 2250 2762 2517 
Q 2569 2784 2203 2784 
z
M 2203 3584 
Q 3106 3584 3614 3096 
Q 4122 2609 4122 1747 
Q 4122 884 3614 396 
Q 3106 -91 2203 -91 
Q 1297 -91 786 396 
Q 275 884 275 1747 
Q 275 2609 786 3096 
Q 1297 3584 2203 3584 
z
" transform="scale(0.015625)"/>
       <path id="DejaVuSans-Bold-70" d="M 1656 506 
L 1656 -1331 
L 538 -1331 
L 538 3500 
L 1656 3500 
L 1656 2988 
Q 1888 3294 2169 3439 
Q 2450 3584 2816 3584 
Q 3463 3584 3878 3070 
Q 4294 2556 4294 1747 
Q 4294 938 3878 423 
Q 3463 -91 2816 -91 
Q 2450 -91 2169 54 
Q 1888 200 1656 506 
z
M 2400 2772 
Q 2041 2772 1848 2508 
Q 1656 2244 1656 1747 
Q 1656 1250 1848 986 
Q 2041 722 2400 722 
Q 2759 722 2948 984 
Q 3138 1247 3138 1747 
Q 3138 2247 2948 2509 
Q 2759 2772 2400 2772 
z
" transform="scale(0.015625)"/>
       <path id="DejaVuSans-Bold-74" d="M 1759 4494 
L 1759 3500 
L 2913 3500 
L 2913 2700 
L 1759 2700 
L 1759 1216 
Q 1759 972 1856 886 
Q 1953 800 2241 800 
L 2816 800 
L 2816 0 
L 1856 0 
Q 1194 0 917 276 
Q 641 553 641 1216 
L 641 2700 
L 84 2700 
L 84 3500 
L 641 3500 
L 641 4494 
L 1759 4494 
z
" transform="scale(0.015625)"/>
       <path id="DejaVuSans-Bold-69" d="M 538 3500 
L 1656 3500 
L 1656 0 
L 538 0 
L 538 3500 
z
M 538 4863 
L 1656 4863 
L 1656 3950 
L 538 3950 
L 538 4863 
z
" transform="scale(0.015625)"/>
       <path id="DejaVuSans-Bold-6e" d="M 4056 2131 
L 4056 0 
L 2931 0 
L 2931 347 
L 2931 1631 
Q 2931 2084 2911 2256 
Q 2891 2428 2841 2509 
Q 2775 2619 2662 2680 
Q 2550 2741 2406 2741 
Q 2056 2741 1856 2470 
Q 1656 2200 1656 1722 
L 1656 0 
L 538 0 
L 538 3500 
L 1656 3500 
L 1656 2988 
Q 1909 3294 2193 3439 
Q 2478 3584 2822 3584 
Q 3428 3584 3742 3212 
Q 4056 2841 4056 2131 
z
" transform="scale(0.015625)"/>
       <path id="DejaVuSans-Bold-20" transform="scale(0.015625)"/>
       <path id="DejaVuSans-Bold-66" d="M 2841 4863 
L 2841 4128 
L 2222 4128 
Q 1984 4128 1890 4042 
Q 1797 3956 1797 3744 
L 1797 3500 
L 2753 3500 
L 2753 2700 
L 1797 2700 
L 1797 0 
L 678 0 
L 678 2700 
L 122 2700 
L 122 3500 
L 678 3500 
L 678 3744 
Q 678 4316 997 4589 
Q 1316 4863 1984 4863 
L 2841 4863 
z
" transform="scale(0.015625)"/>
       <path id="DejaVuSans-Bold-63" d="M 3366 3391 
L 3366 2478 
Q 3138 2634 2908 2709 
Q 2678 2784 2431 2784 
Q 1963 2784 1702 2511 
Q 1441 2238 1441 1747 
Q 1441 1256 1702 982 
Q 1963 709 2431 709 
Q 2694 709 2930 787 
Q 3166 866 3366 1019 
L 3366 103 
Q 3103 6 2833 -42 
Q 2563 -91 2291 -91 
Q 1344 -91 809 395 
Q 275 881 275 1747 
Q 275 2613 809 3098 
Q 1344 3584 2291 3584 
Q 2566 3584 2833 3536 
Q 3100 3488 3366 3391 
z
" transform="scale(0.015625)"/>
       <path id="DejaVuSans-Bold-68" d="M 4056 2131 
L 4056 0 
L 2931 0 
L 2931 347 
L 2931 1625 
Q 2931 2084 2911 2256 
Q 2891 2428 2841 2509 
Q 2775 2619 2662 2680 
Q 2550 2741 2406 2741 
Q 2056 2741 1856 2470 
Q 1656 2200 1656 1722 
L 1656 0 
L 538 0 
L 538 4863 
L 1656 4863 
L 1656 2988 
Q 1909 3294 2193 3439 
Q 2478 3584 2822 3584 
Q 3428 3584 3742 3212 
Q 4056 2841 4056 2131 
z
" transform="scale(0.015625)"/>
       <path id="DejaVuSans-Bold-65" d="M 4031 1759 
L 4031 1441 
L 1416 1441 
Q 1456 1047 1700 850 
Q 1944 653 2381 653 
Q 2734 653 3104 758 
Q 3475 863 3866 1075 
L 3866 213 
Q 3469 63 3072 -14 
Q 2675 -91 2278 -91 
Q 1328 -91 801 392 
Q 275 875 275 1747 
Q 275 2603 792 3093 
Q 1309 3584 2216 3584 
Q 3041 3584 3536 3087 
Q 4031 2591 4031 1759 
z
M 2881 2131 
Q 2881 2450 2695 2645 
Q 2509 2841 2209 2841 
Q 1884 2841 1681 2658 
Q 1478 2475 1428 2131 
L 2881 2131 
z
" transform="scale(0.015625)"/>
       <path id="DejaVuSans-Bold-41" d="M 3419 850 
L 1538 850 
L 1241 0 
L 31 0 
L 1759 4666 
L 3194 4666 
L 4922 0 
L 3713 0 
L 3419 850 
z
M 1838 1716 
L 3116 1716 
L 2478 3572 
L 1838 1716 
z
" transform="scale(0.015625)"/>
      </defs>
      <use xlink:href="#DejaVuSans-Bold-50"/>
      <use xlink:href="#DejaVuSans-Bold-72" transform="translate(73.291016 0)"/>
      <use xlink:href="#DejaVuSans-Bold-6f" transform="translate(122.607422 0)"/>
      <use xlink:href="#DejaVuSans-Bold-70" transform="translate(191.308594 0)"/>
      <use xlink:href="#DejaVuSans-Bold-6f" transform="translate(262.890625 0)"/>
      <use xlink:href="#DejaVuSans-Bold-72" transform="translate(331.591797 0)"/>
      <use xlink:href="#DejaVuSans-Bold-74" transform="translate(380.908203 0)"/>
      <use xlink:href="#DejaVuSans-Bold-69" transform="translate(428.710938 0)"/>
      <use xlink:href="#DejaVuSans-Bold-6f" transform="translate(462.988281 0)"/>
      <use xlink:href="#DejaVuSans-Bold-6e" transform="translate(531.689453 0)"/>
      <use xlink:href="#DejaVuSans-Bold-20" transform="translate(602.880859 0)"/>
      <use xlink:href="#DejaVuSans-Bold-6f" transform="translate(637.695312 0)"/>
      <use xlink:href="#DejaVuSans-Bold-66" transform="translate(706.396484 0)"/>
      <use xlink:href="#DejaVuSans-Bold-20" transform="translate(749.902344 0)"/>
      <use xlink:href="#DejaVuSans-Bold-63" transform="translate(784.716797 0)"/>
      <use xlink:href="#DejaVuSans-Bold-68" transform="translate(843.994141 0)"/>
      <use xlink:href="#DejaVuSans-Bold-6f" transform="translate(915.185547 0)"/>
      <use xlink:href="#DejaVuSans-Bold-69" transform="translate(983.886719 0)"/>
      <use xlink:href="#DejaVuSans-Bold-63" transform="translate(1018.164062 0)"/>
      <use xlink:href="#DejaVuSans-Bold-65" transform="translate(1077.441406 0)"/>
      <use xlink:href="#DejaVuSans-Bold-20" transform="translate(1145.263672 0)"/>
      <use xlink:href="#DejaVuSans-Bold-41" transform="translate(1180.078125 0)"/>
     </g>
    </g>
   </g>
   <g id="line2d_7">
    <defs>
     <path id="mb1530c050c" d="M 0 4 
C 1.060812 4 2.078319 3.578535 2.828427 2.828427 
C 3.578535 2.078319 4 1.060812 4 0 
C 4 -1.060812 3.578535 -2.078319 2.828427 -2.828427 
C 2.078319 -3.578535 1.060812 -4 0 -4 
C -1.060812 -4 -2.078319 -3.578535 -2.828427 -2.828427 
C -3.578535 -2.078319 -4 -1.060812 -4 0 
C -4 1.060812 -3.578535 2.078319 -2.828427 2.828427 
C -2.078319 3.578535 -1.060812 4 0 4 
z
" style="stroke: #000000"/>
    </defs>
    <g clip-path="url(#pb90b290fde)">
     <use xlink:href="#mb1530c050c" x="89.7905" y="189.118125" style="stroke: #000000"/>
     <use xlink:href="#mb1530c050c" x="94.3985" y="189.118125" style="stroke: #000000"/>
     <use xlink:href="#mb1530c050c" x="99.0065" y="189.118125" style="stroke: #000000"/>
     <use xlink:href="#mb1530c050c" x="103.6145" y="189.118125" style="stroke: #000000"/>
     <use xlink:href="#mb1530c050c" x="108.2225" y="189.118125" style="stroke: #000000"/>
     <use xlink:href="#mb1530c050c" x="112.8305" y="189.118125" style="stroke: #000000"/>
     <use xlink:href="#mb1530c050c" x="117.4385" y="189.118125" style="stroke: #000000"/>
     <use xlink:href="#mb1530c050c" x="122.0465" y="189.118125" style="stroke: #000000"/>
     <use xlink:href="#mb1530c050c" x="126.6545" y="189.118125" style="stroke: #000000"/>
     <use xlink:href="#mb1530c050c" x="131.2625" y="189.118125" style="stroke: #000000"/>
     <use xlink:href="#mb1530c050c" x="135.8705" y="189.118125" style="stroke: #000000"/>
     <use xlink:href="#mb1530c050c" x="140.4785" y="189.118125" style="stroke: #000000"/>
     <use xlink:href="#mb1530c050c" x="145.0865" y="189.118125" style="stroke: #000000"/>
     <use xlink:href="#mb1530c050c" x="149.6945" y="189.118125" style="stroke: #000000"/>
     <use xlink:href="#mb1530c050c" x="154.3025" y="189.118125" style="stroke: #000000"/>
     <use xlink:href="#mb1530c050c" x="158.9105" y="189.118125" style="stroke: #000000"/>
     <use xlink:href="#mb1530c050c" x="163.5185" y="189.118125" style="stroke: #000000"/>
     <use xlink:href="#mb1530c050c" x="168.1265" y="189.118125" style="stroke: #000000"/>
     <use xlink:href="#mb1530c050c" x="172.7345" y="189.118125" style="stroke: #000000"/>
     <use xlink:href="#mb1530c050c" x="177.3425" y="188.691458" style="stroke: #000000"/>
     <use xlink:href="#mb1530c050c" x="181.9505" y="189.118125" style="stroke: #000000"/>
     <use xlink:href="#mb1530c050c" x="186.5585" y="188.805082" style="stroke: #000000"/>
     <use xlink:href="#mb1530c050c" x="191.1665" y="188.5317" style="stroke: #000000"/>
     <use xlink:href="#mb1530c050c" x="195.7745" y="189.118125" style="stroke: #000000"/>
     <use xlink:href="#mb1530c050c" x="200.3825" y="188.108779" style="stroke: #000000"/>
     <use xlink:href="#mb1530c050c" x="204.9905" y="187.412862" style="stroke: #000000"/>
     <use xlink:href="#mb1530c050c" x="209.5985" y="186.233317" style="stroke: #000000"/>
     <use xlink:href="#mb1530c050c" x="214.2065" y="173.850655" style="stroke: #000000"/>
     <use xlink:href="#mb1530c050c" x="218.8145" y="171.729446" style="stroke: #000000"/>
     <use xlink:href="#mb1530c050c" x="223.4225" y="157.781337" style="stroke: #000000"/>
     <use xlink:href="#mb1530c050c" x="228.0305" y="161.311228" style="stroke: #000000"/>
     <use xlink:href="#mb1530c050c" x="232.6385" y="117.209845" style="stroke: #000000"/>
     <use xlink:href="#mb1530c050c" x="237.2465" y="127.027278" style="stroke: #000000"/>
     <use xlink:href="#mb1530c050c" x="241.8545" y="113.938904" style="stroke: #000000"/>
     <use xlink:href="#mb1530c050c" x="246.4625" y="68.525785" style="stroke: #000000"/>
     <use xlink:href="#mb1530c050c" x="251.0705" y="77.810017" style="stroke: #000000"/>
     <use xlink:href="#mb1530c050c" x="255.6785" y="54.847855" style="stroke: #000000"/>
     <use xlink:href="#mb1530c050c" x="260.2865" y="30.458878" style="stroke: #000000"/>
     <use xlink:href="#mb1530c050c" x="264.8945" y="47.736307" style="stroke: #000000"/>
     <use xlink:href="#mb1530c050c" x="269.5025" y="21.940685" style="stroke: #000000"/>
     <use xlink:href="#mb1530c050c" x="274.1105" y="19.918125" style="stroke: #000000"/>
     <use xlink:href="#mb1530c050c" x="278.7185" y="19.411731" style="stroke: #000000"/>
     <use xlink:href="#mb1530c050c" x="283.3265" y="16.763486" style="stroke: #000000"/>
     <use xlink:href="#mb1530c050c" x="287.9345" y="18.380178" style="stroke: #000000"/>
     <use xlink:href="#mb1530c050c" x="292.5425" y="17.242189" style="stroke: #000000"/>
     <use xlink:href="#mb1530c050c" x="297.1505" y="18.050456" style="stroke: #000000"/>
     <use xlink:href="#mb1530c050c" x="301.7585" y="17.533315" style="stroke: #000000"/>
     <use xlink:href="#mb1530c050c" x="306.3665" y="16.318125" style="stroke: #000000"/>
     <use xlink:href="#mb1530c050c" x="310.9745" y="16.820451" style="stroke: #000000"/>
     <use xlink:href="#mb1530c050c" x="315.5825" y="16.318125" style="stroke: #000000"/>
     <use xlink:href="#mb1530c050c" x="320.1905" y="16.318125" style="stroke: #000000"/>
     <use xlink:href="#mb1530c050c" x="324.7985" y="16.318125" style="stroke: #000000"/>
     <use xlink:href="#mb1530c050c" x="329.4065" y="16.318125" style="stroke: #000000"/>
     <use xlink:href="#mb1530c050c" x="334.0145" y="16.318125" style="stroke: #000000"/>
     <use xlink:href="#mb1530c050c" x="338.6225" y="16.318125" style="stroke: #000000"/>
     <use xlink:href="#mb1530c050c" x="343.2305" y="16.318125" style="stroke: #000000"/>
     <use xlink:href="#mb1530c050c" x="347.8385" y="16.318125" style="stroke: #000000"/>
     <use xlink:href="#mb1530c050c" x="352.4465" y="16.318125" style="stroke: #000000"/>
     <use xlink:href="#mb1530c050c" x="357.0545" y="189.118125" style="stroke: #000000"/>
     <use xlink:href="#mb1530c050c" x="361.6625" y="189.118125" style="stroke: #000000"/>
     <use xlink:href="#mb1530c050c" x="366.2705" y="189.118125" style="stroke: #000000"/>
     <use xlink:href="#mb1530c050c" x="370.8785" y="16.318125" style="stroke: #000000"/>
     <use xlink:href="#mb1530c050c" x="375.4865" y="16.318125" style="stroke: #000000"/>
     <use xlink:href="#mb1530c050c" x="380.0945" y="189.118125" style="stroke: #000000"/>
     <use xlink:href="#mb1530c050c" x="384.7025" y="16.318125" style="stroke: #000000"/>
     <use xlink:href="#mb1530c050c" x="389.3105" y="16.318125" style="stroke: #000000"/>
    </g>
   </g>
   <g id="patch_3">
    <path d="M 108.2225 189.118125 
L 108.2225 16.318125 
" style="fill: none; stroke: #000000; stroke-width: 0.8; stroke-linejoin: miter; stroke-linecap: square"/>
   </g>
   <g id="patch_4">
    <path d="M 108.2225 189.118125 
L 384.7025 189.118125 
" style="fill: none; stroke: #000000; stroke-width: 0.8; stroke-linejoin: miter; stroke-linecap: square"/>
   </g>
  </g>
  <g id="axes_2">
   <g id="patch_5">
    <path d="M 108.2225 275.518125 
L 384.7025 275.518125 
L 384.7025 223.678125 
L 108.2225 223.678125 
z
" style="fill: #ffffff"/>
   </g>
   <g id="patch_6">
    <path d="M 87.4865 275.518125 
L 92.0945 275.518125 
L 92.0945 275.47571 
L 87.4865 275.47571 
z
" clip-path="url(#pb0995280d0)" style="fill: #1f77b4"/>
   </g>
   <g id="patch_7">
    <path d="M 92.0945 275.518125 
L 96.7025 275.518125 
L 96.7025 275.518125 
L 92.0945 275.518125 
z
" clip-path="url(#pb0995280d0)" style="fill: #1f77b4"/>
   </g>
   <g id="patch_8">
    <path d="M 96.7025 275.518125 
L 101.3105 275.518125 
L 101.3105 275.518125 
L 96.7025 275.518125 
z
" clip-path="url(#pb0995280d0)" style="fill: #1f77b4"/>
   </g>
   <g id="patch_9">
    <path d="M 101.3105 275.518125 
L 105.9185 275.518125 
L 105.9185 275.518125 
L 101.3105 275.518125 
z
" clip-path="url(#pb0995280d0)" style="fill: #1f77b4"/>
   </g>
   <g id="patch_10">
    <path d="M 105.9185 275.518125 
L 110.5265 275.518125 
L 110.5265 275.518125 
L 105.9185 275.518125 
z
" clip-path="url(#pb0995280d0)" style="fill: #1f77b4"/>
   </g>
   <g id="patch_11">
    <path d="M 110.5265 275.518125 
L 115.1345 275.518125 
L 115.1345 275.518125 
L 110.5265 275.518125 
z
" clip-path="url(#pb0995280d0)" style="fill: #1f77b4"/>
   </g>
   <g id="patch_12">
    <path d="M 115.1345 275.518125 
L 119.7425 275.518125 
L 119.7425 275.518125 
L 115.1345 275.518125 
z
" clip-path="url(#pb0995280d0)" style="fill: #1f77b4"/>
   </g>
   <g id="patch_13">
    <path d="M 119.7425 275.518125 
L 124.3505 275.518125 
L 124.3505 275.390879 
L 119.7425 275.390879 
z
" clip-path="url(#pb0995280d0)" style="fill: #1f77b4"/>
   </g>
   <g id="patch_14">
    <path d="M 124.3505 275.518125 
L 128.9585 275.518125 
L 128.9585 275.47571 
L 124.3505 275.47571 
z
" clip-path="url(#pb0995280d0)" style="fill: #1f77b4"/>
   </g>
   <g id="patch_15">
    <path d="M 128.9585 275.518125 
L 133.5665 275.518125 
L 133.5665 275.348464 
L 128.9585 275.348464 
z
" clip-path="url(#pb0995280d0)" style="fill: #1f77b4"/>
   </g>
   <g id="patch_16">
    <path d="M 133.5665 275.518125 
L 138.1745 275.518125 
L 138.1745 275.221218 
L 133.5665 275.221218 
z
" clip-path="url(#pb0995280d0)" style="fill: #1f77b4"/>
   </g>
   <g id="patch_17">
    <path d="M 138.1745 275.518125 
L 142.7825 275.518125 
L 142.7825 275.009141 
L 138.1745 275.009141 
z
" clip-path="url(#pb0995280d0)" style="fill: #1f77b4"/>
   </g>
   <g id="patch_18">
    <path d="M 142.7825 275.518125 
L 147.3905 275.518125 
L 147.3905 275.051557 
L 142.7825 275.051557 
z
" clip-path="url(#pb0995280d0)" style="fill: #1f77b4"/>
   </g>
   <g id="patch_19">
    <path d="M 147.3905 275.518125 
L 151.9985 275.518125 
L 151.9985 274.457742 
L 147.3905 274.457742 
z
" clip-path="url(#pb0995280d0)" style="fill: #1f77b4"/>
   </g>
   <g id="patch_20">
    <path d="M 151.9985 275.518125 
L 156.6065 275.518125 
L 156.6065 273.56702 
L 151.9985 273.56702 
z
" clip-path="url(#pb0995280d0)" style="fill: #1f77b4"/>
   </g>
   <g id="patch_21">
    <path d="M 156.6065 275.518125 
L 161.2145 275.518125 
L 161.2145 271.997654 
L 156.6065 271.997654 
z
" clip-path="url(#pb0995280d0)" style="fill: #1f77b4"/>
   </g>
   <g id="patch_22">
    <path d="M 161.2145 275.518125 
L 165.8225 275.518125 
L 165.8225 270.76761 
L 161.2145 270.76761 
z
" clip-path="url(#pb0995280d0)" style="fill: #1f77b4"/>
   </g>
   <g id="patch_23">
    <path d="M 165.8225 275.518125 
L 170.4305 275.518125 
L 170.4305 267.50163 
L 165.8225 267.50163 
z
" clip-path="url(#pb0995280d0)" style="fill: #1f77b4"/>
   </g>
   <g id="patch_24">
    <path d="M 170.4305 275.518125 
L 175.0385 275.518125 
L 175.0385 263.472175 
L 170.4305 263.472175 
z
" clip-path="url(#pb0995280d0)" style="fill: #1f77b4"/>
   </g>
   <g id="patch_25">
    <path d="M 175.0385 275.518125 
L 179.6465 275.518125 
L 179.6465 258.339922 
L 175.0385 258.339922 
z
" clip-path="url(#pb0995280d0)" style="fill: #1f77b4"/>
   </g>
   <g id="patch_26">
    <path d="M 179.6465 275.518125 
L 184.2545 275.518125 
L 184.2545 256.346402 
L 179.6465 256.346402 
z
" clip-path="url(#pb0995280d0)" style="fill: #1f77b4"/>
   </g>
   <g id="patch_27">
    <path d="M 184.2545 275.518125 
L 188.8625 275.518125 
L 188.8625 252.10487 
L 184.2545 252.10487 
z
" clip-path="url(#pb0995280d0)" style="fill: #1f77b4"/>
   </g>
   <g id="patch_28">
    <path d="M 188.8625 275.518125 
L 193.4705 275.518125 
L 193.4705 238.022985 
L 188.8625 238.022985 
z
" clip-path="url(#pb0995280d0)" style="fill: #1f77b4"/>
   </g>
   <g id="patch_29">
    <path d="M 193.4705 275.518125 
L 198.0785 275.518125 
L 198.0785 248.329907 
L 193.4705 248.329907 
z
" clip-path="url(#pb0995280d0)" style="fill: #1f77b4"/>
   </g>
   <g id="patch_30">
    <path d="M 198.0785 275.518125 
L 202.6865 275.518125 
L 202.6865 239.210614 
L 198.0785 239.210614 
z
" clip-path="url(#pb0995280d0)" style="fill: #1f77b4"/>
   </g>
   <g id="patch_31">
    <path d="M 202.6865 275.518125 
L 207.2945 275.518125 
L 207.2945 249.729612 
L 202.6865 249.729612 
z
" clip-path="url(#pb0995280d0)" style="fill: #1f77b4"/>
   </g>
   <g id="patch_32">
    <path d="M 207.2945 275.518125 
L 211.9025 275.518125 
L 211.9025 250.11135 
L 207.2945 250.11135 
z
" clip-path="url(#pb0995280d0)" style="fill: #1f77b4"/>
   </g>
   <g id="patch_33">
    <path d="M 211.9025 275.518125 
L 216.5105 275.518125 
L 216.5105 264.956711 
L 211.9025 264.956711 
z
" clip-path="url(#pb0995280d0)" style="fill: #1f77b4"/>
   </g>
   <g id="patch_34">
    <path d="M 216.5105 275.518125 
L 221.1185 275.518125 
L 221.1185 262.030054 
L 216.5105 262.030054 
z
" clip-path="url(#pb0995280d0)" style="fill: #1f77b4"/>
   </g>
   <g id="patch_35">
    <path d="M 221.1185 275.518125 
L 225.7265 275.518125 
L 225.7265 259.145813 
L 221.1185 259.145813 
z
" clip-path="url(#pb0995280d0)" style="fill: #1f77b4"/>
   </g>
   <g id="patch_36">
    <path d="M 225.7265 275.518125 
L 230.3345 275.518125 
L 230.3345 257.067462 
L 225.7265 257.067462 
z
" clip-path="url(#pb0995280d0)" style="fill: #1f77b4"/>
   </g>
   <g id="patch_37">
    <path d="M 230.3345 275.518125 
L 234.9425 275.518125 
L 234.9425 255.540511 
L 230.3345 255.540511 
z
" clip-path="url(#pb0995280d0)" style="fill: #1f77b4"/>
   </g>
   <g id="patch_38">
    <path d="M 234.9425 275.518125 
L 239.5505 275.518125 
L 239.5505 250.493088 
L 234.9425 250.493088 
z
" clip-path="url(#pb0995280d0)" style="fill: #1f77b4"/>
   </g>
   <g id="patch_39">
    <path d="M 239.5505 275.518125 
L 244.1585 275.518125 
L 244.1585 262.454207 
L 239.5505 262.454207 
z
" clip-path="url(#pb0995280d0)" style="fill: #1f77b4"/>
   </g>
   <g id="patch_40">
    <path d="M 244.1585 275.518125 
L 248.7665 275.518125 
L 248.7665 235.647727 
L 244.1585 235.647727 
z
" clip-path="url(#pb0995280d0)" style="fill: #1f77b4"/>
   </g>
   <g id="patch_41">
    <path d="M 248.7665 275.518125 
L 253.3745 275.518125 
L 253.3745 266.101925 
L 248.7665 266.101925 
z
" clip-path="url(#pb0995280d0)" style="fill: #1f77b4"/>
   </g>
   <g id="patch_42">
    <path d="M 253.3745 275.518125 
L 257.9825 275.518125 
L 257.9825 250.408258 
L 253.3745 250.408258 
z
" clip-path="url(#pb0995280d0)" style="fill: #1f77b4"/>
   </g>
   <g id="patch_43">
    <path d="M 257.9825 275.518125 
L 262.5905 275.518125 
L 262.5905 249.602367 
L 257.9825 249.602367 
z
" clip-path="url(#pb0995280d0)" style="fill: #1f77b4"/>
   </g>
   <g id="patch_44">
    <path d="M 262.5905 275.518125 
L 267.1985 275.518125 
L 267.1985 261.054502 
L 262.5905 261.054502 
z
" clip-path="url(#pb0995280d0)" style="fill: #1f77b4"/>
   </g>
   <g id="patch_45">
    <path d="M 267.1985 275.518125 
L 271.8065 275.518125 
L 271.8065 255.964664 
L 267.1985 255.964664 
z
" clip-path="url(#pb0995280d0)" style="fill: #1f77b4"/>
   </g>
   <g id="patch_46">
    <path d="M 271.8065 275.518125 
L 276.4145 275.518125 
L 276.4145 236.835356 
L 271.8065 236.835356 
z
" clip-path="url(#pb0995280d0)" style="fill: #1f77b4"/>
   </g>
   <g id="patch_47">
    <path d="M 276.4145 275.518125 
L 281.0225 275.518125 
L 281.0225 258.933736 
L 276.4145 258.933736 
z
" clip-path="url(#pb0995280d0)" style="fill: #1f77b4"/>
   </g>
   <g id="patch_48">
    <path d="M 281.0225 275.518125 
L 285.6305 275.518125 
L 285.6305 226.146696 
L 281.0225 226.146696 
z
" clip-path="url(#pb0995280d0)" style="fill: #1f77b4"/>
   </g>
   <g id="patch_49">
    <path d="M 285.6305 275.518125 
L 290.2385 275.518125 
L 290.2385 257.746107 
L 285.6305 257.746107 
z
" clip-path="url(#pb0995280d0)" style="fill: #1f77b4"/>
   </g>
   <g id="patch_50">
    <path d="M 290.2385 275.518125 
L 294.8465 275.518125 
L 294.8465 235.859804 
L 290.2385 235.859804 
z
" clip-path="url(#pb0995280d0)" style="fill: #1f77b4"/>
   </g>
   <g id="patch_51">
    <path d="M 294.8465 275.518125 
L 299.4545 275.518125 
L 299.4545 258.594414 
L 294.8465 258.594414 
z
" clip-path="url(#pb0995280d0)" style="fill: #1f77b4"/>
   </g>
   <g id="patch_52">
    <path d="M 299.4545 275.518125 
L 304.0625 275.518125 
L 304.0625 245.360835 
L 299.4545 245.360835 
z
" clip-path="url(#pb0995280d0)" style="fill: #1f77b4"/>
   </g>
   <g id="patch_53">
    <path d="M 304.0625 275.518125 
L 308.6705 275.518125 
L 308.6705 263.981159 
L 304.0625 263.981159 
z
" clip-path="url(#pb0995280d0)" style="fill: #1f77b4"/>
   </g>
   <g id="patch_54">
    <path d="M 308.6705 275.518125 
L 313.2785 275.518125 
L 313.2785 260.927256 
L 308.6705 260.927256 
z
" clip-path="url(#pb0995280d0)" style="fill: #1f77b4"/>
   </g>
   <g id="patch_55">
    <path d="M 313.2785 275.518125 
L 317.8865 275.518125 
L 317.8865 265.974679 
L 313.2785 265.974679 
z
" clip-path="url(#pb0995280d0)" style="fill: #1f77b4"/>
   </g>
   <g id="patch_56">
    <path d="M 317.8865 275.518125 
L 322.4945 275.518125 
L 322.4945 270.513118 
L 317.8865 270.513118 
z
" clip-path="url(#pb0995280d0)" style="fill: #1f77b4"/>
   </g>
   <g id="patch_57">
    <path d="M 322.4945 275.518125 
L 327.1025 275.518125 
L 327.1025 269.240658 
L 322.4945 269.240658 
z
" clip-path="url(#pb0995280d0)" style="fill: #1f77b4"/>
   </g>
   <g id="patch_58">
    <path d="M 327.1025 275.518125 
L 331.7105 275.518125 
L 331.7105 273.185283 
L 327.1025 273.185283 
z
" clip-path="url(#pb0995280d0)" style="fill: #1f77b4"/>
   </g>
   <g id="patch_59">
    <path d="M 331.7105 275.518125 
L 336.3185 275.518125 
L 336.3185 272.888375 
L 331.7105 272.888375 
z
" clip-path="url(#pb0995280d0)" style="fill: #1f77b4"/>
   </g>
   <g id="patch_60">
    <path d="M 336.3185 275.518125 
L 340.9265 275.518125 
L 340.9265 275.093972 
L 336.3185 275.093972 
z
" clip-path="url(#pb0995280d0)" style="fill: #1f77b4"/>
   </g>
   <g id="patch_61">
    <path d="M 340.9265 275.518125 
L 345.5345 275.518125 
L 345.5345 274.076004 
L 340.9265 274.076004 
z
" clip-path="url(#pb0995280d0)" style="fill: #1f77b4"/>
   </g>
   <g id="patch_62">
    <path d="M 345.5345 275.518125 
L 350.1425 275.518125 
L 350.1425 275.263633 
L 345.5345 275.263633 
z
" clip-path="url(#pb0995280d0)" style="fill: #1f77b4"/>
   </g>
   <g id="patch_63">
    <path d="M 350.1425 275.518125 
L 354.7505 275.518125 
L 354.7505 275.136387 
L 350.1425 275.136387 
z
" clip-path="url(#pb0995280d0)" style="fill: #1f77b4"/>
   </g>
   <g id="patch_64">
    <path d="M 354.7505 275.518125 
L 359.3585 275.518125 
L 359.3585 275.518125 
L 354.7505 275.518125 
z
" clip-path="url(#pb0995280d0)" style="fill: #1f77b4"/>
   </g>
   <g id="patch_65">
    <path d="M 359.3585 275.518125 
L 363.9665 275.518125 
L 363.9665 275.518125 
L 359.3585 275.518125 
z
" clip-path="url(#pb0995280d0)" style="fill: #1f77b4"/>
   </g>
   <g id="patch_66">
    <path d="M 363.9665 275.518125 
L 368.5745 275.518125 
L 368.5745 275.518125 
L 363.9665 275.518125 
z
" clip-path="url(#pb0995280d0)" style="fill: #1f77b4"/>
   </g>
   <g id="patch_67">
    <path d="M 368.5745 275.518125 
L 373.1825 275.518125 
L 373.1825 275.390879 
L 368.5745 275.390879 
z
" clip-path="url(#pb0995280d0)" style="fill: #1f77b4"/>
   </g>
   <g id="patch_68">
    <path d="M 373.1825 275.518125 
L 377.7905 275.518125 
L 377.7905 275.47571 
L 373.1825 275.47571 
z
" clip-path="url(#pb0995280d0)" style="fill: #1f77b4"/>
   </g>
   <g id="patch_69">
    <path d="M 377.7905 275.518125 
L 382.3985 275.518125 
L 382.3985 275.518125 
L 377.7905 275.518125 
z
" clip-path="url(#pb0995280d0)" style="fill: #1f77b4"/>
   </g>
   <g id="patch_70">
    <path d="M 382.3985 275.518125 
L 387.0065 275.518125 
L 387.0065 275.47571 
L 382.3985 275.47571 
z
" clip-path="url(#pb0995280d0)" style="fill: #1f77b4"/>
   </g>
   <g id="patch_71">
    <path d="M 387.0065 275.518125 
L 391.6145 275.518125 
L 391.6145 275.47571 
L 387.0065 275.47571 
z
" clip-path="url(#pb0995280d0)" style="fill: #1f77b4"/>
   </g>
   <g id="matplotlib.axis_3">
    <g id="xtick_4">
     <g id="line2d_8">
      <g>
       <use xlink:href="#maf312c4ca3" x="154.3025" y="275.518125" style="stroke: #000000; stroke-width: 0.8"/>
      </g>
     </g>
     <g id="text_8">
      <!-- −2 -->
      <g transform="translate(135.8975 300.754375) scale(0.24 -0.24)">
       <use xlink:href="#DejaVuSans-Bold-2212"/>
       <use xlink:href="#DejaVuSans-Bold-32" transform="translate(83.789062 0)"/>
      </g>
     </g>
    </g>
    <g id="xtick_5">
     <g id="line2d_9">
      <g>
       <use xlink:href="#maf312c4ca3" x="246.4625" y="275.518125" style="stroke: #000000; stroke-width: 0.8"/>
      </g>
     </g>
     <g id="text_9">
      <!-- 0 -->
      <g transform="translate(238.113125 300.754375) scale(0.24 -0.24)">
       <use xlink:href="#DejaVuSans-Bold-30"/>
      </g>
     </g>
    </g>
    <g id="xtick_6">
     <g id="line2d_10">
      <g>
       <use xlink:href="#maf312c4ca3" x="338.6225" y="275.518125" style="stroke: #000000; stroke-width: 0.8"/>
      </g>
     </g>
     <g id="text_10">
      <!-- 2 -->
      <g transform="translate(330.273125 300.754375) scale(0.24 -0.24)">
       <use xlink:href="#DejaVuSans-Bold-32"/>
      </g>
     </g>
    </g>
    <g id="text_11">
     <!-- Evidence for target A (LLR) -->
     <g transform="translate(62.70875 327.981875) scale(0.24 -0.24)">
      <defs>
       <path id="DejaVuSans-Bold-45" d="M 588 4666 
L 3834 4666 
L 3834 3756 
L 1791 3756 
L 1791 2888 
L 3713 2888 
L 3713 1978 
L 1791 1978 
L 1791 909 
L 3903 909 
L 3903 0 
L 588 0 
L 588 4666 
z
" transform="scale(0.015625)"/>
       <path id="DejaVuSans-Bold-76" d="M 97 3500 
L 1216 3500 
L 2088 1081 
L 2956 3500 
L 4078 3500 
L 2700 0 
L 1472 0 
L 97 3500 
z
" transform="scale(0.015625)"/>
       <path id="DejaVuSans-Bold-64" d="M 2919 2988 
L 2919 4863 
L 4044 4863 
L 4044 0 
L 2919 0 
L 2919 506 
Q 2688 197 2409 53 
Q 2131 -91 1766 -91 
Q 1119 -91 703 423 
Q 288 938 288 1747 
Q 288 2556 703 3070 
Q 1119 3584 1766 3584 
Q 2128 3584 2408 3439 
Q 2688 3294 2919 2988 
z
M 2181 722 
Q 2541 722 2730 984 
Q 2919 1247 2919 1747 
Q 2919 2247 2730 2509 
Q 2541 2772 2181 2772 
Q 1825 2772 1636 2509 
Q 1447 2247 1447 1747 
Q 1447 1247 1636 984 
Q 1825 722 2181 722 
z
" transform="scale(0.015625)"/>
       <path id="DejaVuSans-Bold-61" d="M 2106 1575 
Q 1756 1575 1579 1456 
Q 1403 1338 1403 1106 
Q 1403 894 1545 773 
Q 1688 653 1941 653 
Q 2256 653 2472 879 
Q 2688 1106 2688 1447 
L 2688 1575 
L 2106 1575 
z
M 3816 1997 
L 3816 0 
L 2688 0 
L 2688 519 
Q 2463 200 2181 54 
Q 1900 -91 1497 -91 
Q 953 -91 614 226 
Q 275 544 275 1050 
Q 275 1666 698 1953 
Q 1122 2241 2028 2241 
L 2688 2241 
L 2688 2328 
Q 2688 2594 2478 2717 
Q 2269 2841 1825 2841 
Q 1466 2841 1156 2769 
Q 847 2697 581 2553 
L 581 3406 
Q 941 3494 1303 3539 
Q 1666 3584 2028 3584 
Q 2975 3584 3395 3211 
Q 3816 2838 3816 1997 
z
" transform="scale(0.015625)"/>
       <path id="DejaVuSans-Bold-67" d="M 2919 594 
Q 2688 288 2409 144 
Q 2131 0 1766 0 
Q 1125 0 706 504 
Q 288 1009 288 1791 
Q 288 2575 706 3076 
Q 1125 3578 1766 3578 
Q 2131 3578 2409 3434 
Q 2688 3291 2919 2981 
L 2919 3500 
L 4044 3500 
L 4044 353 
Q 4044 -491 3511 -936 
Q 2978 -1381 1966 -1381 
Q 1638 -1381 1331 -1331 
Q 1025 -1281 716 -1178 
L 716 -306 
Q 1009 -475 1290 -558 
Q 1572 -641 1856 -641 
Q 2406 -641 2662 -400 
Q 2919 -159 2919 353 
L 2919 594 
z
M 2181 2772 
Q 1834 2772 1640 2515 
Q 1447 2259 1447 1791 
Q 1447 1309 1634 1061 
Q 1822 813 2181 813 
Q 2531 813 2725 1069 
Q 2919 1325 2919 1791 
Q 2919 2259 2725 2515 
Q 2531 2772 2181 2772 
z
" transform="scale(0.015625)"/>
       <path id="DejaVuSans-Bold-28" d="M 2413 -844 
L 1484 -844 
Q 1006 -72 778 623 
Q 550 1319 550 2003 
Q 550 2688 779 3389 
Q 1009 4091 1484 4856 
L 2413 4856 
Q 2013 4116 1813 3408 
Q 1613 2700 1613 2009 
Q 1613 1319 1811 609 
Q 2009 -100 2413 -844 
z
" transform="scale(0.015625)"/>
       <path id="DejaVuSans-Bold-4c" d="M 588 4666 
L 1791 4666 
L 1791 909 
L 3903 909 
L 3903 0 
L 588 0 
L 588 4666 
z
" transform="scale(0.015625)"/>
       <path id="DejaVuSans-Bold-52" d="M 2297 2597 
Q 2675 2597 2839 2737 
Q 3003 2878 3003 3200 
Q 3003 3519 2839 3656 
Q 2675 3794 2297 3794 
L 1791 3794 
L 1791 2597 
L 2297 2597 
z
M 1791 1766 
L 1791 0 
L 588 0 
L 588 4666 
L 2425 4666 
Q 3347 4666 3776 4356 
Q 4206 4047 4206 3378 
Q 4206 2916 3982 2619 
Q 3759 2322 3309 2181 
Q 3556 2125 3751 1926 
Q 3947 1728 4147 1325 
L 4800 0 
L 3519 0 
L 2950 1159 
Q 2778 1509 2601 1637 
Q 2425 1766 2131 1766 
L 1791 1766 
z
" transform="scale(0.015625)"/>
       <path id="DejaVuSans-Bold-29" d="M 513 -844 
Q 913 -100 1113 609 
Q 1313 1319 1313 2009 
Q 1313 2700 1113 3408 
Q 913 4116 513 4856 
L 1441 4856 
Q 1916 4091 2145 3389 
Q 2375 2688 2375 2003 
Q 2375 1319 2147 623 
Q 1919 -72 1441 -844 
L 513 -844 
z
" transform="scale(0.015625)"/>
      </defs>
      <use xlink:href="#DejaVuSans-Bold-45"/>
      <use xlink:href="#DejaVuSans-Bold-76" transform="translate(68.310547 0)"/>
      <use xlink:href="#DejaVuSans-Bold-69" transform="translate(133.496094 0)"/>
      <use xlink:href="#DejaVuSans-Bold-64" transform="translate(167.773438 0)"/>
      <use xlink:href="#DejaVuSans-Bold-65" transform="translate(239.355469 0)"/>
      <use xlink:href="#DejaVuSans-Bold-6e" transform="translate(307.177734 0)"/>
      <use xlink:href="#DejaVuSans-Bold-63" transform="translate(378.369141 0)"/>
      <use xlink:href="#DejaVuSans-Bold-65" transform="translate(437.646484 0)"/>
      <use xlink:href="#DejaVuSans-Bold-20" transform="translate(505.46875 0)"/>
      <use xlink:href="#DejaVuSans-Bold-66" transform="translate(540.283203 0)"/>
      <use xlink:href="#DejaVuSans-Bold-6f" transform="translate(583.789062 0)"/>
      <use xlink:href="#DejaVuSans-Bold-72" transform="translate(652.490234 0)"/>
      <use xlink:href="#DejaVuSans-Bold-20" transform="translate(701.806641 0)"/>
      <use xlink:href="#DejaVuSans-Bold-74" transform="translate(736.621094 0)"/>
      <use xlink:href="#DejaVuSans-Bold-61" transform="translate(784.423828 0)"/>
      <use xlink:href="#DejaVuSans-Bold-72" transform="translate(851.904297 0)"/>
      <use xlink:href="#DejaVuSans-Bold-67" transform="translate(901.220703 0)"/>
      <use xlink:href="#DejaVuSans-Bold-65" transform="translate(972.802734 0)"/>
      <use xlink:href="#DejaVuSans-Bold-74" transform="translate(1040.625 0)"/>
      <use xlink:href="#DejaVuSans-Bold-20" transform="translate(1088.427734 0)"/>
      <use xlink:href="#DejaVuSans-Bold-41" transform="translate(1123.242188 0)"/>
      <use xlink:href="#DejaVuSans-Bold-20" transform="translate(1200.634766 0)"/>
      <use xlink:href="#DejaVuSans-Bold-28" transform="translate(1235.449219 0)"/>
      <use xlink:href="#DejaVuSans-Bold-4c" transform="translate(1281.152344 0)"/>
      <use xlink:href="#DejaVuSans-Bold-4c" transform="translate(1344.873047 0)"/>
      <use xlink:href="#DejaVuSans-Bold-52" transform="translate(1408.59375 0)"/>
      <use xlink:href="#DejaVuSans-Bold-29" transform="translate(1485.595703 0)"/>
     </g>
    </g>
   </g>
   <g id="matplotlib.axis_4">
    <g id="ytick_4">
     <g id="line2d_11">
      <g>
       <use xlink:href="#m162e8a2f51" x="108.2225" y="275.518125" style="stroke: #000000; stroke-width: 0.8"/>
      </g>
     </g>
     <g id="text_12">
      <!-- 0 -->
      <g transform="translate(84.52375 284.63625) scale(0.24 -0.24)">
       <use xlink:href="#DejaVuSans-Bold-30"/>
      </g>
     </g>
    </g>
    <g id="ytick_5">
     <g id="line2d_12">
      <g>
       <use xlink:href="#m162e8a2f51" x="108.2225" y="233.102808" style="stroke: #000000; stroke-width: 0.8"/>
      </g>
     </g>
     <g id="text_13">
      <!-- 1000 -->
      <g transform="translate(34.4275 242.220933) scale(0.24 -0.24)">
       <use xlink:href="#DejaVuSans-Bold-31"/>
       <use xlink:href="#DejaVuSans-Bold-30" transform="translate(69.580078 0)"/>
       <use xlink:href="#DejaVuSans-Bold-30" transform="translate(139.160156 0)"/>
       <use xlink:href="#DejaVuSans-Bold-30" transform="translate(208.740234 0)"/>
      </g>
     </g>
    </g>
    <g id="text_14">
     <!-- Trial count -->
     <g transform="translate(25.43625 321.06375) rotate(-90) scale(0.24 -0.24)">
      <defs>
       <path id="DejaVuSans-Bold-54" d="M 31 4666 
L 4331 4666 
L 4331 3756 
L 2784 3756 
L 2784 0 
L 1581 0 
L 1581 3756 
L 31 3756 
L 31 4666 
z
" transform="scale(0.015625)"/>
       <path id="DejaVuSans-Bold-6c" d="M 538 4863 
L 1656 4863 
L 1656 0 
L 538 0 
L 538 4863 
z
" transform="scale(0.015625)"/>
       <path id="DejaVuSans-Bold-75" d="M 500 1363 
L 500 3500 
L 1625 3500 
L 1625 3150 
Q 1625 2866 1622 2436 
Q 1619 2006 1619 1863 
Q 1619 1441 1641 1255 
Q 1663 1069 1716 984 
Q 1784 875 1895 815 
Q 2006 756 2150 756 
Q 2500 756 2700 1025 
Q 2900 1294 2900 1772 
L 2900 3500 
L 4019 3500 
L 4019 0 
L 2900 0 
L 2900 506 
Q 2647 200 2364 54 
Q 2081 -91 1741 -91 
Q 1134 -91 817 281 
Q 500 653 500 1363 
z
" transform="scale(0.015625)"/>
      </defs>
      <use xlink:href="#DejaVuSans-Bold-54"/>
      <use xlink:href="#DejaVuSans-Bold-72" transform="translate(57.212891 0)"/>
      <use xlink:href="#DejaVuSans-Bold-69" transform="translate(106.529297 0)"/>
      <use xlink:href="#DejaVuSans-Bold-61" transform="translate(140.806641 0)"/>
      <use xlink:href="#DejaVuSans-Bold-6c" transform="translate(208.287109 0)"/>
      <use xlink:href="#DejaVuSans-Bold-20" transform="translate(242.564453 0)"/>
      <use xlink:href="#DejaVuSans-Bold-63" transform="translate(277.378906 0)"/>
      <use xlink:href="#DejaVuSans-Bold-6f" transform="translate(336.65625 0)"/>
      <use xlink:href="#DejaVuSans-Bold-75" transform="translate(405.357422 0)"/>
      <use xlink:href="#DejaVuSans-Bold-6e" transform="translate(476.548828 0)"/>
      <use xlink:href="#DejaVuSans-Bold-74" transform="translate(547.740234 0)"/>
     </g>
    </g>
   </g>
   <g id="patch_72">
    <path d="M 108.2225 275.518125 
L 108.2225 223.678125 
" style="fill: none; stroke: #000000; stroke-width: 0.8; stroke-linejoin: miter; stroke-linecap: square"/>
   </g>
   <g id="patch_73">
    <path d="M 108.2225 275.518125 
L 384.7025 275.518125 
" style="fill: none; stroke: #000000; stroke-width: 0.8; stroke-linejoin: miter; stroke-linecap: square"/>
   </g>
  </g>
 </g>
 <defs>
  <clipPath id="pb90b290fde">
   <rect x="108.2225" y="16.318125" width="276.48" height="172.8"/>
  </clipPath>
  <clipPath id="pb0995280d0">
   <rect x="108.2225" y="223.678125" width="276.48" height="51.84"/>
  </clipPath>
 </defs>
</svg>
