<?xml version="1.0" encoding="utf-8" standalone="no"?>
<!DOCTYPE svg PUBLIC "-//W3C//DTD SVG 1.1//EN"
  "http://www.w3.org/Graphics/SVG/1.1/DTD/svg11.dtd">
<svg xmlns:xlink="http://www.w3.org/1999/xlink" width="436.965625pt" height="319.857625pt" viewBox="0 0 436.965625 319.857625" xmlns="http://www.w3.org/2000/svg" version="1.1">
 <metadata>
  <rdf:RDF xmlns:dc="http://purl.org/dc/elements/1.1/" xmlns:cc="http://creativecommons.org/ns#" xmlns:rdf="http://www.w3.org/1999/02/22-rdf-syntax-ns#">
   <cc:Work>
    <dc:type rdf:resource="http://purl.org/dc/dcmitype/StillImage"/>
    <dc:date>2026-03-06T14:41:19.594836</dc:date>
    <dc:format>image/svg+xml</dc:format>
    <dc:creator>
     <cc:Agent>
      <dc:title>Matplotlib v3.10.0, https://matplotlib.org/</dc:title>
     </cc:Agent>
    </dc:creator>
   </cc:Work>
  </rdf:RDF>
 </metadata>
 <defs>
  <style type="text/css">*{stroke-linejoin: round; stroke-linecap: butt}</style>
 </defs>
 <g id="figure_1">
  <g id="patch_1">
   <path d="M 0 319.857625 
L 436.965625 319.857625 
L 436.965625 0 
L 0 0 
z
" style="fill: #ffffff"/>
  </g>
  <g id="axes_1">
   <g id="patch_2">
    <path d="M 64.29625 282.430125 
L 421.41625 282.430125 
L 421.41625 16.318125 
L 64.29625 16.318125 
z
" style="fill: #ffffff"/>
   </g>
   <g id="patch_3">
    <path d="M 63.70105 282.430125 
L 64.89145 282.430125 
L 64.89145 281.986605 
L 63.70105 281.986605 
z
" clip-path="url(#p6869d43ca8)"/>
   </g>
   <g id="patch_4">
    <path d="M 64.89145 282.430125 
L 66.08185 282.430125 
L 66.08185 278.438445 
L 64.89145 278.438445 
z
" clip-path="url(#p6869d43ca8)"/>
   </g>
   <g id="patch_5">
    <path d="M 66.08185 282.430125 
L 67.27225 282.430125 
L 67.27225 277.551405 
L 66.08185 277.551405 
z
" clip-path="url(#p6869d43ca8)"/>
   </g>
   <g id="patch_6">
    <path d="M 67.27225 282.430125 
L 68.46265 282.430125 
L 68.46265 275.777325 
L 67.27225 275.777325 
z
" clip-path="url(#p6869d43ca8)"/>
   </g>
   <g id="patch_7">
    <path d="M 68.46265 282.430125 
L 69.65305 282.430125 
L 69.65305 277.107885 
L 68.46265 277.107885 
z
" clip-path="url(#p6869d43ca8)"/>
   </g>
   <g id="patch_8">
    <path d="M 69.65305 282.430125 
L 70.84345 282.430125 
L 70.84345 275.777325 
L 69.65305 275.777325 
z
" clip-path="url(#p6869d43ca8)"/>
   </g>
   <g id="patch_9">
    <path d="M 70.84345 282.430125 
L 72.03385 282.430125 
L 72.03385 274.890285 
L 70.84345 274.890285 
z
" clip-path="url(#p6869d43ca8)"/>
   </g>
   <g id="patch_10">
    <path d="M 72.03385 282.430125 
L 73.22425 282.430125 
L 73.22425 279.325485 
L 72.03385 279.325485 
z
" clip-path="url(#p6869d43ca8)"/>
   </g>
   <g id="patch_11">
    <path d="M 73.22425 282.430125 
L 74.41465 282.430125 
L 74.41465 281.543085 
L 73.22425 281.543085 
z
" clip-path="url(#p6869d43ca8)"/>
   </g>
   <g id="patch_12">
    <path d="M 74.41465 282.430125 
L 75.60505 282.430125 
L 75.60505 281.986605 
L 74.41465 281.986605 
z
" clip-path="url(#p6869d43ca8)"/>
   </g>
   <g id="patch_13">
    <path d="M 75.60505 282.430125 
L 76.79545 282.430125 
L 76.79545 281.099565 
L 75.60505 281.099565 
z
" clip-path="url(#p6869d43ca8)"/>
   </g>
   <g id="patch_14">
    <path d="M 76.79545 282.430125 
L 77.98585 282.430125 
L 77.98585 279.769005 
L 76.79545 279.769005 
z
" clip-path="url(#p6869d43ca8)"/>
   </g>
   <g id="patch_15">
    <path d="M 77.98585 282.430125 
L 79.17625 282.430125 
L 79.17625 281.099565 
L 77.98585 281.099565 
z
" clip-path="url(#p6869d43ca8)"/>
   </g>
   <g id="patch_16">
    <path d="M 79.17625 282.430125 
L 80.36665 282.430125 
L 80.36665 280.656045 
L 79.17625 280.656045 
z
" clip-path="url(#p6869d43ca8)"/>
   </g>
   <g id="patch_17">
    <path d="M 80.36665 282.430125 
L 81.55705 282.430125 
L 81.55705 280.656045 
L 80.36665 280.656045 
z
" clip-path="url(#p6869d43ca8)"/>
   </g>
   <g id="patch_18">
    <path d="M 81.55705 282.430125 
L 82.74745 282.430125 
L 82.74745 279.769005 
L 81.55705 279.769005 
z
" clip-path="url(#p6869d43ca8)"/>
   </g>
   <g id="patch_19">
    <path d="M 82.74745 282.430125 
L 83.93785 282.430125 
L 83.93785 277.994925 
L 82.74745 277.994925 
z
" clip-path="url(#p6869d43ca8)"/>
   </g>
   <g id="patch_20">
    <path d="M 83.93785 282.430125 
L 85.12825 282.430125 
L 85.12825 275.333805 
L 83.93785 275.333805 
z
" clip-path="url(#p6869d43ca8)"/>
   </g>
   <g id="patch_21">
    <path d="M 85.12825 282.430125 
L 86.31865 282.430125 
L 86.31865 275.333805 
L 85.12825 275.333805 
z
" clip-path="url(#p6869d43ca8)"/>
   </g>
   <g id="patch_22">
    <path d="M 86.31865 282.430125 
L 87.50905 282.430125 
L 87.50905 270.898605 
L 86.31865 270.898605 
z
" clip-path="url(#p6869d43ca8)"/>
   </g>
   <g id="patch_23">
    <path d="M 87.50905 282.430125 
L 88.69945 282.430125 
L 88.69945 272.672685 
L 87.50905 272.672685 
z
" clip-path="url(#p6869d43ca8)"/>
   </g>
   <g id="patch_24">
    <path d="M 88.69945 282.430125 
L 89.88985 282.430125 
L 89.88985 266.463405 
L 88.69945 266.463405 
z
" clip-path="url(#p6869d43ca8)"/>
   </g>
   <g id="patch_25">
    <path d="M 89.88985 282.430125 
L 91.08025 282.430125 
L 91.08025 266.906925 
L 89.88985 266.906925 
z
" clip-path="url(#p6869d43ca8)"/>
   </g>
   <g id="patch_26">
    <path d="M 91.08025 282.430125 
L 92.27065 282.430125 
L 92.27065 259.367085 
L 91.08025 259.367085 
z
" clip-path="url(#p6869d43ca8)"/>
   </g>
   <g id="patch_27">
    <path d="M 92.27065 282.430125 
L 93.46105 282.430125 
L 93.46105 252.270765 
L 92.27065 252.270765 
z
" clip-path="url(#p6869d43ca8)"/>
   </g>
   <g id="patch_28">
    <path d="M 93.46105 282.430125 
L 94.65145 282.430125 
L 94.65145 234.973485 
L 93.46105 234.973485 
z
" clip-path="url(#p6869d43ca8)"/>
   </g>
   <g id="patch_29">
    <path d="M 94.65145 282.430125 
L 95.84185 282.430125 
L 95.84185 222.998445 
L 94.65145 222.998445 
z
" clip-path="url(#p6869d43ca8)"/>
   </g>
   <g id="patch_30">
    <path d="M 95.84185 282.430125 
L 97.03225 282.430125 
L 97.03225 219.450285 
L 95.84185 219.450285 
z
" clip-path="url(#p6869d43ca8)"/>
   </g>
   <g id="patch_31">
    <path d="M 97.03225 282.430125 
L 98.22265 282.430125 
L 98.22265 226.990125 
L 97.03225 226.990125 
z
" clip-path="url(#p6869d43ca8)"/>
   </g>
   <g id="patch_32">
    <path d="M 98.22265 282.430125 
L 99.41305 282.430125 
L 99.41305 220.780845 
L 98.22265 220.780845 
z
" clip-path="url(#p6869d43ca8)"/>
   </g>
   <g id="patch_33">
    <path d="M 99.41305 282.430125 
L 100.60345 282.430125 
L 100.60345 227.433645 
L 99.41305 227.433645 
z
" clip-path="url(#p6869d43ca8)"/>
   </g>
   <g id="patch_34">
    <path d="M 100.60345 282.430125 
L 101.79385 282.430125 
L 101.79385 207.918765 
L 100.60345 207.918765 
z
" clip-path="url(#p6869d43ca8)"/>
   </g>
   <g id="patch_35">
    <path d="M 101.79385 282.430125 
L 102.98425 282.430125 
L 102.98425 214.128045 
L 101.79385 214.128045 
z
" clip-path="url(#p6869d43ca8)"/>
   </g>
   <g id="patch_36">
    <path d="M 102.98425 282.430125 
L 104.17465 282.430125 
L 104.17465 194.169645 
L 102.98425 194.169645 
z
" clip-path="url(#p6869d43ca8)"/>
   </g>
   <g id="patch_37">
    <path d="M 104.17465 282.430125 
L 105.36505 282.430125 
L 105.36505 206.588205 
L 104.17465 206.588205 
z
" clip-path="url(#p6869d43ca8)"/>
   </g>
   <g id="patch_38">
    <path d="M 105.36505 282.430125 
L 106.55545 282.430125 
L 106.55545 234.086445 
L 105.36505 234.086445 
z
" clip-path="url(#p6869d43ca8)"/>
   </g>
   <g id="patch_39">
    <path d="M 106.55545 282.430125 
L 107.74585 282.430125 
L 107.74585 235.417005 
L 106.55545 235.417005 
z
" clip-path="url(#p6869d43ca8)"/>
   </g>
   <g id="patch_40">
    <path d="M 107.74585 282.430125 
L 108.93625 282.430125 
L 108.93625 208.805805 
L 107.74585 208.805805 
z
" clip-path="url(#p6869d43ca8)"/>
   </g>
   <g id="patch_41">
    <path d="M 108.93625 282.430125 
L 110.12665 282.430125 
L 110.12665 203.927085 
L 108.93625 203.927085 
z
" clip-path="url(#p6869d43ca8)"/>
   </g>
   <g id="patch_42">
    <path d="M 110.12665 282.430125 
L 111.31705 282.430125 
L 111.31705 196.830765 
L 110.12665 196.830765 
z
" clip-path="url(#p6869d43ca8)"/>
   </g>
   <g id="patch_43">
    <path d="M 111.31705 282.430125 
L 112.50745 282.430125 
L 112.50745 182.194605 
L 111.31705 182.194605 
z
" clip-path="url(#p6869d43ca8)"/>
   </g>
   <g id="patch_44">
    <path d="M 112.50745 282.430125 
L 113.69785 282.430125 
L 113.69785 151.591725 
L 112.50745 151.591725 
z
" clip-path="url(#p6869d43ca8)"/>
   </g>
   <g id="patch_45">
    <path d="M 113.69785 282.430125 
L 114.88825 282.430125 
L 114.88825 97.925805 
L 113.69785 97.925805 
z
" clip-path="url(#p6869d43ca8)"/>
   </g>
   <g id="patch_46">
    <path d="M 114.88825 282.430125 
L 116.07865 282.430125 
L 116.07865 81.959085 
L 114.88825 81.959085 
z
" clip-path="url(#p6869d43ca8)"/>
   </g>
   <g id="patch_47">
    <path d="M 116.07865 282.430125 
L 117.26905 282.430125 
L 117.26905 77.967405 
L 116.07865 77.967405 
z
" clip-path="url(#p6869d43ca8)"/>
   </g>
   <g id="patch_48">
    <path d="M 117.26905 282.430125 
L 118.45945 282.430125 
L 118.45945 55.791405 
L 117.26905 55.791405 
z
" clip-path="url(#p6869d43ca8)"/>
   </g>
   <g id="patch_49">
    <path d="M 118.45945 282.430125 
L 119.64985 282.430125 
L 119.64985 46.921005 
L 118.45945 46.921005 
z
" clip-path="url(#p6869d43ca8)"/>
   </g>
   <g id="patch_50">
    <path d="M 119.64985 282.430125 
L 120.84025 282.430125 
L 120.84025 50.912685 
L 119.64985 50.912685 
z
" clip-path="url(#p6869d43ca8)"/>
   </g>
   <g id="patch_51">
    <path d="M 120.84025 282.430125 
L 122.03065 282.430125 
L 122.03065 66.879405 
L 120.84025 66.879405 
z
" clip-path="url(#p6869d43ca8)"/>
   </g>
   <g id="patch_52">
    <path d="M 122.03065 282.430125 
L 123.22105 282.430125 
L 123.22105 85.063725 
L 122.03065 85.063725 
z
" clip-path="url(#p6869d43ca8)"/>
   </g>
   <g id="patch_53">
    <path d="M 123.22105 282.430125 
L 124.41145 282.430125 
L 124.41145 94.377645 
L 123.22105 94.377645 
z
" clip-path="url(#p6869d43ca8)"/>
   </g>
   <g id="patch_54">
    <path d="M 124.41145 282.430125 
L 125.60185 282.430125 
L 125.60185 117.440685 
L 124.41145 117.440685 
z
" clip-path="url(#p6869d43ca8)"/>
   </g>
   <g id="patch_55">
    <path d="M 125.60185 282.430125 
L 126.79225 282.430125 
L 126.79225 152.478765 
L 125.60185 152.478765 
z
" clip-path="url(#p6869d43ca8)"/>
   </g>
   <g id="patch_56">
    <path d="M 126.79225 282.430125 
L 127.98265 282.430125 
L 127.98265 168.445485 
L 126.79225 168.445485 
z
" clip-path="url(#p6869d43ca8)"/>
   </g>
   <g id="patch_57">
    <path d="M 127.98265 282.430125 
L 129.17305 282.430125 
L 129.17305 162.236205 
L 127.98265 162.236205 
z
" clip-path="url(#p6869d43ca8)"/>
   </g>
   <g id="patch_58">
    <path d="M 129.17305 282.430125 
L 130.36345 282.430125 
L 130.36345 191.952045 
L 129.17305 191.952045 
z
" clip-path="url(#p6869d43ca8)"/>
   </g>
   <g id="patch_59">
    <path d="M 130.36345 282.430125 
L 131.55385 282.430125 
L 131.55385 191.065005 
L 130.36345 191.065005 
z
" clip-path="url(#p6869d43ca8)"/>
   </g>
   <g id="patch_60">
    <path d="M 131.55385 282.430125 
L 132.74425 282.430125 
L 132.74425 187.960365 
L 131.55385 187.960365 
z
" clip-path="url(#p6869d43ca8)"/>
   </g>
   <g id="patch_61">
    <path d="M 132.74425 282.430125 
L 133.93465 282.430125 
L 133.93465 196.387245 
L 132.74425 196.387245 
z
" clip-path="url(#p6869d43ca8)"/>
   </g>
   <g id="patch_62">
    <path d="M 133.93465 282.430125 
L 135.12505 282.430125 
L 135.12505 197.274285 
L 133.93465 197.274285 
z
" clip-path="url(#p6869d43ca8)"/>
   </g>
   <g id="patch_63">
    <path d="M 135.12505 282.430125 
L 136.31545 282.430125 
L 136.31545 204.370605 
L 135.12505 204.370605 
z
" clip-path="url(#p6869d43ca8)"/>
   </g>
   <g id="patch_64">
    <path d="M 136.31545 282.430125 
L 137.50585 282.430125 
L 137.50585 221.667885 
L 136.31545 221.667885 
z
" clip-path="url(#p6869d43ca8)"/>
   </g>
   <g id="patch_65">
    <path d="M 137.50585 282.430125 
L 138.69625 282.430125 
L 138.69625 246.948525 
L 137.50585 246.948525 
z
" clip-path="url(#p6869d43ca8)"/>
   </g>
   <g id="patch_66">
    <path d="M 138.69625 282.430125 
L 139.88665 282.430125 
L 139.88665 224.329005 
L 138.69625 224.329005 
z
" clip-path="url(#p6869d43ca8)"/>
   </g>
   <g id="patch_67">
    <path d="M 139.88665 282.430125 
L 141.07705 282.430125 
L 141.07705 227.433645 
L 139.88665 227.433645 
z
" clip-path="url(#p6869d43ca8)"/>
   </g>
   <g id="patch_68">
    <path d="M 141.07705 282.430125 
L 142.26745 282.430125 
L 142.26745 228.764205 
L 141.07705 228.764205 
z
" clip-path="url(#p6869d43ca8)"/>
   </g>
   <g id="patch_69">
    <path d="M 142.26745 282.430125 
L 143.45785 282.430125 
L 143.45785 232.312365 
L 142.26745 232.312365 
z
" clip-path="url(#p6869d43ca8)"/>
   </g>
   <g id="patch_70">
    <path d="M 143.45785 282.430125 
L 144.64825 282.430125 
L 144.64825 219.450285 
L 143.45785 219.450285 
z
" clip-path="url(#p6869d43ca8)"/>
   </g>
   <g id="patch_71">
    <path d="M 144.64825 282.430125 
L 145.83865 282.430125 
L 145.83865 197.274285 
L 144.64825 197.274285 
z
" clip-path="url(#p6869d43ca8)"/>
   </g>
   <g id="patch_72">
    <path d="M 145.83865 282.430125 
L 147.02905 282.430125 
L 147.02905 204.370605 
L 145.83865 204.370605 
z
" clip-path="url(#p6869d43ca8)"/>
   </g>
   <g id="patch_73">
    <path d="M 147.02905 282.430125 
L 148.21945 282.430125 
L 148.21945 175.985325 
L 147.02905 175.985325 
z
" clip-path="url(#p6869d43ca8)"/>
   </g>
   <g id="patch_74">
    <path d="M 148.21945 282.430125 
L 149.40985 282.430125 
L 149.40985 187.073325 
L 148.21945 187.073325 
z
" clip-path="url(#p6869d43ca8)"/>
   </g>
   <g id="patch_75">
    <path d="M 149.40985 282.430125 
L 150.60025 282.430125 
L 150.60025 164.453805 
L 149.40985 164.453805 
z
" clip-path="url(#p6869d43ca8)"/>
   </g>
   <g id="patch_76">
    <path d="M 150.60025 282.430125 
L 151.79065 282.430125 
L 151.79065 167.114925 
L 150.60025 167.114925 
z
" clip-path="url(#p6869d43ca8)"/>
   </g>
   <g id="patch_77">
    <path d="M 151.79065 282.430125 
L 152.98105 282.430125 
L 152.98105 166.227885 
L 151.79065 166.227885 
z
" clip-path="url(#p6869d43ca8)"/>
   </g>
   <g id="patch_78">
    <path d="M 152.98105 282.430125 
L 154.17145 282.430125 
L 154.17145 186.629805 
L 152.98105 186.629805 
z
" clip-path="url(#p6869d43ca8)"/>
   </g>
   <g id="patch_79">
    <path d="M 154.17145 282.430125 
L 155.36185 282.430125 
L 155.36185 201.709485 
L 154.17145 201.709485 
z
" clip-path="url(#p6869d43ca8)"/>
   </g>
   <g id="patch_80">
    <path d="M 155.36185 282.430125 
L 156.55225 282.430125 
L 156.55225 212.797485 
L 155.36185 212.797485 
z
" clip-path="url(#p6869d43ca8)"/>
   </g>
   <g id="patch_81">
    <path d="M 156.55225 282.430125 
L 157.74265 282.430125 
L 157.74265 210.579885 
L 156.55225 210.579885 
z
" clip-path="url(#p6869d43ca8)"/>
   </g>
   <g id="patch_82">
    <path d="M 157.74265 282.430125 
L 158.93305 282.430125 
L 158.93305 216.789165 
L 157.74265 216.789165 
z
" clip-path="url(#p6869d43ca8)"/>
   </g>
   <g id="patch_83">
    <path d="M 158.93305 282.430125 
L 160.12345 282.430125 
L 160.12345 225.659565 
L 158.93305 225.659565 
z
" clip-path="url(#p6869d43ca8)"/>
   </g>
   <g id="patch_84">
    <path d="M 160.12345 282.430125 
L 161.31385 282.430125 
L 161.31385 225.216045 
L 160.12345 225.216045 
z
" clip-path="url(#p6869d43ca8)"/>
   </g>
   <g id="patch_85">
    <path d="M 161.31385 282.430125 
L 162.50425 282.430125 
L 162.50425 234.529965 
L 161.31385 234.529965 
z
" clip-path="url(#p6869d43ca8)"/>
   </g>
   <g id="patch_86">
    <path d="M 162.50425 282.430125 
L 163.69465 282.430125 
L 163.69465 246.061485 
L 162.50425 246.061485 
z
" clip-path="url(#p6869d43ca8)"/>
   </g>
   <g id="patch_87">
    <path d="M 163.69465 282.430125 
L 164.88505 282.430125 
L 164.88505 244.287405 
L 163.69465 244.287405 
z
" clip-path="url(#p6869d43ca8)"/>
   </g>
   <g id="patch_88">
    <path d="M 164.88505 282.430125 
L 166.07545 282.430125 
L 166.07545 252.270765 
L 164.88505 252.270765 
z
" clip-path="url(#p6869d43ca8)"/>
   </g>
   <g id="patch_89">
    <path d="M 166.07545 282.430125 
L 167.26585 282.430125 
L 167.26585 252.270765 
L 166.07545 252.270765 
z
" clip-path="url(#p6869d43ca8)"/>
   </g>
   <g id="patch_90">
    <path d="M 167.26585 282.430125 
L 168.45625 282.430125 
L 168.45625 249.166125 
L 167.26585 249.166125 
z
" clip-path="url(#p6869d43ca8)"/>
   </g>
   <g id="patch_91">
    <path d="M 168.45625 282.430125 
L 169.64665 282.430125 
L 169.64665 261.584685 
L 168.45625 261.584685 
z
" clip-path="url(#p6869d43ca8)"/>
   </g>
   <g id="patch_92">
    <path d="M 169.64665 282.430125 
L 170.83705 282.430125 
L 170.83705 265.132845 
L 169.64665 265.132845 
z
" clip-path="url(#p6869d43ca8)"/>
   </g>
   <g id="patch_93">
    <path d="M 170.83705 282.430125 
L 172.02745 282.430125 
L 172.02745 252.714285 
L 170.83705 252.714285 
z
" clip-path="url(#p6869d43ca8)"/>
   </g>
   <g id="patch_94">
    <path d="M 172.02745 282.430125 
L 173.21785 282.430125 
L 173.21785 249.166125 
L 172.02745 249.166125 
z
" clip-path="url(#p6869d43ca8)"/>
   </g>
   <g id="patch_95">
    <path d="M 173.21785 282.430125 
L 174.40825 282.430125 
L 174.40825 260.254125 
L 173.21785 260.254125 
z
" clip-path="url(#p6869d43ca8)"/>
   </g>
   <g id="patch_96">
    <path d="M 174.40825 282.430125 
L 175.59865 282.430125 
L 175.59865 258.036525 
L 174.40825 258.036525 
z
" clip-path="url(#p6869d43ca8)"/>
   </g>
   <g id="patch_97">
    <path d="M 175.59865 282.430125 
L 176.78905 282.430125 
L 176.78905 247.392045 
L 175.59865 247.392045 
z
" clip-path="url(#p6869d43ca8)"/>
   </g>
   <g id="patch_98">
    <path d="M 176.78905 282.430125 
L 177.97945 282.430125 
L 177.97945 245.174445 
L 176.78905 245.174445 
z
" clip-path="url(#p6869d43ca8)"/>
   </g>
   <g id="patch_99">
    <path d="M 177.97945 282.430125 
L 179.16985 282.430125 
L 179.16985 248.722605 
L 177.97945 248.722605 
z
" clip-path="url(#p6869d43ca8)"/>
   </g>
   <g id="patch_100">
    <path d="M 179.16985 282.430125 
L 180.36025 282.430125 
L 180.36025 233.199405 
L 179.16985 233.199405 
z
" clip-path="url(#p6869d43ca8)"/>
   </g>
   <g id="patch_101">
    <path d="M 180.36025 282.430125 
L 181.55065 282.430125 
L 181.55065 224.772525 
L 180.36025 224.772525 
z
" clip-path="url(#p6869d43ca8)"/>
   </g>
   <g id="patch_102">
    <path d="M 181.55065 282.430125 
L 182.74105 282.430125 
L 182.74105 228.764205 
L 181.55065 228.764205 
z
" clip-path="url(#p6869d43ca8)"/>
   </g>
   <g id="patch_103">
    <path d="M 182.74105 282.430125 
L 183.93145 282.430125 
L 183.93145 223.885485 
L 182.74105 223.885485 
z
" clip-path="url(#p6869d43ca8)"/>
   </g>
   <g id="patch_104">
    <path d="M 183.93145 282.430125 
L 185.12185 282.430125 
L 185.12185 223.885485 
L 183.93145 223.885485 
z
" clip-path="url(#p6869d43ca8)"/>
   </g>
   <g id="patch_105">
    <path d="M 185.12185 282.430125 
L 186.31225 282.430125 
L 186.31225 228.764205 
L 185.12185 228.764205 
z
" clip-path="url(#p6869d43ca8)"/>
   </g>
   <g id="patch_106">
    <path d="M 186.31225 282.430125 
L 187.50265 282.430125 
L 187.50265 240.295725 
L 186.31225 240.295725 
z
" clip-path="url(#p6869d43ca8)"/>
   </g>
   <g id="patch_107">
    <path d="M 187.50265 282.430125 
L 188.69305 282.430125 
L 188.69305 238.521645 
L 187.50265 238.521645 
z
" clip-path="url(#p6869d43ca8)"/>
   </g>
   <g id="patch_108">
    <path d="M 188.69305 282.430125 
L 189.88345 282.430125 
L 189.88345 243.843885 
L 188.69305 243.843885 
z
" clip-path="url(#p6869d43ca8)"/>
   </g>
   <g id="patch_109">
    <path d="M 189.88345 282.430125 
L 191.07385 282.430125 
L 191.07385 257.593005 
L 189.88345 257.593005 
z
" clip-path="url(#p6869d43ca8)"/>
   </g>
   <g id="patch_110">
    <path d="M 191.07385 282.430125 
L 192.26425 282.430125 
L 192.26425 256.262445 
L 191.07385 256.262445 
z
" clip-path="url(#p6869d43ca8)"/>
   </g>
   <g id="patch_111">
    <path d="M 192.26425 282.430125 
L 193.45465 282.430125 
L 193.45465 266.019885 
L 192.26425 266.019885 
z
" clip-path="url(#p6869d43ca8)"/>
   </g>
   <g id="patch_112">
    <path d="M 193.45465 282.430125 
L 194.64505 282.430125 
L 194.64505 258.923565 
L 193.45465 258.923565 
z
" clip-path="url(#p6869d43ca8)"/>
   </g>
   <g id="patch_113">
    <path d="M 194.64505 282.430125 
L 195.83545 282.430125 
L 195.83545 265.132845 
L 194.64505 265.132845 
z
" clip-path="url(#p6869d43ca8)"/>
   </g>
   <g id="patch_114">
    <path d="M 195.83545 282.430125 
L 197.02585 282.430125 
L 197.02585 260.697645 
L 195.83545 260.697645 
z
" clip-path="url(#p6869d43ca8)"/>
   </g>
   <g id="patch_115">
    <path d="M 197.02585 282.430125 
L 198.21625 282.430125 
L 198.21625 263.358765 
L 197.02585 263.358765 
z
" clip-path="url(#p6869d43ca8)"/>
   </g>
   <g id="patch_116">
    <path d="M 198.21625 282.430125 
L 199.40665 282.430125 
L 199.40665 262.028205 
L 198.21625 262.028205 
z
" clip-path="url(#p6869d43ca8)"/>
   </g>
   <g id="patch_117">
    <path d="M 199.40665 282.430125 
L 200.59705 282.430125 
L 200.59705 263.358765 
L 199.40665 263.358765 
z
" clip-path="url(#p6869d43ca8)"/>
   </g>
   <g id="patch_118">
    <path d="M 200.59705 282.430125 
L 201.78745 282.430125 
L 201.78745 271.785645 
L 200.59705 271.785645 
z
" clip-path="url(#p6869d43ca8)"/>
   </g>
   <g id="patch_119">
    <path d="M 201.78745 282.430125 
L 202.97785 282.430125 
L 202.97785 273.559725 
L 201.78745 273.559725 
z
" clip-path="url(#p6869d43ca8)"/>
   </g>
   <g id="patch_120">
    <path d="M 202.97785 282.430125 
L 204.16825 282.430125 
L 204.16825 263.802285 
L 202.97785 263.802285 
z
" clip-path="url(#p6869d43ca8)"/>
   </g>
   <g id="patch_121">
    <path d="M 204.16825 282.430125 
L 205.35865 282.430125 
L 205.35865 270.455085 
L 204.16825 270.455085 
z
" clip-path="url(#p6869d43ca8)"/>
   </g>
   <g id="patch_122">
    <path d="M 205.35865 282.430125 
L 206.54905 282.430125 
L 206.54905 270.898605 
L 205.35865 270.898605 
z
" clip-path="url(#p6869d43ca8)"/>
   </g>
   <g id="patch_123">
    <path d="M 206.54905 282.430125 
L 207.73945 282.430125 
L 207.73945 270.011565 
L 206.54905 270.011565 
z
" clip-path="url(#p6869d43ca8)"/>
   </g>
   <g id="patch_124">
    <path d="M 207.73945 282.430125 
L 208.92985 282.430125 
L 208.92985 269.568045 
L 207.73945 269.568045 
z
" clip-path="url(#p6869d43ca8)"/>
   </g>
   <g id="patch_125">
    <path d="M 208.92985 282.430125 
L 210.12025 282.430125 
L 210.12025 262.028205 
L 208.92985 262.028205 
z
" clip-path="url(#p6869d43ca8)"/>
   </g>
   <g id="patch_126">
    <path d="M 210.12025 282.430125 
L 211.31065 282.430125 
L 211.31065 263.802285 
L 210.12025 263.802285 
z
" clip-path="url(#p6869d43ca8)"/>
   </g>
   <g id="patch_127">
    <path d="M 211.31065 282.430125 
L 212.50105 282.430125 
L 212.50105 256.705965 
L 211.31065 256.705965 
z
" clip-path="url(#p6869d43ca8)"/>
   </g>
   <g id="patch_128">
    <path d="M 212.50105 282.430125 
L 213.69145 282.430125 
L 213.69145 250.940205 
L 212.50105 250.940205 
z
" clip-path="url(#p6869d43ca8)"/>
   </g>
   <g id="patch_129">
    <path d="M 213.69145 282.430125 
L 214.88185 282.430125 
L 214.88185 245.174445 
L 213.69145 245.174445 
z
" clip-path="url(#p6869d43ca8)"/>
   </g>
   <g id="patch_130">
    <path d="M 214.88185 282.430125 
L 216.07225 282.430125 
L 216.07225 250.053165 
L 214.88185 250.053165 
z
" clip-path="url(#p6869d43ca8)"/>
   </g>
   <g id="patch_131">
    <path d="M 216.07225 282.430125 
L 217.26265 282.430125 
L 217.26265 245.174445 
L 216.07225 245.174445 
z
" clip-path="url(#p6869d43ca8)"/>
   </g>
   <g id="patch_132">
    <path d="M 217.26265 282.430125 
L 218.45305 282.430125 
L 218.45305 255.375405 
L 217.26265 255.375405 
z
" clip-path="url(#p6869d43ca8)"/>
   </g>
   <g id="patch_133">
    <path d="M 218.45305 282.430125 
L 219.64345 282.430125 
L 219.64345 255.375405 
L 218.45305 255.375405 
z
" clip-path="url(#p6869d43ca8)"/>
   </g>
   <g id="patch_134">
    <path d="M 219.64345 282.430125 
L 220.83385 282.430125 
L 220.83385 259.367085 
L 219.64345 259.367085 
z
" clip-path="url(#p6869d43ca8)"/>
   </g>
   <g id="patch_135">
    <path d="M 220.83385 282.430125 
L 222.02425 282.430125 
L 222.02425 265.132845 
L 220.83385 265.132845 
z
" clip-path="url(#p6869d43ca8)"/>
   </g>
   <g id="patch_136">
    <path d="M 222.02425 282.430125 
L 223.21465 282.430125 
L 223.21465 265.132845 
L 222.02425 265.132845 
z
" clip-path="url(#p6869d43ca8)"/>
   </g>
   <g id="patch_137">
    <path d="M 223.21465 282.430125 
L 224.40505 282.430125 
L 224.40505 268.237485 
L 223.21465 268.237485 
z
" clip-path="url(#p6869d43ca8)"/>
   </g>
   <g id="patch_138">
    <path d="M 224.40505 282.430125 
L 225.59545 282.430125 
L 225.59545 268.681005 
L 224.40505 268.681005 
z
" clip-path="url(#p6869d43ca8)"/>
   </g>
   <g id="patch_139">
    <path d="M 225.59545 282.430125 
L 226.78585 282.430125 
L 226.78585 266.906925 
L 225.59545 266.906925 
z
" clip-path="url(#p6869d43ca8)"/>
   </g>
   <g id="patch_140">
    <path d="M 226.78585 282.430125 
L 227.97625 282.430125 
L 227.97625 270.898605 
L 226.78585 270.898605 
z
" clip-path="url(#p6869d43ca8)"/>
   </g>
   <g id="patch_141">
    <path d="M 227.97625 282.430125 
L 229.16665 282.430125 
L 229.16665 275.777325 
L 227.97625 275.777325 
z
" clip-path="url(#p6869d43ca8)"/>
   </g>
   <g id="patch_142">
    <path d="M 229.16665 282.430125 
L 230.35705 282.430125 
L 230.35705 276.664365 
L 229.16665 276.664365 
z
" clip-path="url(#p6869d43ca8)"/>
   </g>
   <g id="patch_143">
    <path d="M 230.35705 282.430125 
L 231.54745 282.430125 
L 231.54745 274.890285 
L 230.35705 274.890285 
z
" clip-path="url(#p6869d43ca8)"/>
   </g>
   <g id="patch_144">
    <path d="M 231.54745 282.430125 
L 232.73785 282.430125 
L 232.73785 271.785645 
L 231.54745 271.785645 
z
" clip-path="url(#p6869d43ca8)"/>
   </g>
   <g id="patch_145">
    <path d="M 232.73785 282.430125 
L 233.92825 282.430125 
L 233.92825 276.220845 
L 232.73785 276.220845 
z
" clip-path="url(#p6869d43ca8)"/>
   </g>
   <g id="patch_146">
    <path d="M 233.92825 282.430125 
L 235.11865 282.430125 
L 235.11865 277.994925 
L 233.92825 277.994925 
z
" clip-path="url(#p6869d43ca8)"/>
   </g>
   <g id="patch_147">
    <path d="M 235.11865 282.430125 
L 236.30905 282.430125 
L 236.30905 275.777325 
L 235.11865 275.777325 
z
" clip-path="url(#p6869d43ca8)"/>
   </g>
   <g id="patch_148">
    <path d="M 236.30905 282.430125 
L 237.49945 282.430125 
L 237.49945 276.220845 
L 236.30905 276.220845 
z
" clip-path="url(#p6869d43ca8)"/>
   </g>
   <g id="patch_149">
    <path d="M 237.49945 282.430125 
L 238.68985 282.430125 
L 238.68985 278.438445 
L 237.49945 278.438445 
z
" clip-path="url(#p6869d43ca8)"/>
   </g>
   <g id="patch_150">
    <path d="M 238.68985 282.430125 
L 239.88025 282.430125 
L 239.88025 275.777325 
L 238.68985 275.777325 
z
" clip-path="url(#p6869d43ca8)"/>
   </g>
   <g id="patch_151">
    <path d="M 239.88025 282.430125 
L 241.07065 282.430125 
L 241.07065 273.116205 
L 239.88025 273.116205 
z
" clip-path="url(#p6869d43ca8)"/>
   </g>
   <g id="patch_152">
    <path d="M 241.07065 282.430125 
L 242.26105 282.430125 
L 242.26105 275.777325 
L 241.07065 275.777325 
z
" clip-path="url(#p6869d43ca8)"/>
   </g>
   <g id="patch_153">
    <path d="M 242.26105 282.430125 
L 243.45145 282.430125 
L 243.45145 273.559725 
L 242.26105 273.559725 
z
" clip-path="url(#p6869d43ca8)"/>
   </g>
   <g id="patch_154">
    <path d="M 243.45145 282.430125 
L 244.64185 282.430125 
L 244.64185 270.898605 
L 243.45145 270.898605 
z
" clip-path="url(#p6869d43ca8)"/>
   </g>
   <g id="patch_155">
    <path d="M 244.64185 282.430125 
L 245.83225 282.430125 
L 245.83225 268.237485 
L 244.64185 268.237485 
z
" clip-path="url(#p6869d43ca8)"/>
   </g>
   <g id="patch_156">
    <path d="M 245.83225 282.430125 
L 247.02265 282.430125 
L 247.02265 270.011565 
L 245.83225 270.011565 
z
" clip-path="url(#p6869d43ca8)"/>
   </g>
   <g id="patch_157">
    <path d="M 247.02265 282.430125 
L 248.21305 282.430125 
L 248.21305 270.011565 
L 247.02265 270.011565 
z
" clip-path="url(#p6869d43ca8)"/>
   </g>
   <g id="patch_158">
    <path d="M 248.21305 282.430125 
L 249.40345 282.430125 
L 249.40345 263.802285 
L 248.21305 263.802285 
z
" clip-path="url(#p6869d43ca8)"/>
   </g>
   <g id="patch_159">
    <path d="M 249.40345 282.430125 
L 250.59385 282.430125 
L 250.59385 269.568045 
L 249.40345 269.568045 
z
" clip-path="url(#p6869d43ca8)"/>
   </g>
   <g id="patch_160">
    <path d="M 250.59385 282.430125 
L 251.78425 282.430125 
L 251.78425 273.116205 
L 250.59385 273.116205 
z
" clip-path="url(#p6869d43ca8)"/>
   </g>
   <g id="patch_161">
    <path d="M 251.78425 282.430125 
L 252.97465 282.430125 
L 252.97465 271.342125 
L 251.78425 271.342125 
z
" clip-path="url(#p6869d43ca8)"/>
   </g>
   <g id="patch_162">
    <path d="M 252.97465 282.430125 
L 254.16505 282.430125 
L 254.16505 277.551405 
L 252.97465 277.551405 
z
" clip-path="url(#p6869d43ca8)"/>
   </g>
   <g id="patch_163">
    <path d="M 254.16505 282.430125 
L 255.35545 282.430125 
L 255.35545 273.116205 
L 254.16505 273.116205 
z
" clip-path="url(#p6869d43ca8)"/>
   </g>
   <g id="patch_164">
    <path d="M 255.35545 282.430125 
L 256.54585 282.430125 
L 256.54585 275.777325 
L 255.35545 275.777325 
z
" clip-path="url(#p6869d43ca8)"/>
   </g>
   <g id="patch_165">
    <path d="M 256.54585 282.430125 
L 257.73625 282.430125 
L 257.73625 271.785645 
L 256.54585 271.785645 
z
" clip-path="url(#p6869d43ca8)"/>
   </g>
   <g id="patch_166">
    <path d="M 257.73625 282.430125 
L 258.92665 282.430125 
L 258.92665 274.446765 
L 257.73625 274.446765 
z
" clip-path="url(#p6869d43ca8)"/>
   </g>
   <g id="patch_167">
    <path d="M 258.92665 282.430125 
L 260.11705 282.430125 
L 260.11705 274.890285 
L 258.92665 274.890285 
z
" clip-path="url(#p6869d43ca8)"/>
   </g>
   <g id="patch_168">
    <path d="M 260.11705 282.430125 
L 261.30745 282.430125 
L 261.30745 274.446765 
L 260.11705 274.446765 
z
" clip-path="url(#p6869d43ca8)"/>
   </g>
   <g id="patch_169">
    <path d="M 261.30745 282.430125 
L 262.49785 282.430125 
L 262.49785 277.994925 
L 261.30745 277.994925 
z
" clip-path="url(#p6869d43ca8)"/>
   </g>
   <g id="patch_170">
    <path d="M 262.49785 282.430125 
L 263.68825 282.430125 
L 263.68825 278.881965 
L 262.49785 278.881965 
z
" clip-path="url(#p6869d43ca8)"/>
   </g>
   <g id="patch_171">
    <path d="M 263.68825 282.430125 
L 264.87865 282.430125 
L 264.87865 275.777325 
L 263.68825 275.777325 
z
" clip-path="url(#p6869d43ca8)"/>
   </g>
   <g id="patch_172">
    <path d="M 264.87865 282.430125 
L 266.06905 282.430125 
L 266.06905 280.656045 
L 264.87865 280.656045 
z
" clip-path="url(#p6869d43ca8)"/>
   </g>
   <g id="patch_173">
    <path d="M 266.06905 282.430125 
L 267.25945 282.430125 
L 267.25945 277.994925 
L 266.06905 277.994925 
z
" clip-path="url(#p6869d43ca8)"/>
   </g>
   <g id="patch_174">
    <path d="M 267.25945 282.430125 
L 268.44985 282.430125 
L 268.44985 281.543085 
L 267.25945 281.543085 
z
" clip-path="url(#p6869d43ca8)"/>
   </g>
   <g id="patch_175">
    <path d="M 268.44985 282.430125 
L 269.64025 282.430125 
L 269.64025 279.769005 
L 268.44985 279.769005 
z
" clip-path="url(#p6869d43ca8)"/>
   </g>
   <g id="patch_176">
    <path d="M 269.64025 282.430125 
L 270.83065 282.430125 
L 270.83065 279.769005 
L 269.64025 279.769005 
z
" clip-path="url(#p6869d43ca8)"/>
   </g>
   <g id="patch_177">
    <path d="M 270.83065 282.430125 
L 272.02105 282.430125 
L 272.02105 278.438445 
L 270.83065 278.438445 
z
" clip-path="url(#p6869d43ca8)"/>
   </g>
   <g id="patch_178">
    <path d="M 272.02105 282.430125 
L 273.21145 282.430125 
L 273.21145 280.212525 
L 272.02105 280.212525 
z
" clip-path="url(#p6869d43ca8)"/>
   </g>
   <g id="patch_179">
    <path d="M 273.21145 282.430125 
L 274.40185 282.430125 
L 274.40185 278.438445 
L 273.21145 278.438445 
z
" clip-path="url(#p6869d43ca8)"/>
   </g>
   <g id="patch_180">
    <path d="M 274.40185 282.430125 
L 275.59225 282.430125 
L 275.59225 279.325485 
L 274.40185 279.325485 
z
" clip-path="url(#p6869d43ca8)"/>
   </g>
   <g id="patch_181">
    <path d="M 275.59225 282.430125 
L 276.78265 282.430125 
L 276.78265 277.994925 
L 275.59225 277.994925 
z
" clip-path="url(#p6869d43ca8)"/>
   </g>
   <g id="patch_182">
    <path d="M 276.78265 282.430125 
L 277.97305 282.430125 
L 277.97305 277.994925 
L 276.78265 277.994925 
z
" clip-path="url(#p6869d43ca8)"/>
   </g>
   <g id="patch_183">
    <path d="M 277.97305 282.430125 
L 279.16345 282.430125 
L 279.16345 274.003245 
L 277.97305 274.003245 
z
" clip-path="url(#p6869d43ca8)"/>
   </g>
   <g id="patch_184">
    <path d="M 279.16345 282.430125 
L 280.35385 282.430125 
L 280.35385 273.559725 
L 279.16345 273.559725 
z
" clip-path="url(#p6869d43ca8)"/>
   </g>
   <g id="patch_185">
    <path d="M 280.35385 282.430125 
L 281.54425 282.430125 
L 281.54425 274.446765 
L 280.35385 274.446765 
z
" clip-path="url(#p6869d43ca8)"/>
   </g>
   <g id="patch_186">
    <path d="M 281.54425 282.430125 
L 282.73465 282.430125 
L 282.73465 273.559725 
L 281.54425 273.559725 
z
" clip-path="url(#p6869d43ca8)"/>
   </g>
   <g id="patch_187">
    <path d="M 282.73465 282.430125 
L 283.92505 282.430125 
L 283.92505 278.438445 
L 282.73465 278.438445 
z
" clip-path="url(#p6869d43ca8)"/>
   </g>
   <g id="patch_188">
    <path d="M 283.92505 282.430125 
L 285.11545 282.430125 
L 285.11545 278.438445 
L 283.92505 278.438445 
z
" clip-path="url(#p6869d43ca8)"/>
   </g>
   <g id="patch_189">
    <path d="M 285.11545 282.430125 
L 286.30585 282.430125 
L 286.30585 277.107885 
L 285.11545 277.107885 
z
" clip-path="url(#p6869d43ca8)"/>
   </g>
   <g id="patch_190">
    <path d="M 286.30585 282.430125 
L 287.49625 282.430125 
L 287.49625 279.769005 
L 286.30585 279.769005 
z
" clip-path="url(#p6869d43ca8)"/>
   </g>
   <g id="patch_191">
    <path d="M 287.49625 282.430125 
L 288.68665 282.430125 
L 288.68665 280.656045 
L 287.49625 280.656045 
z
" clip-path="url(#p6869d43ca8)"/>
   </g>
   <g id="patch_192">
    <path d="M 288.68665 282.430125 
L 289.87705 282.430125 
L 289.87705 278.438445 
L 288.68665 278.438445 
z
" clip-path="url(#p6869d43ca8)"/>
   </g>
   <g id="patch_193">
    <path d="M 289.87705 282.430125 
L 291.06745 282.430125 
L 291.06745 281.986605 
L 289.87705 281.986605 
z
" clip-path="url(#p6869d43ca8)"/>
   </g>
   <g id="patch_194">
    <path d="M 291.06745 282.430125 
L 292.25785 282.430125 
L 292.25785 278.881965 
L 291.06745 278.881965 
z
" clip-path="url(#p6869d43ca8)"/>
   </g>
   <g id="patch_195">
    <path d="M 292.25785 282.430125 
L 293.44825 282.430125 
L 293.44825 280.656045 
L 292.25785 280.656045 
z
" clip-path="url(#p6869d43ca8)"/>
   </g>
   <g id="patch_196">
    <path d="M 293.44825 282.430125 
L 294.63865 282.430125 
L 294.63865 279.769005 
L 293.44825 279.769005 
z
" clip-path="url(#p6869d43ca8)"/>
   </g>
   <g id="patch_197">
    <path d="M 294.63865 282.430125 
L 295.82905 282.430125 
L 295.82905 279.325485 
L 294.63865 279.325485 
z
" clip-path="url(#p6869d43ca8)"/>
   </g>
   <g id="patch_198">
    <path d="M 295.82905 282.430125 
L 297.01945 282.430125 
L 297.01945 281.543085 
L 295.82905 281.543085 
z
" clip-path="url(#p6869d43ca8)"/>
   </g>
   <g id="patch_199">
    <path d="M 297.01945 282.430125 
L 298.20985 282.430125 
L 298.20985 279.769005 
L 297.01945 279.769005 
z
" clip-path="url(#p6869d43ca8)"/>
   </g>
   <g id="patch_200">
    <path d="M 298.20985 282.430125 
L 299.40025 282.430125 
L 299.40025 280.212525 
L 298.20985 280.212525 
z
" clip-path="url(#p6869d43ca8)"/>
   </g>
   <g id="patch_201">
    <path d="M 299.40025 282.430125 
L 300.59065 282.430125 
L 300.59065 281.099565 
L 299.40025 281.099565 
z
" clip-path="url(#p6869d43ca8)"/>
   </g>
   <g id="patch_202">
    <path d="M 300.59065 282.430125 
L 301.78105 282.430125 
L 301.78105 281.543085 
L 300.59065 281.543085 
z
" clip-path="url(#p6869d43ca8)"/>
   </g>
   <g id="patch_203">
    <path d="M 301.78105 282.430125 
L 302.97145 282.430125 
L 302.97145 280.656045 
L 301.78105 280.656045 
z
" clip-path="url(#p6869d43ca8)"/>
   </g>
   <g id="patch_204">
    <path d="M 302.97145 282.430125 
L 304.16185 282.430125 
L 304.16185 280.656045 
L 302.97145 280.656045 
z
" clip-path="url(#p6869d43ca8)"/>
   </g>
   <g id="patch_205">
    <path d="M 304.16185 282.430125 
L 305.35225 282.430125 
L 305.35225 280.212525 
L 304.16185 280.212525 
z
" clip-path="url(#p6869d43ca8)"/>
   </g>
   <g id="patch_206">
    <path d="M 305.35225 282.430125 
L 306.54265 282.430125 
L 306.54265 281.986605 
L 305.35225 281.986605 
z
" clip-path="url(#p6869d43ca8)"/>
   </g>
   <g id="patch_207">
    <path d="M 306.54265 282.430125 
L 307.73305 282.430125 
L 307.73305 277.994925 
L 306.54265 277.994925 
z
" clip-path="url(#p6869d43ca8)"/>
   </g>
   <g id="patch_208">
    <path d="M 307.73305 282.430125 
L 308.92345 282.430125 
L 308.92345 280.212525 
L 307.73305 280.212525 
z
" clip-path="url(#p6869d43ca8)"/>
   </g>
   <g id="patch_209">
    <path d="M 308.92345 282.430125 
L 310.11385 282.430125 
L 310.11385 279.769005 
L 308.92345 279.769005 
z
" clip-path="url(#p6869d43ca8)"/>
   </g>
   <g id="patch_210">
    <path d="M 310.11385 282.430125 
L 311.30425 282.430125 
L 311.30425 279.325485 
L 310.11385 279.325485 
z
" clip-path="url(#p6869d43ca8)"/>
   </g>
   <g id="patch_211">
    <path d="M 311.30425 282.430125 
L 312.49465 282.430125 
L 312.49465 280.656045 
L 311.30425 280.656045 
z
" clip-path="url(#p6869d43ca8)"/>
   </g>
   <g id="patch_212">
    <path d="M 312.49465 282.430125 
L 313.68505 282.430125 
L 313.68505 281.099565 
L 312.49465 281.099565 
z
" clip-path="url(#p6869d43ca8)"/>
   </g>
   <g id="patch_213">
    <path d="M 313.68505 282.430125 
L 314.87545 282.430125 
L 314.87545 280.656045 
L 313.68505 280.656045 
z
" clip-path="url(#p6869d43ca8)"/>
   </g>
   <g id="patch_214">
    <path d="M 314.87545 282.430125 
L 316.06585 282.430125 
L 316.06585 279.325485 
L 314.87545 279.325485 
z
" clip-path="url(#p6869d43ca8)"/>
   </g>
   <g id="patch_215">
    <path d="M 316.06585 282.430125 
L 317.25625 282.430125 
L 317.25625 281.099565 
L 316.06585 281.099565 
z
" clip-path="url(#p6869d43ca8)"/>
   </g>
   <g id="patch_216">
    <path d="M 317.25625 282.430125 
L 318.44665 282.430125 
L 318.44665 279.769005 
L 317.25625 279.769005 
z
" clip-path="url(#p6869d43ca8)"/>
   </g>
   <g id="patch_217">
    <path d="M 318.44665 282.430125 
L 319.63705 282.430125 
L 319.63705 280.656045 
L 318.44665 280.656045 
z
" clip-path="url(#p6869d43ca8)"/>
   </g>
   <g id="patch_218">
    <path d="M 319.63705 282.430125 
L 320.82745 282.430125 
L 320.82745 279.325485 
L 319.63705 279.325485 
z
" clip-path="url(#p6869d43ca8)"/>
   </g>
   <g id="patch_219">
    <path d="M 320.82745 282.430125 
L 322.01785 282.430125 
L 322.01785 279.769005 
L 320.82745 279.769005 
z
" clip-path="url(#p6869d43ca8)"/>
   </g>
   <g id="patch_220">
    <path d="M 322.01785 282.430125 
L 323.20825 282.430125 
L 323.20825 281.099565 
L 322.01785 281.099565 
z
" clip-path="url(#p6869d43ca8)"/>
   </g>
   <g id="patch_221">
    <path d="M 323.20825 282.430125 
L 324.39865 282.430125 
L 324.39865 281.099565 
L 323.20825 281.099565 
z
" clip-path="url(#p6869d43ca8)"/>
   </g>
   <g id="patch_222">
    <path d="M 324.39865 282.430125 
L 325.58905 282.430125 
L 325.58905 279.325485 
L 324.39865 279.325485 
z
" clip-path="url(#p6869d43ca8)"/>
   </g>
   <g id="patch_223">
    <path d="M 325.58905 282.430125 
L 326.77945 282.430125 
L 326.77945 281.543085 
L 325.58905 281.543085 
z
" clip-path="url(#p6869d43ca8)"/>
   </g>
   <g id="patch_224">
    <path d="M 326.77945 282.430125 
L 327.96985 282.430125 
L 327.96985 280.212525 
L 326.77945 280.212525 
z
" clip-path="url(#p6869d43ca8)"/>
   </g>
   <g id="patch_225">
    <path d="M 327.96985 282.430125 
L 329.16025 282.430125 
L 329.16025 282.430125 
L 327.96985 282.430125 
z
" clip-path="url(#p6869d43ca8)"/>
   </g>
   <g id="patch_226">
    <path d="M 329.16025 282.430125 
L 330.35065 282.430125 
L 330.35065 281.986605 
L 329.16025 281.986605 
z
" clip-path="url(#p6869d43ca8)"/>
   </g>
   <g id="patch_227">
    <path d="M 330.35065 282.430125 
L 331.54105 282.430125 
L 331.54105 281.986605 
L 330.35065 281.986605 
z
" clip-path="url(#p6869d43ca8)"/>
   </g>
   <g id="patch_228">
    <path d="M 331.54105 282.430125 
L 332.73145 282.430125 
L 332.73145 281.543085 
L 331.54105 281.543085 
z
" clip-path="url(#p6869d43ca8)"/>
   </g>
   <g id="patch_229">
    <path d="M 332.73145 282.430125 
L 333.92185 282.430125 
L 333.92185 281.543085 
L 332.73145 281.543085 
z
" clip-path="url(#p6869d43ca8)"/>
   </g>
   <g id="patch_230">
    <path d="M 333.92185 282.430125 
L 335.11225 282.430125 
L 335.11225 282.430125 
L 333.92185 282.430125 
z
" clip-path="url(#p6869d43ca8)"/>
   </g>
   <g id="patch_231">
    <path d="M 335.11225 282.430125 
L 336.30265 282.430125 
L 336.30265 282.430125 
L 335.11225 282.430125 
z
" clip-path="url(#p6869d43ca8)"/>
   </g>
   <g id="patch_232">
    <path d="M 336.30265 282.430125 
L 337.49305 282.430125 
L 337.49305 281.099565 
L 336.30265 281.099565 
z
" clip-path="url(#p6869d43ca8)"/>
   </g>
   <g id="patch_233">
    <path d="M 337.49305 282.430125 
L 338.68345 282.430125 
L 338.68345 281.099565 
L 337.49305 281.099565 
z
" clip-path="url(#p6869d43ca8)"/>
   </g>
   <g id="patch_234">
    <path d="M 338.68345 282.430125 
L 339.87385 282.430125 
L 339.87385 281.543085 
L 338.68345 281.543085 
z
" clip-path="url(#p6869d43ca8)"/>
   </g>
   <g id="patch_235">
    <path d="M 339.87385 282.430125 
L 341.06425 282.430125 
L 341.06425 280.656045 
L 339.87385 280.656045 
z
" clip-path="url(#p6869d43ca8)"/>
   </g>
   <g id="patch_236">
    <path d="M 341.06425 282.430125 
L 342.25465 282.430125 
L 342.25465 280.656045 
L 341.06425 280.656045 
z
" clip-path="url(#p6869d43ca8)"/>
   </g>
   <g id="patch_237">
    <path d="M 342.25465 282.430125 
L 343.44505 282.430125 
L 343.44505 281.099565 
L 342.25465 281.099565 
z
" clip-path="url(#p6869d43ca8)"/>
   </g>
   <g id="patch_238">
    <path d="M 343.44505 282.430125 
L 344.63545 282.430125 
L 344.63545 281.099565 
L 343.44505 281.099565 
z
" clip-path="url(#p6869d43ca8)"/>
   </g>
   <g id="patch_239">
    <path d="M 344.63545 282.430125 
L 345.82585 282.430125 
L 345.82585 281.986605 
L 344.63545 281.986605 
z
" clip-path="url(#p6869d43ca8)"/>
   </g>
   <g id="patch_240">
    <path d="M 345.82585 282.430125 
L 347.01625 282.430125 
L 347.01625 281.543085 
L 345.82585 281.543085 
z
" clip-path="url(#p6869d43ca8)"/>
   </g>
   <g id="patch_241">
    <path d="M 347.01625 282.430125 
L 348.20665 282.430125 
L 348.20665 281.543085 
L 347.01625 281.543085 
z
" clip-path="url(#p6869d43ca8)"/>
   </g>
   <g id="patch_242">
    <path d="M 348.20665 282.430125 
L 349.39705 282.430125 
L 349.39705 280.656045 
L 348.20665 280.656045 
z
" clip-path="url(#p6869d43ca8)"/>
   </g>
   <g id="patch_243">
    <path d="M 349.39705 282.430125 
L 350.58745 282.430125 
L 350.58745 281.986605 
L 349.39705 281.986605 
z
" clip-path="url(#p6869d43ca8)"/>
   </g>
   <g id="patch_244">
    <path d="M 350.58745 282.430125 
L 351.77785 282.430125 
L 351.77785 282.430125 
L 350.58745 282.430125 
z
" clip-path="url(#p6869d43ca8)"/>
   </g>
   <g id="patch_245">
    <path d="M 351.77785 282.430125 
L 352.96825 282.430125 
L 352.96825 281.986605 
L 351.77785 281.986605 
z
" clip-path="url(#p6869d43ca8)"/>
   </g>
   <g id="patch_246">
    <path d="M 352.96825 282.430125 
L 354.15865 282.430125 
L 354.15865 281.543085 
L 352.96825 281.543085 
z
" clip-path="url(#p6869d43ca8)"/>
   </g>
   <g id="patch_247">
    <path d="M 354.15865 282.430125 
L 355.34905 282.430125 
L 355.34905 281.099565 
L 354.15865 281.099565 
z
" clip-path="url(#p6869d43ca8)"/>
   </g>
   <g id="patch_248">
    <path d="M 355.34905 282.430125 
L 356.53945 282.430125 
L 356.53945 281.986605 
L 355.34905 281.986605 
z
" clip-path="url(#p6869d43ca8)"/>
   </g>
   <g id="patch_249">
    <path d="M 356.53945 282.430125 
L 357.72985 282.430125 
L 357.72985 282.430125 
L 356.53945 282.430125 
z
" clip-path="url(#p6869d43ca8)"/>
   </g>
   <g id="patch_250">
    <path d="M 357.72985 282.430125 
L 358.92025 282.430125 
L 358.92025 282.430125 
L 357.72985 282.430125 
z
" clip-path="url(#p6869d43ca8)"/>
   </g>
   <g id="patch_251">
    <path d="M 358.92025 282.430125 
L 360.11065 282.430125 
L 360.11065 281.986605 
L 358.92025 281.986605 
z
" clip-path="url(#p6869d43ca8)"/>
   </g>
   <g id="patch_252">
    <path d="M 360.11065 282.430125 
L 361.30105 282.430125 
L 361.30105 281.986605 
L 360.11065 281.986605 
z
" clip-path="url(#p6869d43ca8)"/>
   </g>
   <g id="patch_253">
    <path d="M 361.30105 282.430125 
L 362.49145 282.430125 
L 362.49145 282.430125 
L 361.30105 282.430125 
z
" clip-path="url(#p6869d43ca8)"/>
   </g>
   <g id="patch_254">
    <path d="M 362.49145 282.430125 
L 363.68185 282.430125 
L 363.68185 281.986605 
L 362.49145 281.986605 
z
" clip-path="url(#p6869d43ca8)"/>
   </g>
   <g id="patch_255">
    <path d="M 363.68185 282.430125 
L 364.87225 282.430125 
L 364.87225 281.986605 
L 363.68185 281.986605 
z
" clip-path="url(#p6869d43ca8)"/>
   </g>
   <g id="patch_256">
    <path d="M 364.87225 282.430125 
L 366.06265 282.430125 
L 366.06265 282.430125 
L 364.87225 282.430125 
z
" clip-path="url(#p6869d43ca8)"/>
   </g>
   <g id="patch_257">
    <path d="M 366.06265 282.430125 
L 367.25305 282.430125 
L 367.25305 281.986605 
L 366.06265 281.986605 
z
" clip-path="url(#p6869d43ca8)"/>
   </g>
   <g id="patch_258">
    <path d="M 367.25305 282.430125 
L 368.44345 282.430125 
L 368.44345 282.430125 
L 367.25305 282.430125 
z
" clip-path="url(#p6869d43ca8)"/>
   </g>
   <g id="patch_259">
    <path d="M 368.44345 282.430125 
L 369.63385 282.430125 
L 369.63385 282.430125 
L 368.44345 282.430125 
z
" clip-path="url(#p6869d43ca8)"/>
   </g>
   <g id="patch_260">
    <path d="M 369.63385 282.430125 
L 370.82425 282.430125 
L 370.82425 282.430125 
L 369.63385 282.430125 
z
" clip-path="url(#p6869d43ca8)"/>
   </g>
   <g id="patch_261">
    <path d="M 370.82425 282.430125 
L 372.01465 282.430125 
L 372.01465 282.430125 
L 370.82425 282.430125 
z
" clip-path="url(#p6869d43ca8)"/>
   </g>
   <g id="patch_262">
    <path d="M 372.01465 282.430125 
L 373.20505 282.430125 
L 373.20505 282.430125 
L 372.01465 282.430125 
z
" clip-path="url(#p6869d43ca8)"/>
   </g>
   <g id="patch_263">
    <path d="M 373.20505 282.430125 
L 374.39545 282.430125 
L 374.39545 281.986605 
L 373.20505 281.986605 
z
" clip-path="url(#p6869d43ca8)"/>
   </g>
   <g id="patch_264">
    <path d="M 374.39545 282.430125 
L 375.58585 282.430125 
L 375.58585 282.430125 
L 374.39545 282.430125 
z
" clip-path="url(#p6869d43ca8)"/>
   </g>
   <g id="patch_265">
    <path d="M 375.58585 282.430125 
L 376.77625 282.430125 
L 376.77625 282.430125 
L 375.58585 282.430125 
z
" clip-path="url(#p6869d43ca8)"/>
   </g>
   <g id="patch_266">
    <path d="M 376.77625 282.430125 
L 377.96665 282.430125 
L 377.96665 281.986605 
L 376.77625 281.986605 
z
" clip-path="url(#p6869d43ca8)"/>
   </g>
   <g id="patch_267">
    <path d="M 377.96665 282.430125 
L 379.15705 282.430125 
L 379.15705 282.430125 
L 377.96665 282.430125 
z
" clip-path="url(#p6869d43ca8)"/>
   </g>
   <g id="patch_268">
    <path d="M 379.15705 282.430125 
L 380.34745 282.430125 
L 380.34745 280.656045 
L 379.15705 280.656045 
z
" clip-path="url(#p6869d43ca8)"/>
   </g>
   <g id="patch_269">
    <path d="M 380.34745 282.430125 
L 381.53785 282.430125 
L 381.53785 281.543085 
L 380.34745 281.543085 
z
" clip-path="url(#p6869d43ca8)"/>
   </g>
   <g id="patch_270">
    <path d="M 381.53785 282.430125 
L 382.72825 282.430125 
L 382.72825 282.430125 
L 381.53785 282.430125 
z
" clip-path="url(#p6869d43ca8)"/>
   </g>
   <g id="patch_271">
    <path d="M 382.72825 282.430125 
L 383.91865 282.430125 
L 383.91865 281.543085 
L 382.72825 281.543085 
z
" clip-path="url(#p6869d43ca8)"/>
   </g>
   <g id="patch_272">
    <path d="M 383.91865 282.430125 
L 385.10905 282.430125 
L 385.10905 281.986605 
L 383.91865 281.986605 
z
" clip-path="url(#p6869d43ca8)"/>
   </g>
   <g id="patch_273">
    <path d="M 385.10905 282.430125 
L 386.29945 282.430125 
L 386.29945 282.430125 
L 385.10905 282.430125 
z
" clip-path="url(#p6869d43ca8)"/>
   </g>
   <g id="patch_274">
    <path d="M 386.29945 282.430125 
L 387.48985 282.430125 
L 387.48985 281.986605 
L 386.29945 281.986605 
z
" clip-path="url(#p6869d43ca8)"/>
   </g>
   <g id="patch_275">
    <path d="M 387.48985 282.430125 
L 388.68025 282.430125 
L 388.68025 281.986605 
L 387.48985 281.986605 
z
" clip-path="url(#p6869d43ca8)"/>
   </g>
   <g id="patch_276">
    <path d="M 388.68025 282.430125 
L 389.87065 282.430125 
L 389.87065 281.986605 
L 388.68025 281.986605 
z
" clip-path="url(#p6869d43ca8)"/>
   </g>
   <g id="patch_277">
    <path d="M 389.87065 282.430125 
L 391.06105 282.430125 
L 391.06105 282.430125 
L 389.87065 282.430125 
z
" clip-path="url(#p6869d43ca8)"/>
   </g>
   <g id="patch_278">
    <path d="M 391.06105 282.430125 
L 392.25145 282.430125 
L 392.25145 282.430125 
L 391.06105 282.430125 
z
" clip-path="url(#p6869d43ca8)"/>
   </g>
   <g id="patch_279">
    <path d="M 392.25145 282.430125 
L 393.44185 282.430125 
L 393.44185 281.099565 
L 392.25145 281.099565 
z
" clip-path="url(#p6869d43ca8)"/>
   </g>
   <g id="patch_280">
    <path d="M 393.44185 282.430125 
L 394.63225 282.430125 
L 394.63225 281.986605 
L 393.44185 281.986605 
z
" clip-path="url(#p6869d43ca8)"/>
   </g>
   <g id="patch_281">
    <path d="M 394.63225 282.430125 
L 395.82265 282.430125 
L 395.82265 281.986605 
L 394.63225 281.986605 
z
" clip-path="url(#p6869d43ca8)"/>
   </g>
   <g id="patch_282">
    <path d="M 395.82265 282.430125 
L 397.01305 282.430125 
L 397.01305 282.430125 
L 395.82265 282.430125 
z
" clip-path="url(#p6869d43ca8)"/>
   </g>
   <g id="patch_283">
    <path d="M 397.01305 282.430125 
L 398.20345 282.430125 
L 398.20345 282.430125 
L 397.01305 282.430125 
z
" clip-path="url(#p6869d43ca8)"/>
   </g>
   <g id="patch_284">
    <path d="M 398.20345 282.430125 
L 399.39385 282.430125 
L 399.39385 282.430125 
L 398.20345 282.430125 
z
" clip-path="url(#p6869d43ca8)"/>
   </g>
   <g id="patch_285">
    <path d="M 399.39385 282.430125 
L 400.58425 282.430125 
L 400.58425 281.986605 
L 399.39385 281.986605 
z
" clip-path="url(#p6869d43ca8)"/>
   </g>
   <g id="patch_286">
    <path d="M 400.58425 282.430125 
L 401.77465 282.430125 
L 401.77465 282.430125 
L 400.58425 282.430125 
z
" clip-path="url(#p6869d43ca8)"/>
   </g>
   <g id="patch_287">
    <path d="M 401.77465 282.430125 
L 402.96505 282.430125 
L 402.96505 281.986605 
L 401.77465 281.986605 
z
" clip-path="url(#p6869d43ca8)"/>
   </g>
   <g id="patch_288">
    <path d="M 402.96505 282.430125 
L 404.15545 282.430125 
L 404.15545 281.986605 
L 402.96505 281.986605 
z
" clip-path="url(#p6869d43ca8)"/>
   </g>
   <g id="patch_289">
    <path d="M 404.15545 282.430125 
L 405.34585 282.430125 
L 405.34585 282.430125 
L 404.15545 282.430125 
z
" clip-path="url(#p6869d43ca8)"/>
   </g>
   <g id="patch_290">
    <path d="M 405.34585 282.430125 
L 406.53625 282.430125 
L 406.53625 282.430125 
L 405.34585 282.430125 
z
" clip-path="url(#p6869d43ca8)"/>
   </g>
   <g id="patch_291">
    <path d="M 406.53625 282.430125 
L 407.72665 282.430125 
L 407.72665 281.099565 
L 406.53625 281.099565 
z
" clip-path="url(#p6869d43ca8)"/>
   </g>
   <g id="patch_292">
    <path d="M 407.72665 282.430125 
L 408.91705 282.430125 
L 408.91705 281.986605 
L 407.72665 281.986605 
z
" clip-path="url(#p6869d43ca8)"/>
   </g>
   <g id="patch_293">
    <path d="M 408.91705 282.430125 
L 410.10745 282.430125 
L 410.10745 282.430125 
L 408.91705 282.430125 
z
" clip-path="url(#p6869d43ca8)"/>
   </g>
   <g id="patch_294">
    <path d="M 410.10745 282.430125 
L 411.29785 282.430125 
L 411.29785 282.430125 
L 410.10745 282.430125 
z
" clip-path="url(#p6869d43ca8)"/>
   </g>
   <g id="patch_295">
    <path d="M 411.29785 282.430125 
L 412.48825 282.430125 
L 412.48825 281.986605 
L 411.29785 281.986605 
z
" clip-path="url(#p6869d43ca8)"/>
   </g>
   <g id="patch_296">
    <path d="M 412.48825 282.430125 
L 413.67865 282.430125 
L 413.67865 282.430125 
L 412.48825 282.430125 
z
" clip-path="url(#p6869d43ca8)"/>
   </g>
   <g id="patch_297">
    <path d="M 413.67865 282.430125 
L 414.86905 282.430125 
L 414.86905 281.986605 
L 413.67865 281.986605 
z
" clip-path="url(#p6869d43ca8)"/>
   </g>
   <g id="patch_298">
    <path d="M 414.86905 282.430125 
L 416.05945 282.430125 
L 416.05945 281.986605 
L 414.86905 281.986605 
z
" clip-path="url(#p6869d43ca8)"/>
   </g>
   <g id="patch_299">
    <path d="M 416.05945 282.430125 
L 417.24985 282.430125 
L 417.24985 281.986605 
L 416.05945 281.986605 
z
" clip-path="url(#p6869d43ca8)"/>
   </g>
   <g id="patch_300">
    <path d="M 417.24985 282.430125 
L 418.44025 282.430125 
L 418.44025 281.986605 
L 417.24985 281.986605 
z
" clip-path="url(#p6869d43ca8)"/>
   </g>
   <g id="patch_301">
    <path d="M 418.44025 282.430125 
L 419.63065 282.430125 
L 419.63065 282.430125 
L 418.44025 282.430125 
z
" clip-path="url(#p6869d43ca8)"/>
   </g>
   <g id="patch_302">
    <path d="M 419.63065 282.430125 
L 420.82105 282.430125 
L 420.82105 281.986605 
L 419.63065 281.986605 
z
" clip-path="url(#p6869d43ca8)"/>
   </g>
   <g id="patch_303">
    <path d="M 420.82105 282.430125 
L 422.01145 282.430125 
L 422.01145 281.099565 
L 420.82105 281.099565 
z
" clip-path="url(#p6869d43ca8)"/>
   </g>
   <g id="patch_304">
    <path d="M 422.01145 282.430125 
L 423.20185 282.430125 
L 423.20185 281.986605 
L 422.01145 281.986605 
z
" clip-path="url(#p6869d43ca8)"/>
   </g>
   <g id="patch_305">
    <path d="M 423.20185 282.430125 
L 424.39225 282.430125 
L 424.39225 282.430125 
L 423.20185 282.430125 
z
" clip-path="url(#p6869d43ca8)"/>
   </g>
   <g id="patch_306">
    <path d="M 424.39225 282.430125 
L 425.58265 282.430125 
L 425.58265 282.430125 
L 424.39225 282.430125 
z
" clip-path="url(#p6869d43ca8)"/>
   </g>
   <g id="patch_307">
    <path d="M 425.58265 282.430125 
L 426.77305 282.430125 
L 426.77305 282.430125 
L 425.58265 282.430125 
z
" clip-path="url(#p6869d43ca8)"/>
   </g>
   <g id="patch_308">
    <path d="M 426.77305 282.430125 
L 427.96345 282.430125 
L 427.96345 282.430125 
L 426.77305 282.430125 
z
" clip-path="url(#p6869d43ca8)"/>
   </g>
   <g id="patch_309">
    <path d="M 427.96345 282.430125 
L 429.15385 282.430125 
L 429.15385 282.430125 
L 427.96345 282.430125 
z
" clip-path="url(#p6869d43ca8)"/>
   </g>
   <g id="patch_310">
    <path d="M 429.15385 282.430125 
L 430.34425 282.430125 
L 430.34425 282.430125 
L 429.15385 282.430125 
z
" clip-path="url(#p6869d43ca8)"/>
   </g>
   <g id="patch_311">
    <path d="M 430.34425 282.430125 
L 431.53465 282.430125 
L 431.53465 282.430125 
L 430.34425 282.430125 
z
" clip-path="url(#p6869d43ca8)"/>
   </g>
   <g id="patch_312">
    <path d="M 431.53465 282.430125 
L 432.72505 282.430125 
L 432.72505 282.430125 
L 431.53465 282.430125 
z
" clip-path="url(#p6869d43ca8)"/>
   </g>
   <g id="patch_313">
    <path d="M 432.72505 282.430125 
L 433.91545 282.430125 
L 433.91545 282.430125 
L 432.72505 282.430125 
z
" clip-path="url(#p6869d43ca8)"/>
   </g>
   <g id="patch_314">
    <path d="M 433.91545 282.430125 
L 435.10585 282.430125 
L 435.10585 282.430125 
L 433.91545 282.430125 
z
" clip-path="url(#p6869d43ca8)"/>
   </g>
   <g id="patch_315">
    <path d="M 435.10585 282.430125 
L 436.29625 282.430125 
L 436.29625 281.986605 
L 435.10585 281.986605 
z
" clip-path="url(#p6869d43ca8)"/>
   </g>
   <g id="patch_316">
    <path d="M 436.29625 282.430125 
L 437.48665 282.430125 
L 437.48665 282.430125 
L 436.29625 282.430125 
z
" clip-path="url(#p6869d43ca8)"/>
   </g>
   <g id="patch_317">
    <path d="M 437.48665 282.430125 
L 438.67705 282.430125 
L 438.67705 281.986605 
L 437.48665 281.986605 
z
" clip-path="url(#p6869d43ca8)"/>
   </g>
   <g id="patch_318">
    <path d="M 438.67705 282.430125 
L 439.86745 282.430125 
L 439.86745 282.430125 
L 438.67705 282.430125 
z
" clip-path="url(#p6869d43ca8)"/>
   </g>
   <g id="patch_319">
    <path d="M 439.86745 282.430125 
L 441.05785 282.430125 
L 441.05785 282.430125 
L 439.86745 282.430125 
z
" clip-path="url(#p6869d43ca8)"/>
   </g>
   <g id="patch_320">
    <path d="M 441.05785 282.430125 
L 442.24825 282.430125 
L 442.24825 282.430125 
L 441.05785 282.430125 
z
" clip-path="url(#p6869d43ca8)"/>
   </g>
   <g id="patch_321">
    <path d="M 442.24825 282.430125 
L 443.43865 282.430125 
L 443.43865 282.430125 
L 442.24825 282.430125 
z
" clip-path="url(#p6869d43ca8)"/>
   </g>
   <g id="patch_322">
    <path d="M 443.43865 282.430125 
L 444.62905 282.430125 
L 444.62905 282.430125 
L 443.43865 282.430125 
z
" clip-path="url(#p6869d43ca8)"/>
   </g>
   <g id="patch_323">
    <path d="M 444.62905 282.430125 
L 445.81945 282.430125 
L 445.81945 281.986605 
L 444.62905 281.986605 
z
" clip-path="url(#p6869d43ca8)"/>
   </g>
   <g id="patch_324">
    <path d="M 445.81945 282.430125 
L 447.00985 282.430125 
L 447.00985 282.430125 
L 445.81945 282.430125 
z
" clip-path="url(#p6869d43ca8)"/>
   </g>
   <g id="patch_325">
    <path d="M 447.00985 282.430125 
L 448.20025 282.430125 
L 448.20025 282.430125 
L 447.00985 282.430125 
z
" clip-path="url(#p6869d43ca8)"/>
   </g>
   <g id="patch_326">
    <path d="M 448.20025 282.430125 
L 449.39065 282.430125 
L 449.39065 281.986605 
L 448.20025 281.986605 
z
" clip-path="url(#p6869d43ca8)"/>
   </g>
   <g id="patch_327">
    <path d="M 449.39065 282.430125 
L 450.58105 282.430125 
L 450.58105 282.430125 
L 449.39065 282.430125 
z
" clip-path="url(#p6869d43ca8)"/>
   </g>
   <g id="patch_328">
    <path d="M 450.58105 282.430125 
L 451.77145 282.430125 
L 451.77145 282.430125 
L 450.58105 282.430125 
z
" clip-path="url(#p6869d43ca8)"/>
   </g>
   <g id="patch_329">
    <path d="M 451.77145 282.430125 
L 452.96185 282.430125 
L 452.96185 282.430125 
L 451.77145 282.430125 
z
" clip-path="url(#p6869d43ca8)"/>
   </g>
   <g id="patch_330">
    <path d="M 452.96185 282.430125 
L 454.15225 282.430125 
L 454.15225 282.430125 
L 452.96185 282.430125 
z
" clip-path="url(#p6869d43ca8)"/>
   </g>
   <g id="patch_331">
    <path d="M 454.15225 282.430125 
L 455.34265 282.430125 
L 455.34265 282.430125 
L 454.15225 282.430125 
z
" clip-path="url(#p6869d43ca8)"/>
   </g>
   <g id="patch_332">
    <path d="M 455.34265 282.430125 
L 456.53305 282.430125 
L 456.53305 282.430125 
L 455.34265 282.430125 
z
" clip-path="url(#p6869d43ca8)"/>
   </g>
   <g id="patch_333">
    <path d="M 456.53305 282.430125 
L 457.72345 282.430125 
L 457.72345 282.430125 
L 456.53305 282.430125 
z
" clip-path="url(#p6869d43ca8)"/>
   </g>
   <g id="patch_334">
    <path d="M 457.72345 282.430125 
L 458.91385 282.430125 
L 458.91385 282.430125 
L 457.72345 282.430125 
z
" clip-path="url(#p6869d43ca8)"/>
   </g>
   <g id="patch_335">
    <path d="M 458.91385 282.430125 
L 460.10425 282.430125 
L 460.10425 282.430125 
L 458.91385 282.430125 
z
" clip-path="url(#p6869d43ca8)"/>
   </g>
   <g id="patch_336">
    <path d="M 460.10425 282.430125 
L 461.29465 282.430125 
L 461.29465 282.430125 
L 460.10425 282.430125 
z
" clip-path="url(#p6869d43ca8)"/>
   </g>
   <g id="patch_337">
    <path d="M 461.29465 282.430125 
L 462.48505 282.430125 
L 462.48505 282.430125 
L 461.29465 282.430125 
z
" clip-path="url(#p6869d43ca8)"/>
   </g>
   <g id="patch_338">
    <path d="M 462.48505 282.430125 
L 463.67545 282.430125 
L 463.67545 282.430125 
L 462.48505 282.430125 
z
" clip-path="url(#p6869d43ca8)"/>
   </g>
   <g id="patch_339">
    <path d="M 463.67545 282.430125 
L 464.86585 282.430125 
L 464.86585 282.430125 
L 463.67545 282.430125 
z
" clip-path="url(#p6869d43ca8)"/>
   </g>
   <g id="patch_340">
    <path d="M 464.86585 282.430125 
L 466.05625 282.430125 
L 466.05625 282.430125 
L 464.86585 282.430125 
z
" clip-path="url(#p6869d43ca8)"/>
   </g>
   <g id="patch_341">
    <path d="M 466.05625 282.430125 
L 467.24665 282.430125 
L 467.24665 282.430125 
L 466.05625 282.430125 
z
" clip-path="url(#p6869d43ca8)"/>
   </g>
   <g id="patch_342">
    <path d="M 467.24665 282.430125 
L 468.43705 282.430125 
L 468.43705 281.986605 
L 467.24665 281.986605 
z
" clip-path="url(#p6869d43ca8)"/>
   </g>
   <g id="patch_343">
    <path d="M 468.43705 282.430125 
L 469.62745 282.430125 
L 469.62745 282.430125 
L 468.43705 282.430125 
z
" clip-path="url(#p6869d43ca8)"/>
   </g>
   <g id="patch_344">
    <path d="M 469.62745 282.430125 
L 470.81785 282.430125 
L 470.81785 281.986605 
L 469.62745 281.986605 
z
" clip-path="url(#p6869d43ca8)"/>
   </g>
   <g id="patch_345">
    <path d="M 470.81785 282.430125 
L 472.00825 282.430125 
L 472.00825 282.430125 
L 470.81785 282.430125 
z
" clip-path="url(#p6869d43ca8)"/>
   </g>
   <g id="patch_346">
    <path d="M 472.00825 282.430125 
L 473.19865 282.430125 
L 473.19865 282.430125 
L 472.00825 282.430125 
z
" clip-path="url(#p6869d43ca8)"/>
   </g>
   <g id="patch_347">
    <path d="M 473.19865 282.430125 
L 474.38905 282.430125 
L 474.38905 282.430125 
L 473.19865 282.430125 
z
" clip-path="url(#p6869d43ca8)"/>
   </g>
   <g id="patch_348">
    <path d="M 474.38905 282.430125 
L 475.57945 282.430125 
L 475.57945 282.430125 
L 474.38905 282.430125 
z
" clip-path="url(#p6869d43ca8)"/>
   </g>
   <g id="patch_349">
    <path d="M 475.57945 282.430125 
L 476.76985 282.430125 
L 476.76985 282.430125 
L 475.57945 282.430125 
z
" clip-path="url(#p6869d43ca8)"/>
   </g>
   <g id="patch_350">
    <path d="M 476.76985 282.430125 
L 477.96025 282.430125 
L 477.96025 282.430125 
L 476.76985 282.430125 
z
" clip-path="url(#p6869d43ca8)"/>
   </g>
   <g id="patch_351">
    <path d="M 477.96025 282.430125 
L 479.15065 282.430125 
L 479.15065 282.430125 
L 477.96025 282.430125 
z
" clip-path="url(#p6869d43ca8)"/>
   </g>
   <g id="patch_352">
    <path d="M 479.15065 282.430125 
L 480.34105 282.430125 
L 480.34105 282.430125 
L 479.15065 282.430125 
z
" clip-path="url(#p6869d43ca8)"/>
   </g>
   <g id="patch_353">
    <path d="M 480.34105 282.430125 
L 481.53145 282.430125 
L 481.53145 282.430125 
L 480.34105 282.430125 
z
" clip-path="url(#p6869d43ca8)"/>
   </g>
   <g id="patch_354">
    <path d="M 481.53145 282.430125 
L 482.72185 282.430125 
L 482.72185 282.430125 
L 481.53145 282.430125 
z
" clip-path="url(#p6869d43ca8)"/>
   </g>
   <g id="patch_355">
    <path d="M 482.72185 282.430125 
L 483.91225 282.430125 
L 483.91225 281.986605 
L 482.72185 281.986605 
z
" clip-path="url(#p6869d43ca8)"/>
   </g>
   <g id="patch_356">
    <path d="M 483.91225 282.430125 
L 485.10265 282.430125 
L 485.10265 282.430125 
L 483.91225 282.430125 
z
" clip-path="url(#p6869d43ca8)"/>
   </g>
   <g id="patch_357">
    <path d="M 485.10265 282.430125 
L 486.29305 282.430125 
L 486.29305 282.430125 
L 485.10265 282.430125 
z
" clip-path="url(#p6869d43ca8)"/>
   </g>
   <g id="patch_358">
    <path d="M 486.29305 282.430125 
L 487.48345 282.430125 
L 487.48345 282.430125 
L 486.29305 282.430125 
z
" clip-path="url(#p6869d43ca8)"/>
   </g>
   <g id="patch_359">
    <path d="M 487.48345 282.430125 
L 488.67385 282.430125 
L 488.67385 282.430125 
L 487.48345 282.430125 
z
" clip-path="url(#p6869d43ca8)"/>
   </g>
   <g id="patch_360">
    <path d="M 488.67385 282.430125 
L 489.86425 282.430125 
L 489.86425 282.430125 
L 488.67385 282.430125 
z
" clip-path="url(#p6869d43ca8)"/>
   </g>
   <g id="patch_361">
    <path d="M 489.86425 282.430125 
L 491.05465 282.430125 
L 491.05465 282.430125 
L 489.86425 282.430125 
z
" clip-path="url(#p6869d43ca8)"/>
   </g>
   <g id="patch_362">
    <path d="M 491.05465 282.430125 
L 492.24505 282.430125 
L 492.24505 282.430125 
L 491.05465 282.430125 
z
" clip-path="url(#p6869d43ca8)"/>
   </g>
   <g id="patch_363">
    <path d="M 492.24505 282.430125 
L 493.43545 282.430125 
L 493.43545 282.430125 
L 492.24505 282.430125 
z
" clip-path="url(#p6869d43ca8)"/>
   </g>
   <g id="patch_364">
    <path d="M 493.43545 282.430125 
L 494.62585 282.430125 
L 494.62585 282.430125 
L 493.43545 282.430125 
z
" clip-path="url(#p6869d43ca8)"/>
   </g>
   <g id="patch_365">
    <path d="M 494.62585 282.430125 
L 495.81625 282.430125 
L 495.81625 282.430125 
L 494.62585 282.430125 
z
" clip-path="url(#p6869d43ca8)"/>
   </g>
   <g id="patch_366">
    <path d="M 495.81625 282.430125 
L 497.00665 282.430125 
L 497.00665 282.430125 
L 495.81625 282.430125 
z
" clip-path="url(#p6869d43ca8)"/>
   </g>
   <g id="patch_367">
    <path d="M 497.00665 282.430125 
L 498.19705 282.430125 
L 498.19705 282.430125 
L 497.00665 282.430125 
z
" clip-path="url(#p6869d43ca8)"/>
   </g>
   <g id="patch_368">
    <path d="M 498.19705 282.430125 
L 499.38745 282.430125 
L 499.38745 282.430125 
L 498.19705 282.430125 
z
" clip-path="url(#p6869d43ca8)"/>
   </g>
   <g id="patch_369">
    <path d="M 499.38745 282.430125 
L 500.57785 282.430125 
L 500.57785 282.430125 
L 499.38745 282.430125 
z
" clip-path="url(#p6869d43ca8)"/>
   </g>
   <g id="patch_370">
    <path d="M 500.57785 282.430125 
L 501.76825 282.430125 
L 501.76825 282.430125 
L 500.57785 282.430125 
z
" clip-path="url(#p6869d43ca8)"/>
   </g>
   <g id="patch_371">
    <path d="M 501.76825 282.430125 
L 502.95865 282.430125 
L 502.95865 282.430125 
L 501.76825 282.430125 
z
" clip-path="url(#p6869d43ca8)"/>
   </g>
   <g id="patch_372">
    <path d="M 502.95865 282.430125 
L 504.14905 282.430125 
L 504.14905 282.430125 
L 502.95865 282.430125 
z
" clip-path="url(#p6869d43ca8)"/>
   </g>
   <g id="patch_373">
    <path d="M 504.14905 282.430125 
L 505.33945 282.430125 
L 505.33945 282.430125 
L 504.14905 282.430125 
z
" clip-path="url(#p6869d43ca8)"/>
   </g>
   <g id="patch_374">
    <path d="M 505.33945 282.430125 
L 506.52985 282.430125 
L 506.52985 282.430125 
L 505.33945 282.430125 
z
" clip-path="url(#p6869d43ca8)"/>
   </g>
   <g id="patch_375">
    <path d="M 506.52985 282.430125 
L 507.72025 282.430125 
L 507.72025 282.430125 
L 506.52985 282.430125 
z
" clip-path="url(#p6869d43ca8)"/>
   </g>
   <g id="patch_376">
    <path d="M 507.72025 282.430125 
L 508.91065 282.430125 
L 508.91065 282.430125 
L 507.72025 282.430125 
z
" clip-path="url(#p6869d43ca8)"/>
   </g>
   <g id="patch_377">
    <path d="M 508.91065 282.430125 
L 510.10105 282.430125 
L 510.10105 282.430125 
L 508.91065 282.430125 
z
" clip-path="url(#p6869d43ca8)"/>
   </g>
   <g id="patch_378">
    <path d="M 510.10105 282.430125 
L 511.29145 282.430125 
L 511.29145 282.430125 
L 510.10105 282.430125 
z
" clip-path="url(#p6869d43ca8)"/>
   </g>
   <g id="patch_379">
    <path d="M 511.29145 282.430125 
L 512.48185 282.430125 
L 512.48185 282.430125 
L 511.29145 282.430125 
z
" clip-path="url(#p6869d43ca8)"/>
   </g>
   <g id="patch_380">
    <path d="M 512.48185 282.430125 
L 513.67225 282.430125 
L 513.67225 282.430125 
L 512.48185 282.430125 
z
" clip-path="url(#p6869d43ca8)"/>
   </g>
   <g id="patch_381">
    <path d="M 513.67225 282.430125 
L 514.86265 282.430125 
L 514.86265 282.430125 
L 513.67225 282.430125 
z
" clip-path="url(#p6869d43ca8)"/>
   </g>
   <g id="patch_382">
    <path d="M 514.86265 282.430125 
L 516.05305 282.430125 
L 516.05305 282.430125 
L 514.86265 282.430125 
z
" clip-path="url(#p6869d43ca8)"/>
   </g>
   <g id="patch_383">
    <path d="M 516.05305 282.430125 
L 517.24345 282.430125 
L 517.24345 282.430125 
L 516.05305 282.430125 
z
" clip-path="url(#p6869d43ca8)"/>
   </g>
   <g id="patch_384">
    <path d="M 517.24345 282.430125 
L 518.43385 282.430125 
L 518.43385 282.430125 
L 517.24345 282.430125 
z
" clip-path="url(#p6869d43ca8)"/>
   </g>
   <g id="patch_385">
    <path d="M 518.43385 282.430125 
L 519.62425 282.430125 
L 519.62425 282.430125 
L 518.43385 282.430125 
z
" clip-path="url(#p6869d43ca8)"/>
   </g>
   <g id="patch_386">
    <path d="M 519.62425 282.430125 
L 520.81465 282.430125 
L 520.81465 282.430125 
L 519.62425 282.430125 
z
" clip-path="url(#p6869d43ca8)"/>
   </g>
   <g id="patch_387">
    <path d="M 520.81465 282.430125 
L 522.00505 282.430125 
L 522.00505 282.430125 
L 520.81465 282.430125 
z
" clip-path="url(#p6869d43ca8)"/>
   </g>
   <g id="patch_388">
    <path d="M 522.00505 282.430125 
L 523.19545 282.430125 
L 523.19545 282.430125 
L 522.00505 282.430125 
z
" clip-path="url(#p6869d43ca8)"/>
   </g>
   <g id="patch_389">
    <path d="M 523.19545 282.430125 
L 524.38585 282.430125 
L 524.38585 282.430125 
L 523.19545 282.430125 
z
" clip-path="url(#p6869d43ca8)"/>
   </g>
   <g id="patch_390">
    <path d="M 524.38585 282.430125 
L 525.57625 282.430125 
L 525.57625 282.430125 
L 524.38585 282.430125 
z
" clip-path="url(#p6869d43ca8)"/>
   </g>
   <g id="patch_391">
    <path d="M 525.57625 282.430125 
L 526.76665 282.430125 
L 526.76665 282.430125 
L 525.57625 282.430125 
z
" clip-path="url(#p6869d43ca8)"/>
   </g>
   <g id="patch_392">
    <path d="M 526.76665 282.430125 
L 527.95705 282.430125 
L 527.95705 282.430125 
L 526.76665 282.430125 
z
" clip-path="url(#p6869d43ca8)"/>
   </g>
   <g id="patch_393">
    <path d="M 527.95705 282.430125 
L 529.14745 282.430125 
L 529.14745 282.430125 
L 527.95705 282.430125 
z
" clip-path="url(#p6869d43ca8)"/>
   </g>
   <g id="patch_394">
    <path d="M 529.14745 282.430125 
L 530.33785 282.430125 
L 530.33785 282.430125 
L 529.14745 282.430125 
z
" clip-path="url(#p6869d43ca8)"/>
   </g>
   <g id="patch_395">
    <path d="M 530.33785 282.430125 
L 531.52825 282.430125 
L 531.52825 282.430125 
L 530.33785 282.430125 
z
" clip-path="url(#p6869d43ca8)"/>
   </g>
   <g id="patch_396">
    <path d="M 531.52825 282.430125 
L 532.71865 282.430125 
L 532.71865 282.430125 
L 531.52825 282.430125 
z
" clip-path="url(#p6869d43ca8)"/>
   </g>
   <g id="patch_397">
    <path d="M 532.71865 282.430125 
L 533.90905 282.430125 
L 533.90905 282.430125 
L 532.71865 282.430125 
z
" clip-path="url(#p6869d43ca8)"/>
   </g>
   <g id="patch_398">
    <path d="M 533.90905 282.430125 
L 535.09945 282.430125 
L 535.09945 282.430125 
L 533.90905 282.430125 
z
" clip-path="url(#p6869d43ca8)"/>
   </g>
   <g id="patch_399">
    <path d="M 535.09945 282.430125 
L 536.28985 282.430125 
L 536.28985 282.430125 
L 535.09945 282.430125 
z
" clip-path="url(#p6869d43ca8)"/>
   </g>
   <g id="patch_400">
    <path d="M 536.28985 282.430125 
L 537.48025 282.430125 
L 537.48025 282.430125 
L 536.28985 282.430125 
z
" clip-path="url(#p6869d43ca8)"/>
   </g>
   <g id="patch_401">
    <path d="M 537.48025 282.430125 
L 538.67065 282.430125 
L 538.67065 282.430125 
L 537.48025 282.430125 
z
" clip-path="url(#p6869d43ca8)"/>
   </g>
   <g id="patch_402">
    <path d="M 538.67065 282.430125 
L 539.86105 282.430125 
L 539.86105 282.430125 
L 538.67065 282.430125 
z
" clip-path="url(#p6869d43ca8)"/>
   </g>
   <g id="patch_403">
    <path d="M 539.86105 282.430125 
L 541.05145 282.430125 
L 541.05145 282.430125 
L 539.86105 282.430125 
z
" clip-path="url(#p6869d43ca8)"/>
   </g>
   <g id="patch_404">
    <path d="M 541.05145 282.430125 
L 542.24185 282.430125 
L 542.24185 282.430125 
L 541.05145 282.430125 
z
" clip-path="url(#p6869d43ca8)"/>
   </g>
   <g id="patch_405">
    <path d="M 542.24185 282.430125 
L 543.43225 282.430125 
L 543.43225 282.430125 
L 542.24185 282.430125 
z
" clip-path="url(#p6869d43ca8)"/>
   </g>
   <g id="patch_406">
    <path d="M 543.43225 282.430125 
L 544.62265 282.430125 
L 544.62265 282.430125 
L 543.43225 282.430125 
z
" clip-path="url(#p6869d43ca8)"/>
   </g>
   <g id="patch_407">
    <path d="M 544.62265 282.430125 
L 545.81305 282.430125 
L 545.81305 282.430125 
L 544.62265 282.430125 
z
" clip-path="url(#p6869d43ca8)"/>
   </g>
   <g id="patch_408">
    <path d="M 545.81305 282.430125 
L 547.00345 282.430125 
L 547.00345 282.430125 
L 545.81305 282.430125 
z
" clip-path="url(#p6869d43ca8)"/>
   </g>
   <g id="patch_409">
    <path d="M 547.00345 282.430125 
L 548.19385 282.430125 
L 548.19385 282.430125 
L 547.00345 282.430125 
z
" clip-path="url(#p6869d43ca8)"/>
   </g>
   <g id="patch_410">
    <path d="M 548.19385 282.430125 
L 549.38425 282.430125 
L 549.38425 282.430125 
L 548.19385 282.430125 
z
" clip-path="url(#p6869d43ca8)"/>
   </g>
   <g id="patch_411">
    <path d="M 549.38425 282.430125 
L 550.57465 282.430125 
L 550.57465 282.430125 
L 549.38425 282.430125 
z
" clip-path="url(#p6869d43ca8)"/>
   </g>
   <g id="patch_412">
    <path d="M 550.57465 282.430125 
L 551.76505 282.430125 
L 551.76505 282.430125 
L 550.57465 282.430125 
z
" clip-path="url(#p6869d43ca8)"/>
   </g>
   <g id="patch_413">
    <path d="M 551.76505 282.430125 
L 552.95545 282.430125 
L 552.95545 282.430125 
L 551.76505 282.430125 
z
" clip-path="url(#p6869d43ca8)"/>
   </g>
   <g id="patch_414">
    <path d="M 552.95545 282.430125 
L 554.14585 282.430125 
L 554.14585 282.430125 
L 552.95545 282.430125 
z
" clip-path="url(#p6869d43ca8)"/>
   </g>
   <g id="patch_415">
    <path d="M 554.14585 282.430125 
L 555.33625 282.430125 
L 555.33625 282.430125 
L 554.14585 282.430125 
z
" clip-path="url(#p6869d43ca8)"/>
   </g>
   <g id="patch_416">
    <path d="M 555.33625 282.430125 
L 556.52665 282.430125 
L 556.52665 282.430125 
L 555.33625 282.430125 
z
" clip-path="url(#p6869d43ca8)"/>
   </g>
   <g id="patch_417">
    <path d="M 556.52665 282.430125 
L 557.71705 282.430125 
L 557.71705 282.430125 
L 556.52665 282.430125 
z
" clip-path="url(#p6869d43ca8)"/>
   </g>
   <g id="patch_418">
    <path d="M 557.71705 282.430125 
L 558.90745 282.430125 
L 558.90745 282.430125 
L 557.71705 282.430125 
z
" clip-path="url(#p6869d43ca8)"/>
   </g>
   <g id="patch_419">
    <path d="M 558.90745 282.430125 
L 560.09785 282.430125 
L 560.09785 282.430125 
L 558.90745 282.430125 
z
" clip-path="url(#p6869d43ca8)"/>
   </g>
   <g id="patch_420">
    <path d="M 560.09785 282.430125 
L 561.28825 282.430125 
L 561.28825 282.430125 
L 560.09785 282.430125 
z
" clip-path="url(#p6869d43ca8)"/>
   </g>
   <g id="patch_421">
    <path d="M 561.28825 282.430125 
L 562.47865 282.430125 
L 562.47865 282.430125 
L 561.28825 282.430125 
z
" clip-path="url(#p6869d43ca8)"/>
   </g>
   <g id="patch_422">
    <path d="M 562.47865 282.430125 
L 563.66905 282.430125 
L 563.66905 282.430125 
L 562.47865 282.430125 
z
" clip-path="url(#p6869d43ca8)"/>
   </g>
   <g id="patch_423">
    <path d="M 563.66905 282.430125 
L 564.85945 282.430125 
L 564.85945 282.430125 
L 563.66905 282.430125 
z
" clip-path="url(#p6869d43ca8)"/>
   </g>
   <g id="patch_424">
    <path d="M 564.85945 282.430125 
L 566.04985 282.430125 
L 566.04985 282.430125 
L 564.85945 282.430125 
z
" clip-path="url(#p6869d43ca8)"/>
   </g>
   <g id="patch_425">
    <path d="M 566.04985 282.430125 
L 567.24025 282.430125 
L 567.24025 282.430125 
L 566.04985 282.430125 
z
" clip-path="url(#p6869d43ca8)"/>
   </g>
   <g id="patch_426">
    <path d="M 567.24025 282.430125 
L 568.43065 282.430125 
L 568.43065 282.430125 
L 567.24025 282.430125 
z
" clip-path="url(#p6869d43ca8)"/>
   </g>
   <g id="patch_427">
    <path d="M 568.43065 282.430125 
L 569.62105 282.430125 
L 569.62105 282.430125 
L 568.43065 282.430125 
z
" clip-path="url(#p6869d43ca8)"/>
   </g>
   <g id="patch_428">
    <path d="M 569.62105 282.430125 
L 570.81145 282.430125 
L 570.81145 282.430125 
L 569.62105 282.430125 
z
" clip-path="url(#p6869d43ca8)"/>
   </g>
   <g id="patch_429">
    <path d="M 570.81145 282.430125 
L 572.00185 282.430125 
L 572.00185 282.430125 
L 570.81145 282.430125 
z
" clip-path="url(#p6869d43ca8)"/>
   </g>
   <g id="patch_430">
    <path d="M 572.00185 282.430125 
L 573.19225 282.430125 
L 573.19225 282.430125 
L 572.00185 282.430125 
z
" clip-path="url(#p6869d43ca8)"/>
   </g>
   <g id="patch_431">
    <path d="M 573.19225 282.430125 
L 574.38265 282.430125 
L 574.38265 282.430125 
L 573.19225 282.430125 
z
" clip-path="url(#p6869d43ca8)"/>
   </g>
   <g id="patch_432">
    <path d="M 574.38265 282.430125 
L 575.57305 282.430125 
L 575.57305 282.430125 
L 574.38265 282.430125 
z
" clip-path="url(#p6869d43ca8)"/>
   </g>
   <g id="patch_433">
    <path d="M 575.57305 282.430125 
L 576.76345 282.430125 
L 576.76345 282.430125 
L 575.57305 282.430125 
z
" clip-path="url(#p6869d43ca8)"/>
   </g>
   <g id="patch_434">
    <path d="M 576.76345 282.430125 
L 577.95385 282.430125 
L 577.95385 282.430125 
L 576.76345 282.430125 
z
" clip-path="url(#p6869d43ca8)"/>
   </g>
   <g id="patch_435">
    <path d="M 577.95385 282.430125 
L 579.14425 282.430125 
L 579.14425 282.430125 
L 577.95385 282.430125 
z
" clip-path="url(#p6869d43ca8)"/>
   </g>
   <g id="patch_436">
    <path d="M 579.14425 282.430125 
L 580.33465 282.430125 
L 580.33465 282.430125 
L 579.14425 282.430125 
z
" clip-path="url(#p6869d43ca8)"/>
   </g>
   <g id="patch_437">
    <path d="M 580.33465 282.430125 
L 581.52505 282.430125 
L 581.52505 282.430125 
L 580.33465 282.430125 
z
" clip-path="url(#p6869d43ca8)"/>
   </g>
   <g id="patch_438">
    <path d="M 581.52505 282.430125 
L 582.71545 282.430125 
L 582.71545 282.430125 
L 581.52505 282.430125 
z
" clip-path="url(#p6869d43ca8)"/>
   </g>
   <g id="patch_439">
    <path d="M 582.71545 282.430125 
L 583.90585 282.430125 
L 583.90585 282.430125 
L 582.71545 282.430125 
z
" clip-path="url(#p6869d43ca8)"/>
   </g>
   <g id="patch_440">
    <path d="M 583.90585 282.430125 
L 585.09625 282.430125 
L 585.09625 282.430125 
L 583.90585 282.430125 
z
" clip-path="url(#p6869d43ca8)"/>
   </g>
   <g id="patch_441">
    <path d="M 585.09625 282.430125 
L 586.28665 282.430125 
L 586.28665 282.430125 
L 585.09625 282.430125 
z
" clip-path="url(#p6869d43ca8)"/>
   </g>
   <g id="patch_442">
    <path d="M 586.28665 282.430125 
L 587.47705 282.430125 
L 587.47705 282.430125 
L 586.28665 282.430125 
z
" clip-path="url(#p6869d43ca8)"/>
   </g>
   <g id="patch_443">
    <path d="M 587.47705 282.430125 
L 588.66745 282.430125 
L 588.66745 282.430125 
L 587.47705 282.430125 
z
" clip-path="url(#p6869d43ca8)"/>
   </g>
   <g id="patch_444">
    <path d="M 588.66745 282.430125 
L 589.85785 282.430125 
L 589.85785 282.430125 
L 588.66745 282.430125 
z
" clip-path="url(#p6869d43ca8)"/>
   </g>
   <g id="patch_445">
    <path d="M 589.85785 282.430125 
L 591.04825 282.430125 
L 591.04825 282.430125 
L 589.85785 282.430125 
z
" clip-path="url(#p6869d43ca8)"/>
   </g>
   <g id="patch_446">
    <path d="M 591.04825 282.430125 
L 592.23865 282.430125 
L 592.23865 281.986605 
L 591.04825 281.986605 
z
" clip-path="url(#p6869d43ca8)"/>
   </g>
   <g id="patch_447">
    <path d="M 592.23865 282.430125 
L 593.42905 282.430125 
L 593.42905 282.430125 
L 592.23865 282.430125 
z
" clip-path="url(#p6869d43ca8)"/>
   </g>
   <g id="patch_448">
    <path d="M 593.42905 282.430125 
L 594.61945 282.430125 
L 594.61945 282.430125 
L 593.42905 282.430125 
z
" clip-path="url(#p6869d43ca8)"/>
   </g>
   <g id="patch_449">
    <path d="M 594.61945 282.430125 
L 595.80985 282.430125 
L 595.80985 282.430125 
L 594.61945 282.430125 
z
" clip-path="url(#p6869d43ca8)"/>
   </g>
   <g id="patch_450">
    <path d="M 595.80985 282.430125 
L 597.00025 282.430125 
L 597.00025 282.430125 
L 595.80985 282.430125 
z
" clip-path="url(#p6869d43ca8)"/>
   </g>
   <g id="patch_451">
    <path d="M 597.00025 282.430125 
L 598.19065 282.430125 
L 598.19065 282.430125 
L 597.00025 282.430125 
z
" clip-path="url(#p6869d43ca8)"/>
   </g>
   <g id="patch_452">
    <path d="M 598.19065 282.430125 
L 599.38105 282.430125 
L 599.38105 282.430125 
L 598.19065 282.430125 
z
" clip-path="url(#p6869d43ca8)"/>
   </g>
   <g id="patch_453">
    <path d="M 599.38105 282.430125 
L 600.57145 282.430125 
L 600.57145 282.430125 
L 599.38105 282.430125 
z
" clip-path="url(#p6869d43ca8)"/>
   </g>
   <g id="patch_454">
    <path d="M 600.57145 282.430125 
L 601.76185 282.430125 
L 601.76185 282.430125 
L 600.57145 282.430125 
z
" clip-path="url(#p6869d43ca8)"/>
   </g>
   <g id="patch_455">
    <path d="M 601.76185 282.430125 
L 602.95225 282.430125 
L 602.95225 282.430125 
L 601.76185 282.430125 
z
" clip-path="url(#p6869d43ca8)"/>
   </g>
   <g id="patch_456">
    <path d="M 602.95225 282.430125 
L 604.14265 282.430125 
L 604.14265 282.430125 
L 602.95225 282.430125 
z
" clip-path="url(#p6869d43ca8)"/>
   </g>
   <g id="patch_457">
    <path d="M 604.14265 282.430125 
L 605.33305 282.430125 
L 605.33305 282.430125 
L 604.14265 282.430125 
z
" clip-path="url(#p6869d43ca8)"/>
   </g>
   <g id="patch_458">
    <path d="M 605.33305 282.430125 
L 606.52345 282.430125 
L 606.52345 282.430125 
L 605.33305 282.430125 
z
" clip-path="url(#p6869d43ca8)"/>
   </g>
   <g id="patch_459">
    <path d="M 606.52345 282.430125 
L 607.71385 282.430125 
L 607.71385 282.430125 
L 606.52345 282.430125 
z
" clip-path="url(#p6869d43ca8)"/>
   </g>
   <g id="patch_460">
    <path d="M 607.71385 282.430125 
L 608.90425 282.430125 
L 608.90425 282.430125 
L 607.71385 282.430125 
z
" clip-path="url(#p6869d43ca8)"/>
   </g>
   <g id="patch_461">
    <path d="M 608.90425 282.430125 
L 610.09465 282.430125 
L 610.09465 282.430125 
L 608.90425 282.430125 
z
" clip-path="url(#p6869d43ca8)"/>
   </g>
   <g id="patch_462">
    <path d="M 610.09465 282.430125 
L 611.28505 282.430125 
L 611.28505 282.430125 
L 610.09465 282.430125 
z
" clip-path="url(#p6869d43ca8)"/>
   </g>
   <g id="patch_463">
    <path d="M 611.28505 282.430125 
L 612.47545 282.430125 
L 612.47545 282.430125 
L 611.28505 282.430125 
z
" clip-path="url(#p6869d43ca8)"/>
   </g>
   <g id="patch_464">
    <path d="M 612.47545 282.430125 
L 613.66585 282.430125 
L 613.66585 282.430125 
L 612.47545 282.430125 
z
" clip-path="url(#p6869d43ca8)"/>
   </g>
   <g id="patch_465">
    <path d="M 613.66585 282.430125 
L 614.85625 282.430125 
L 614.85625 282.430125 
L 613.66585 282.430125 
z
" clip-path="url(#p6869d43ca8)"/>
   </g>
   <g id="patch_466">
    <path d="M 614.85625 282.430125 
L 616.04665 282.430125 
L 616.04665 282.430125 
L 614.85625 282.430125 
z
" clip-path="url(#p6869d43ca8)"/>
   </g>
   <g id="patch_467">
    <path d="M 616.04665 282.430125 
L 617.23705 282.430125 
L 617.23705 282.430125 
L 616.04665 282.430125 
z
" clip-path="url(#p6869d43ca8)"/>
   </g>
   <g id="patch_468">
    <path d="M 617.23705 282.430125 
L 618.42745 282.430125 
L 618.42745 282.430125 
L 617.23705 282.430125 
z
" clip-path="url(#p6869d43ca8)"/>
   </g>
   <g id="patch_469">
    <path d="M 618.42745 282.430125 
L 619.61785 282.430125 
L 619.61785 282.430125 
L 618.42745 282.430125 
z
" clip-path="url(#p6869d43ca8)"/>
   </g>
   <g id="patch_470">
    <path d="M 619.61785 282.430125 
L 620.80825 282.430125 
L 620.80825 282.430125 
L 619.61785 282.430125 
z
" clip-path="url(#p6869d43ca8)"/>
   </g>
   <g id="patch_471">
    <path d="M 620.80825 282.430125 
L 621.99865 282.430125 
L 621.99865 282.430125 
L 620.80825 282.430125 
z
" clip-path="url(#p6869d43ca8)"/>
   </g>
   <g id="patch_472">
    <path d="M 621.99865 282.430125 
L 623.18905 282.430125 
L 623.18905 282.430125 
L 621.99865 282.430125 
z
" clip-path="url(#p6869d43ca8)"/>
   </g>
   <g id="patch_473">
    <path d="M 623.18905 282.430125 
L 624.37945 282.430125 
L 624.37945 282.430125 
L 623.18905 282.430125 
z
" clip-path="url(#p6869d43ca8)"/>
   </g>
   <g id="patch_474">
    <path d="M 624.37945 282.430125 
L 625.56985 282.430125 
L 625.56985 282.430125 
L 624.37945 282.430125 
z
" clip-path="url(#p6869d43ca8)"/>
   </g>
   <g id="patch_475">
    <path d="M 625.56985 282.430125 
L 626.76025 282.430125 
L 626.76025 282.430125 
L 625.56985 282.430125 
z
" clip-path="url(#p6869d43ca8)"/>
   </g>
   <g id="patch_476">
    <path d="M 626.76025 282.430125 
L 627.95065 282.430125 
L 627.95065 282.430125 
L 626.76025 282.430125 
z
" clip-path="url(#p6869d43ca8)"/>
   </g>
   <g id="patch_477">
    <path d="M 627.95065 282.430125 
L 629.14105 282.430125 
L 629.14105 282.430125 
L 627.95065 282.430125 
z
" clip-path="url(#p6869d43ca8)"/>
   </g>
   <g id="patch_478">
    <path d="M 629.14105 282.430125 
L 630.33145 282.430125 
L 630.33145 282.430125 
L 629.14105 282.430125 
z
" clip-path="url(#p6869d43ca8)"/>
   </g>
   <g id="patch_479">
    <path d="M 630.33145 282.430125 
L 631.52185 282.430125 
L 631.52185 282.430125 
L 630.33145 282.430125 
z
" clip-path="url(#p6869d43ca8)"/>
   </g>
   <g id="patch_480">
    <path d="M 631.52185 282.430125 
L 632.71225 282.430125 
L 632.71225 282.430125 
L 631.52185 282.430125 
z
" clip-path="url(#p6869d43ca8)"/>
   </g>
   <g id="patch_481">
    <path d="M 632.71225 282.430125 
L 633.90265 282.430125 
L 633.90265 282.430125 
L 632.71225 282.430125 
z
" clip-path="url(#p6869d43ca8)"/>
   </g>
   <g id="patch_482">
    <path d="M 633.90265 282.430125 
L 635.09305 282.430125 
L 635.09305 282.430125 
L 633.90265 282.430125 
z
" clip-path="url(#p6869d43ca8)"/>
   </g>
   <g id="patch_483">
    <path d="M 635.09305 282.430125 
L 636.28345 282.430125 
L 636.28345 282.430125 
L 635.09305 282.430125 
z
" clip-path="url(#p6869d43ca8)"/>
   </g>
   <g id="patch_484">
    <path d="M 636.28345 282.430125 
L 637.47385 282.430125 
L 637.47385 282.430125 
L 636.28345 282.430125 
z
" clip-path="url(#p6869d43ca8)"/>
   </g>
   <g id="patch_485">
    <path d="M 637.47385 282.430125 
L 638.66425 282.430125 
L 638.66425 282.430125 
L 637.47385 282.430125 
z
" clip-path="url(#p6869d43ca8)"/>
   </g>
   <g id="patch_486">
    <path d="M 638.66425 282.430125 
L 639.85465 282.430125 
L 639.85465 282.430125 
L 638.66425 282.430125 
z
" clip-path="url(#p6869d43ca8)"/>
   </g>
   <g id="patch_487">
    <path d="M 639.85465 282.430125 
L 641.04505 282.430125 
L 641.04505 282.430125 
L 639.85465 282.430125 
z
" clip-path="url(#p6869d43ca8)"/>
   </g>
   <g id="patch_488">
    <path d="M 641.04505 282.430125 
L 642.23545 282.430125 
L 642.23545 282.430125 
L 641.04505 282.430125 
z
" clip-path="url(#p6869d43ca8)"/>
   </g>
   <g id="patch_489">
    <path d="M 642.23545 282.430125 
L 643.42585 282.430125 
L 643.42585 282.430125 
L 642.23545 282.430125 
z
" clip-path="url(#p6869d43ca8)"/>
   </g>
   <g id="patch_490">
    <path d="M 643.42585 282.430125 
L 644.61625 282.430125 
L 644.61625 282.430125 
L 643.42585 282.430125 
z
" clip-path="url(#p6869d43ca8)"/>
   </g>
   <g id="patch_491">
    <path d="M 644.61625 282.430125 
L 645.80665 282.430125 
L 645.80665 282.430125 
L 644.61625 282.430125 
z
" clip-path="url(#p6869d43ca8)"/>
   </g>
   <g id="patch_492">
    <path d="M 645.80665 282.430125 
L 646.99705 282.430125 
L 646.99705 282.430125 
L 645.80665 282.430125 
z
" clip-path="url(#p6869d43ca8)"/>
   </g>
   <g id="patch_493">
    <path d="M 646.99705 282.430125 
L 648.18745 282.430125 
L 648.18745 282.430125 
L 646.99705 282.430125 
z
" clip-path="url(#p6869d43ca8)"/>
   </g>
   <g id="patch_494">
    <path d="M 648.18745 282.430125 
L 649.37785 282.430125 
L 649.37785 282.430125 
L 648.18745 282.430125 
z
" clip-path="url(#p6869d43ca8)"/>
   </g>
   <g id="patch_495">
    <path d="M 649.37785 282.430125 
L 650.56825 282.430125 
L 650.56825 282.430125 
L 649.37785 282.430125 
z
" clip-path="url(#p6869d43ca8)"/>
   </g>
   <g id="patch_496">
    <path d="M 650.56825 282.430125 
L 651.75865 282.430125 
L 651.75865 282.430125 
L 650.56825 282.430125 
z
" clip-path="url(#p6869d43ca8)"/>
   </g>
   <g id="patch_497">
    <path d="M 651.75865 282.430125 
L 652.94905 282.430125 
L 652.94905 282.430125 
L 651.75865 282.430125 
z
" clip-path="url(#p6869d43ca8)"/>
   </g>
   <g id="patch_498">
    <path d="M 652.94905 282.430125 
L 654.13945 282.430125 
L 654.13945 282.430125 
L 652.94905 282.430125 
z
" clip-path="url(#p6869d43ca8)"/>
   </g>
   <g id="patch_499">
    <path d="M 654.13945 282.430125 
L 655.32985 282.430125 
L 655.32985 282.430125 
L 654.13945 282.430125 
z
" clip-path="url(#p6869d43ca8)"/>
   </g>
   <g id="patch_500">
    <path d="M 655.32985 282.430125 
L 656.52025 282.430125 
L 656.52025 282.430125 
L 655.32985 282.430125 
z
" clip-path="url(#p6869d43ca8)"/>
   </g>
   <g id="patch_501">
    <path d="M 656.52025 282.430125 
L 657.71065 282.430125 
L 657.71065 282.430125 
L 656.52025 282.430125 
z
" clip-path="url(#p6869d43ca8)"/>
   </g>
   <g id="patch_502">
    <path d="M 657.71065 282.430125 
L 658.90105 282.430125 
L 658.90105 282.430125 
L 657.71065 282.430125 
z
" clip-path="url(#p6869d43ca8)"/>
   </g>
   <g id="patch_503">
    <path d="M 658.90105 282.430125 
L 660.09145 282.430125 
L 660.09145 282.430125 
L 658.90105 282.430125 
z
" clip-path="url(#p6869d43ca8)"/>
   </g>
   <g id="matplotlib.axis_1">
    <g id="xtick_1">
     <g id="line2d_1">
      <defs>
       <path id="mba0784e279" d="M 0 0 
L 0 3.5 
" style="stroke: #000000; stroke-width: 0.8"/>
      </defs>
      <g>
       <use xlink:href="#mba0784e279" x="64.29625" y="282.430125" style="stroke: #000000; stroke-width: 0.8"/>
      </g>
     </g>
     <g id="text_1">
      <!-- 0 -->
      <g transform="translate(55.946875 307.666375) scale(0.24 -0.24)">
       <defs>
        <path id="DejaVuSans-Bold-30" d="M 2944 2338 
Q 2944 3213 2780 3570 
Q 2616 3928 2228 3928 
Q 1841 3928 1675 3570 
Q 1509 3213 1509 2338 
Q 1509 1453 1675 1090 
Q 1841 728 2228 728 
Q 2613 728 2778 1090 
Q 2944 1453 2944 2338 
z
M 4147 2328 
Q 4147 1169 3647 539 
Q 3147 -91 2228 -91 
Q 1306 -91 806 539 
Q 306 1169 306 2328 
Q 306 3491 806 4120 
Q 1306 4750 2228 4750 
Q 3147 4750 3647 4120 
Q 4147 3491 4147 2328 
z
" transform="scale(0.015625)"/>
       </defs>
       <use xlink:href="#DejaVuSans-Bold-30"/>
      </g>
     </g>
    </g>
    <g id="xtick_2">
     <g id="line2d_2">
      <g>
       <use xlink:href="#mba0784e279" x="183.33625" y="282.430125" style="stroke: #000000; stroke-width: 0.8"/>
      </g>
     </g>
     <g id="text_2">
      <!-- 1 -->
      <g transform="translate(174.986875 307.666375) scale(0.24 -0.24)">
       <defs>
        <path id="DejaVuSans-Bold-31" d="M 750 831 
L 1813 831 
L 1813 3847 
L 722 3622 
L 722 4441 
L 1806 4666 
L 2950 4666 
L 2950 831 
L 4013 831 
L 4013 0 
L 750 0 
L 750 831 
z
" transform="scale(0.015625)"/>
       </defs>
       <use xlink:href="#DejaVuSans-Bold-31"/>
      </g>
     </g>
    </g>
    <g id="xtick_3">
     <g id="line2d_3">
      <g>
       <use xlink:href="#mba0784e279" x="302.37625" y="282.430125" style="stroke: #000000; stroke-width: 0.8"/>
      </g>
     </g>
     <g id="text_3">
      <!-- 2 -->
      <g transform="translate(294.026875 307.666375) scale(0.24 -0.24)">
       <defs>
        <path id="DejaVuSans-Bold-32" d="M 1844 884 
L 3897 884 
L 3897 0 
L 506 0 
L 506 884 
L 2209 2388 
Q 2438 2594 2547 2791 
Q 2656 2988 2656 3200 
Q 2656 3528 2436 3728 
Q 2216 3928 1850 3928 
Q 1569 3928 1234 3808 
Q 900 3688 519 3450 
L 519 4475 
Q 925 4609 1322 4679 
Q 1719 4750 2100 4750 
Q 2938 4750 3402 4381 
Q 3866 4013 3866 3353 
Q 3866 2972 3669 2642 
Q 3472 2313 2841 1759 
L 1844 884 
z
" transform="scale(0.015625)"/>
       </defs>
       <use xlink:href="#DejaVuSans-Bold-32"/>
      </g>
     </g>
    </g>
    <g id="xtick_4">
     <g id="line2d_4">
      <g>
       <use xlink:href="#mba0784e279" x="421.41625" y="282.430125" style="stroke: #000000; stroke-width: 0.8"/>
      </g>
     </g>
     <g id="text_4">
      <!-- 3 -->
      <g transform="translate(413.066875 307.666375) scale(0.24 -0.24)">
       <defs>
        <path id="DejaVuSans-Bold-33" d="M 2981 2516 
Q 3453 2394 3698 2092 
Q 3944 1791 3944 1325 
Q 3944 631 3412 270 
Q 2881 -91 1863 -91 
Q 1503 -91 1142 -33 
Q 781 25 428 141 
L 428 1069 
Q 766 900 1098 814 
Q 1431 728 1753 728 
Q 2231 728 2486 893 
Q 2741 1059 2741 1369 
Q 2741 1688 2480 1852 
Q 2219 2016 1709 2016 
L 1228 2016 
L 1228 2791 
L 1734 2791 
Q 2188 2791 2409 2933 
Q 2631 3075 2631 3366 
Q 2631 3634 2415 3781 
Q 2200 3928 1806 3928 
Q 1516 3928 1219 3862 
Q 922 3797 628 3669 
L 628 4550 
Q 984 4650 1334 4700 
Q 1684 4750 2022 4750 
Q 2931 4750 3382 4451 
Q 3834 4153 3834 3553 
Q 3834 3144 3618 2883 
Q 3403 2622 2981 2516 
z
" transform="scale(0.015625)"/>
       </defs>
       <use xlink:href="#DejaVuSans-Bold-33"/>
      </g>
     </g>
    </g>
   </g>
   <g id="matplotlib.axis_2">
    <g id="ytick_1">
     <g id="line2d_5">
      <defs>
       <path id="md20b856719" d="M 0 0 
L -3.5 0 
" style="stroke: #000000; stroke-width: 0.8"/>
      </defs>
      <g>
       <use xlink:href="#md20b856719" x="64.29625" y="282.430125" style="stroke: #000000; stroke-width: 0.8"/>
      </g>
     </g>
     <g id="text_5">
      <!-- 0 -->
      <g transform="translate(40.5975 291.54825) scale(0.24 -0.24)">
       <use xlink:href="#DejaVuSans-Bold-30"/>
      </g>
     </g>
    </g>
    <g id="ytick_2">
     <g id="line2d_6">
      <g>
       <use xlink:href="#md20b856719" x="64.29625" y="193.726125" style="stroke: #000000; stroke-width: 0.8"/>
      </g>
     </g>
     <g id="text_6">
      <!-- 200 -->
      <g transform="translate(7.2 202.84425) scale(0.24 -0.24)">
       <use xlink:href="#DejaVuSans-Bold-32"/>
       <use xlink:href="#DejaVuSans-Bold-30" transform="translate(69.580078 0)"/>
       <use xlink:href="#DejaVuSans-Bold-30" transform="translate(139.160156 0)"/>
      </g>
     </g>
    </g>
    <g id="ytick_3">
     <g id="line2d_7">
      <g>
       <use xlink:href="#md20b856719" x="64.29625" y="105.022125" style="stroke: #000000; stroke-width: 0.8"/>
      </g>
     </g>
     <g id="text_7">
      <!-- 400 -->
      <g transform="translate(7.2 114.14025) scale(0.24 -0.24)">
       <defs>
        <path id="DejaVuSans-Bold-34" d="M 2356 3675 
L 1038 1722 
L 2356 1722 
L 2356 3675 
z
M 2156 4666 
L 3494 4666 
L 3494 1722 
L 4159 1722 
L 4159 850 
L 3494 850 
L 3494 0 
L 2356 0 
L 2356 850 
L 288 850 
L 288 1881 
L 2156 4666 
z
" transform="scale(0.015625)"/>
       </defs>
       <use xlink:href="#DejaVuSans-Bold-34"/>
       <use xlink:href="#DejaVuSans-Bold-30" transform="translate(69.580078 0)"/>
       <use xlink:href="#DejaVuSans-Bold-30" transform="translate(139.160156 0)"/>
      </g>
     </g>
    </g>
    <g id="ytick_4">
     <g id="line2d_8">
      <g>
       <use xlink:href="#md20b856719" x="64.29625" y="16.318125" style="stroke: #000000; stroke-width: 0.8"/>
      </g>
     </g>
     <g id="text_8">
      <!-- 600 -->
      <g transform="translate(7.2 25.43625) scale(0.24 -0.24)">
       <defs>
        <path id="DejaVuSans-Bold-36" d="M 2316 2303 
Q 2000 2303 1842 2098 
Q 1684 1894 1684 1484 
Q 1684 1075 1842 870 
Q 2000 666 2316 666 
Q 2634 666 2792 870 
Q 2950 1075 2950 1484 
Q 2950 1894 2792 2098 
Q 2634 2303 2316 2303 
z
M 3803 4544 
L 3803 3681 
Q 3506 3822 3243 3889 
Q 2981 3956 2731 3956 
Q 2194 3956 1894 3657 
Q 1594 3359 1544 2772 
Q 1750 2925 1990 3001 
Q 2231 3078 2516 3078 
Q 3231 3078 3670 2659 
Q 4109 2241 4109 1563 
Q 4109 813 3618 361 
Q 3128 -91 2303 -91 
Q 1394 -91 895 523 
Q 397 1138 397 2266 
Q 397 3422 980 4083 
Q 1563 4744 2578 4744 
Q 2900 4744 3203 4694 
Q 3506 4644 3803 4544 
z
" transform="scale(0.015625)"/>
       </defs>
       <use xlink:href="#DejaVuSans-Bold-36"/>
       <use xlink:href="#DejaVuSans-Bold-30" transform="translate(69.580078 0)"/>
       <use xlink:href="#DejaVuSans-Bold-30" transform="translate(139.160156 0)"/>
      </g>
     </g>
    </g>
   </g>
   <g id="patch_504">
    <path d="M 64.29625 282.430125 
L 64.29625 16.318125 
" style="fill: none; stroke: #000000; stroke-width: 0.8; stroke-linejoin: miter; stroke-linecap: square"/>
   </g>
   <g id="patch_505">
    <path d="M 64.29625 282.430125 
L 421.41625 282.430125 
" style="fill: none; stroke: #000000; stroke-width: 0.8; stroke-linejoin: miter; stroke-linecap: square"/>
   </g>
  </g>
 </g>
 <defs>
  <clipPath id="p6869d43ca8">
   <rect x="64.29625" y="16.318125" width="357.12" height="266.112"/>
  </clipPath>
 </defs>
</svg>
