<svg width="3116" height="1118" xmlns="http://www.w3.org/2000/svg" xmlns:xlink="http://www.w3.org/1999/xlink" xml:space="preserve" overflow="hidden"><defs><clipPath id="clip0"><rect x="472" y="389" width="3116" height="1118"/></clipPath><clipPath id="clip1"><rect x="472" y="389" width="3116" height="1118"/></clipPath></defs><g clip-path="url(#clip0)" transform="translate(-472 -389)"><g clip-path="url(#clip1)"><path d="M1289.5 636.502C1289.5 576.854 1337.85 528.5 1397.5 528.5L2683.5 528.5C2743.15 528.5 2791.5 576.854 2791.5 636.502L2791.5 1068.5C2791.5 1128.15 2743.15 1176.5 2683.5 1176.5L1397.5 1176.5C1337.85 1176.5 1289.5 1128.15 1289.5 1068.5Z" stroke="#000000" stroke-width="6.875" stroke-linecap="butt" stroke-linejoin="miter" stroke-miterlimit="8" stroke-opacity="1" fill="none" fill-rule="evenodd"/><text fill="#000000" fill-opacity="1" font-family="Arial,Arial_MSFontService,sans-serif" font-style="normal" font-variant="normal" font-weight="400" font-stretch="normal" font-size="73" text-anchor="start" direction="ltr" writing-mode="lr-tb" unicode-bidi="normal" text-decoration="none" transform="matrix(1 0 0 1 1958.67 485)">Agent</text><text fill="#000000" fill-opacity="1" font-family="Arial,Arial_MSFontService,sans-serif" font-style="normal" font-variant="normal" font-weight="700" font-stretch="normal" font-size="64" text-anchor="start" direction="ltr" writing-mode="lr-tb" unicode-bidi="normal" text-decoration="none" transform="matrix(1 0 0 1 1421.91 621)">Representation</text><path d="M2180 739.001C2180 700.341 2211.34 669 2250 669L2627 669C2665.66 669 2697 700.341 2697 739.001L2697 1019C2697 1057.66 2665.66 1089 2627 1089L2250 1089C2211.34 1089 2180 1057.66 2180 1019Z" fill="#D9F2D0" fill-rule="evenodd" fill-opacity="1"/><text fill="#000000" fill-opacity="1" font-family="Arial,Arial_MSFontService,sans-serif" font-style="normal" font-variant="normal" font-weight="400" font-stretch="normal" font-size="64" text-anchor="start" direction="ltr" writing-mode="lr-tb" unicode-bidi="normal" text-decoration="none" transform="matrix(1 0 0 1 2349.46 864)">Action </text><text fill="#000000" fill-opacity="1" font-family="Arial,Arial_MSFontService,sans-serif" font-style="normal" font-variant="normal" font-weight="400" font-stretch="normal" font-size="64" text-anchor="start" direction="ltr" writing-mode="lr-tb" unicode-bidi="normal" text-decoration="none" transform="matrix(1 0 0 1 2297.9 941)">Execution</text><path d="M1880.5 849.062 2154.76 849.063 2154.76 855.938 1880.5 855.938ZM2150.17 838.75 2177.67 852.5 2150.17 866.25Z" fill="#000000" fill-rule="nonzero" fill-opacity="1"/><path d="M475 717.001C475 678.341 506.341 647 545.001 647L921.999 647C960.659 647 992 678.341 992 717.001L992 996.999C992 1035.66 960.659 1067 921.999 1067L545.001 1067C506.341 1067 475 1035.66 475 996.999Z" fill="#F2CFEE" fill-rule="evenodd" fill-opacity="1"/><text fill="#000000" fill-opacity="1" font-family="Arial,Arial_MSFontService,sans-serif" font-style="normal" font-variant="normal" font-weight="400" font-stretch="normal" font-size="64" text-anchor="start" direction="ltr" writing-mode="lr-tb" unicode-bidi="normal" text-decoration="none" transform="matrix(1 0 0 1 550.215 881)">Input</text><text fill="#000000" fill-opacity="1" font-family="Arial,Arial_MSFontService,sans-serif" font-style="normal" font-variant="normal" font-weight="400" font-stretch="normal" font-size="64" text-anchor="start" direction="ltr" writing-mode="lr-tb" unicode-bidi="normal" text-decoration="none" transform="matrix(1 0 0 1 710.059 881)">Strea</text><text fill="#000000" fill-opacity="1" font-family="Arial,Arial_MSFontService,sans-serif" font-style="normal" font-variant="normal" font-weight="400" font-stretch="normal" font-size="64" text-anchor="start" direction="ltr" writing-mode="lr-tb" unicode-bidi="normal" text-decoration="none" transform="matrix(1 0 0 1 863.027 881)">m</text><path d="M0.0598666-3.43698 274.321 1.3402 274.201 8.21415-0.0598666 3.43698ZM269.917-9.05057 297.174 5.17628 269.438 18.4453Z" fill="#000000" fill-rule="nonzero" fill-opacity="1" transform="matrix(1 0 0 -1 992.5 857.676)"/><path d="M2791.5 849.062 3065.76 849.063 3065.76 855.938 2791.5 855.938ZM3061.17 838.75 3088.67 852.5 3061.17 866.25Z" fill="#000000" fill-rule="nonzero" fill-opacity="1"/><path d="M3089 739.001C3089 700.341 3120.34 669 3159 669L3518 669C3556.66 669 3588 700.341 3588 739.001L3588 1019C3588 1057.66 3556.66 1089 3518 1089L3159 1089C3120.34 1089 3089 1057.66 3089 1019Z" fill="#D1D1D1" fill-rule="evenodd" fill-opacity="1"/><text fill="#000000" fill-opacity="1" font-family="Arial,Arial_MSFontService,sans-serif" font-style="normal" font-variant="normal" font-weight="400" font-stretch="normal" font-size="64" text-anchor="start" direction="ltr" writing-mode="lr-tb" unicode-bidi="normal" text-decoration="none" transform="matrix(1 0 0 1 3187.12 864)">Behavioral </text><text fill="#000000" fill-opacity="1" font-family="Arial,Arial_MSFontService,sans-serif" font-style="normal" font-variant="normal" font-weight="400" font-stretch="normal" font-size="64" text-anchor="start" direction="ltr" writing-mode="lr-tb" unicode-bidi="normal" text-decoration="none" transform="matrix(1 0 0 1 3242.42 941)">Output</text><path d="M56.48 0 85.7334 70.6519 73.6667 78.9837 110.513 139.526 98.4467 149.636 144 251 66.7467 173.318 81.48 162.534 33.48 112.776 50.68 97.4021 0 45.2033Z" stroke="#042433" stroke-width="6.875" stroke-linecap="butt" stroke-linejoin="miter" stroke-miterlimit="8" stroke-opacity="1" fill="#A6CAEC" fill-rule="evenodd" fill-opacity="1" transform="matrix(-1 0 0 1 1678.5 1112.5)"/><path d="M56.0878 0 85.138 70.6519 73.1551 78.9837 109.746 139.526 97.763 149.636 143 251 66.2831 173.318 80.9142 162.534 33.2475 112.776 50.3281 97.4021 0 45.2033Z" stroke="#042433" stroke-width="6.875" stroke-linecap="butt" stroke-linejoin="miter" stroke-miterlimit="8" stroke-opacity="1" fill="#B4E5A2" fill-rule="evenodd" fill-opacity="1" transform="matrix(-1 0 0 1 2509.5 1112.5)"/><text fill="#000000" fill-opacity="1" font-family="Cambria Math,Cambria Math_MSFontService,sans-serif" font-style="normal" font-variant="normal" font-weight="400" font-stretch="normal" font-size="83" text-anchor="start" direction="ltr" writing-mode="lr-tb" unicode-bidi="normal" text-decoration="none" transform="matrix(1 0 0 1 1526.54 1460)">𝜀</text><text fill="#000000" fill-opacity="1" font-family="Cambria Math,Cambria Math_MSFontService,sans-serif" font-style="normal" font-variant="normal" font-weight="400" font-stretch="normal" font-size="83" text-anchor="start" direction="ltr" writing-mode="lr-tb" unicode-bidi="normal" text-decoration="none" transform="matrix(1 0 0 1 2390.17 1460)">𝜂</text><path d="M1360 728.001C1360 689.341 1391.34 658 1430 658L1807 658C1845.66 658 1877 689.341 1877 728.001L1877 1008C1877 1046.66 1845.66 1078 1807 1078L1430 1078C1391.34 1078 1360 1046.66 1360 1008Z" fill="#DCEAF7" fill-rule="evenodd" fill-opacity="1"/><text fill="#000000" fill-opacity="1" font-family="Arial,Arial_MSFontService,sans-serif" font-style="normal" font-variant="normal" font-weight="400" font-stretch="normal" font-size="64" text-anchor="start" direction="ltr" writing-mode="lr-tb" unicode-bidi="normal" text-decoration="none" transform="matrix(1 0 0 1 1476.87 814)">Inference,</text><text fill="#000000" fill-opacity="1" font-family="Arial,Arial_MSFontService,sans-serif" font-style="normal" font-variant="normal" font-weight="400" font-stretch="normal" font-size="64" text-anchor="start" direction="ltr" writing-mode="lr-tb" unicode-bidi="normal" text-decoration="none" transform="matrix(1 0 0 1 1459.11 891)">Integration,</text><text fill="#000000" fill-opacity="1" font-family="Arial,Arial_MSFontService,sans-serif" font-style="normal" font-variant="normal" font-weight="400" font-stretch="normal" font-size="64" text-anchor="start" direction="ltr" writing-mode="lr-tb" unicode-bidi="normal" text-decoration="none" transform="matrix(1 0 0 1 1503.52 968)">Memory</text><text fill="#000000" fill-opacity="1" font-family="Arial,Arial_MSFontService,sans-serif" font-style="normal" font-variant="normal" font-weight="400" font-stretch="normal" font-size="73" text-anchor="start" direction="ltr" writing-mode="lr-tb" unicode-bidi="normal" text-decoration="none" transform="matrix(1 0 0 1 529.997 485)">Environment</text></g></g></svg>